<?xml version="1.0" encoding="UTF-8"?><svg id="c" xmlns="http://www.w3.org/2000/svg" viewBox="0 0 249.28 100"><path d="M40.16,59.84c.29-.62.47-1.24.76-2.04.33-.9.57-1.8.76-2.7l2.7-12.2c.24-1.24.38-2.19.43-2.7.1-.47.1-1,.1-1.47v-.57h6.12l-3.7,16.94c-.29,1.19-.43,2.14-.52,2.75-.1.66-.14,1.33-.14,1.99h-6.5Z" style="fill:#fff; fill-rule:evenodd;"/><path d="M125.97.14c-4.18,0-7.55,3.37-7.55,7.5s.33,2.47.9,3.56c-.76.38-2.52,1.24-4.98,2.52-1.28-2.8-4.65-4.03-7.45-2.7-2.8,1.28-4.03,4.6-2.75,7.4.1.19.19.43.33.62-1.28.71-2.56,1.42-3.94,2.19-1.24-2.09-3.94-2.8-6.03-1.57-2.09,1.24-2.8,3.89-1.61,5.98-1.38.8-2.8,1.66-4.18,2.52-1.38-1.14-3.42-1-4.56.38-.47.57-.76,1.33-.76,2.09s0,.57.1.8c-5.36,3.42-10.54,7.12-15.42,11.2-5.13-11.34-12.62-23.78-23.12-33.94h0c-1.24-1.24-2.23-.71-.85.8h0c8.87,9.54,15.9,23.3,20.64,35.83-18.08,15.33-37.97,44.99-16.14,54.29,3.18,1.38,4.65-1.24,3.28-2.04-.24-.14-9.97-5.36-3.8-21.4h15.57c.85,0,1.52-.66,1.52-1.52s-.66-1.52-1.52-1.52h-14.29c.9-1.95,1.95-3.84,3.09-5.69h11.2c.85,0,1.47-.76,1.42-1.57,0-.76-.66-1.38-1.42-1.42h-9.26c1.14-1.71,2.47-3.51,3.89-5.41h5.32c.85,0,1.47-.76,1.42-1.57,0-.76-.66-1.38-1.42-1.42h-2.94c1.71-2.04,3.56-4.23,5.6-6.41h.05c4.08,11.72,6.08,21.78,5.65,25.16-.1,1.19-.8,2.28-1.9,2.8-.76.38-1.09,1.42.1,1.75,3.8,1.14,6.17-2.66,6.6-5.69s-1.66-14.19-7.17-27.53c4.79-4.65,9.92-8.97,15.38-12.91.47.29,1.04.43,1.61.43,1.8,0,3.23-1.42,3.23-3.23s0-.43-.05-.62c1.42-1,2.89-1.95,4.32-2.89.76.62,1.75.95,2.75.95,2.42,0,4.41-1.9,4.41-4.32s0-.76-.14-1.14c1.42-.9,2.8-1.71,4.13-2.47,2.09,2.28,5.65,2.37,7.93.29,1.61-1.47,2.19-3.7,1.52-5.74,2.42-1.33,4.18-2.28,5.03-2.75,2.37,3.42,7.07,4.32,10.49,1.99,3.46-2.33,4.32-7.02,1.99-10.44-1.42-2.04-3.75-3.28-6.27-3.28h0v.14h.06Z" style="fill:#ec7e30; fill-rule:evenodd;"/><path d="M22.12,42.9c.1-.38.19-.71.19-1.09s0-.33-.1-.47c-.19-.29-.66-.43-1.33-.43h-9.92c-.52,0-1,.1-1.42.43-.43.43-.66,1-.66,1.57l-1.19,4.98h13.2l1.19-4.98h.05ZM23.64,59.84H4.52c-1.9,0-3.23-.43-3.94-1.33-.38-.62-.62-1.33-.57-2.04,0-.8.14-1.57.33-2.37l2.37-10.25c.52-2.09,1.28-3.56,2.28-4.41,1.04-.85,2.52-1.33,4.51-1.33h14.15c1.99,0,3.32.43,3.99,1.33.47.62.66,1.38.62,2.14,0,.76-.1,1.57-.33,2.33l-1.52,6.79H7.12l-1.04,4.41c-.1.33-.14.71-.14,1.04s0,.43.1.52c.14.29.57.43,1.24.43h14c1.24,0,2.47-.1,3.65-.38l-1.33,3.13h.05,0Z" style="fill:#fff; fill-rule:evenodd;"/><path d="M28.25,59.84c.29-.66.52-1.42.85-2.33.33-1,.62-2.04.85-3.09l4.89-22.83c.29-1.42.47-2.47.57-3.09s.1-1.38.1-2.33h6.83l-6.08,28.24c-.29,1.38-.47,2.42-.62,3.18-.1.76-.19,1.52-.14,2.28h-7.26v-.05h0Z" style="fill:#fff; fill-rule:evenodd;"/><path d="M107.98,41.81c-.71,0-1.42-.1-2.23-.1h-3.18c-.52,0-1,.1-1.42.38-.43.38-.71.85-.8,1.42l-2.66,11.58c-.38,1.38-.62,2.8-.66,4.23v.52h-6.93c.29-.71.57-1.33.76-1.99s.43-1.52.76-2.75l2.85-12.2c.33-1.19.47-2.14.62-2.8.1-.66.1-1.28.1-1.95h5.84l-.24,2.23c.33-.66.8-1.24,1.47-1.66.76-.43,1.61-.62,2.52-.57h5.69l1.38,2.37c-.29.24-.57.57-.8.85-.33.43-.57.62-.71.62-.85,0-1.61-.14-2.33-.19h-.01Z" style="fill:#fff; fill-rule:evenodd;"/><path d="M77.08,59.84c.29-.62.52-1.24.8-2.04.33-.9.62-1.8.8-2.7l2.99-12.2c.24-1.24.43-2.19.47-2.7.1-.47.1-1,.1-1.47v-.57h6.74l-4.03,16.94c-.29,1.19-.47,2.14-.57,2.75-.14.66-.19,1.33-.14,1.99h-7.17Z" style="fill:#fff; fill-rule:evenodd;"/><path d="M52.12,30.51c0,1.8-1.47,3.28-3.23,3.28s-3.28-1.47-3.28-3.23,1.47-3.28,3.23-3.28h0c1.8,0,3.23,1.47,3.23,3.23,0,0,.05,0,.05,0Z" style="fill:#fff; fill-rule:evenodd;"/><path d="M147.4,42.12c1.45,0,1.61-.16,1.88-1.4l1.88-7.68c.37-1.56.37-1.82.11-2.47h3.28c-.59.65-.75.91-1.13,2.47l-1.72,7.09c-.75,3.17-1.93,4.3-4.89,4.3h-6.93c-2.69,0-3.44-1.4-2.74-4.3l1.77-7.2c.32-1.34.27-1.82.16-2.36h6.07c-.54.7-.86,1.5-1.02,2.36l-1.93,7.89c-.22.91.05,1.29.97,1.29h4.25Z" style="fill:#fff; fill-rule:evenodd;"/><path d="M157.66,32.93h0l-2.2,8.97c-.37,1.56-.37,1.82-.11,2.47h-3.28c.59-.65.75-.91,1.13-2.47l2.15-8.92c.37-1.56.37-1.82.11-2.47h7.25l2.74,11.28h.05l2.15-8.81c.37-1.56.37-1.82.11-2.47h3.28c-.59.65-.75.91-1.13,2.47l-2.74,11.38h-6.66l-2.79-11.44h-.05Z" style="fill:#fff; fill-rule:evenodd;"/><path d="M169.74,44.43c.54-.7.91-1.5,1.07-2.36l2.36-9.13c.32-1.34.32-1.82.16-2.36h6.45c-.54.7-.91,1.5-1.07,2.36l-2.36,9.13c-.32,1.34-.32,1.82-.16,2.36h-6.45Z" style="fill:#fff; fill-rule:evenodd;"/><path d="M193.75,30.52l-.27,2.84c-.48-.43-1.13-.65-1.77-.59h-2.36l-2.2,9.19c-.32,1.34-.27,1.82-.16,2.36h-5.96c.48-.7.86-1.5,1.02-2.36l2.2-9.19h-2.36c-.7,0-1.45.16-2.04.59l1.13-2.84h12.78,0Z" style="fill:#fff; fill-rule:evenodd;"/><path d="M201.86,42.12c.8,0,1.67-.11,2.42-.37l-1.13,2.69h-11.98c.54-.7.86-1.5,1.02-2.36l2.2-9.13c.32-1.34.27-1.82.16-2.36h11.76l-.22,2.69c-.7-.27-1.5-.37-2.26-.37h-4.24l-.8,3.28h3.71c.8,0,1.67-.11,2.42-.37l-.75,3.06c-.7-.27-1.5-.37-2.26-.37h-3.71l-.91,3.71h4.56v-.07Z" style="fill:#fff; fill-rule:evenodd;"/><path d="M211.42,42.12h2.79c.86,0,1.07-.22,1.29-1.13l1.77-7.04c.22-.91.16-1.13-.7-1.13h-2.79l-2.36,9.29h0ZM208.41,32.93c.32-1.34.27-1.82.16-2.36h10.9c3.01,0,3.76,1.13,3.06,3.92l-1.5,6.02c-.7,2.79-2.04,3.97-5.05,3.97h-10.9c.54-.7.91-1.5,1.07-2.36l2.26-9.13h0v-.05h0Z" style="fill:#fff; fill-rule:evenodd;"/><path d="M150.41,63.01c.32,1.02.75,1.93,1.29,2.84h-6.28l-1.56-5.85-1.56,1.4-.48,2.09c-.32,1.34-.27,1.82-.16,2.36h-5.91c.48-.7.86-1.5,1.02-2.36l2.2-9.08c.27-.75.32-1.61.16-2.36h5.91c-.48.7-.86,1.5-1.02,2.36l-.91,3.81,4.51-4.19c.75-.7.97-1.02,1.07-1.5,0-.16.05-.32.05-.54h4.67c-.75.32-1.45.8-2.09,1.34l-3.11,2.74,2.26,6.93h-.06Z" style="fill:#fff; fill-rule:evenodd;"/><path d="M153.37,65.85c.48-.7.8-1.5.97-2.36l2.09-9.13c.32-1.34.27-1.82.16-2.36h5.64c-.48.7-.8,1.5-.97,2.36l-2.09,9.13c-.32,1.34-.27,1.82-.16,2.36h-5.64Z" style="fill:#fff; fill-rule:evenodd;"/><path d="M166.47,54.37h0l-2.2,8.97c-.37,1.56-.37,1.82-.11,2.47h-3.28c.59-.65.75-.91,1.13-2.47l2.15-8.86c.37-1.56.37-1.82.11-2.47h7.25l2.74,11.33h.05l2.15-8.81c.37-1.56.37-1.82.11-2.47h3.28c-.59.65-.75.91-1.13,2.47l-2.74,11.38h-6.71l-2.79-11.49h0v-.05Z" style="fill:#fff; fill-rule:evenodd;"/><path d="M194.99,57.53c-.65.59-1.02,1.34-1.18,2.15l-.86,3.44c-.43,1.72-.43,1.99-.11,2.74h-4.67l.16-1.29h0c-.43.8-.75,1.29-2.26,1.29h-4.67c-2.26,0-3.22-1.07-2.52-4.08l1.45-5.75c.75-3.01,2.26-4.08,4.51-4.08h10.15l-.27,2.69c-.65-.27-1.34-.37-2.04-.37h-5.64c-.7,0-1.07.22-1.24.91l-1.88,7.52c-.16.65.11.91.8.91h1.77c.7,0,1.07-.22,1.29-.91l.7-2.84h-1.99c-.32,0-.65.11-.97.27l.65-2.58h8.81,0Z" style="fill:#fff; fill-rule:evenodd;"/><path d="M200.09,63.6h2.79c.86,0,1.07-.22,1.29-1.13l1.77-7.04c.22-.91.16-1.13-.7-1.13h-2.79l-2.36,9.29h0ZM197.03,54.37c.32-1.34.27-1.82.16-2.36h10.9c3.01,0,3.76,1.13,3.06,3.97l-1.5,5.96c-.7,2.84-2.04,3.97-5.05,3.97h-10.9c.54-.7.91-1.5,1.07-2.36l2.26-9.13h0v-.05h0Z" style="fill:#fff; fill-rule:evenodd;"/><path d="M216.58,62.69c-.16.65.11.91.8.91h2.26c.65,0,1.07-.22,1.24-.91l1.82-7.52c.16-.65-.11-.91-.8-.91h-2.26c-.7,0-1.07.22-1.24.91l-1.82,7.52ZM213.03,56.08c.7-3.01,2.2-4.08,4.41-4.08h7.73c2.2,0,3.17,1.07,2.42,4.08l-1.4,5.75c-.7,3.01-2.2,4.08-4.41,4.08h-7.73c-2.2,0-3.17-1.07-2.42-4.08l1.4-5.75h0Z" style="fill:#fff; fill-rule:evenodd;"/><path d="M242.35,52h6.93c-.54.7-.86,1.5-1.02,2.36l-2.2,9.08c-.32,1.34-.27,1.82-.11,2.36h-6.02c.48-.7.86-1.5,1.02-2.36l2.04-8.54h0l-6.39,10.9h-3.54l-.97-10.9h0l-2.04,8.43c-.37,1.56-.37,1.82-.11,2.47h-3.22c.59-.65.75-.91,1.13-2.47l2.15-8.86c.37-1.56.37-1.82.11-2.47h7.14l.65,7.84h0l4.62-7.84h-.16,0Z" style="fill:#fff; fill-rule:evenodd;"/></svg>