<?xml version="1.0" encoding="UTF-8"?><svg id="c" xmlns="http://www.w3.org/2000/svg" viewBox="0 0 200 100"><path d="M0,49.99c0-9.8,0-19.59,0-29.39,0-.69-.09-.61.59-.61,13.43,0,26.86,0,40.28,0,.72,0,.61-.09.61.63,0,4.19,0,8.38,0,12.57q0,.61-.59.61c-7.96,0-15.93,0-23.89,0-.69,0-.61-.09-.61.59,0,2.65,0,5.31,0,7.96,0,.11,0,.22,0,.33-.01.18.06.26.24.25.11,0,.22,0,.33,0,2.39,0,4.77,0,7.16,0,.11,0,.22,0,.33,0,.19-.01.25.08.24.26,0,.09,0,.19,0,.28,0,4.36,0,8.73,0,13.09,0,.57.07.52-.54.52-2.37,0-4.74,0-7.11,0-.06,0-.13,0-.19,0-.46,0-.46,0-.46.46,0,2.72,0,5.43,0,8.15,0,.53-.03.48.49.48,7.98,0,15.96,0,23.94,0q.66,0,.66.67c0,4.21,0,8.41,0,12.62,0,.58.07.53-.53.53-13.48,0-26.95,0-40.43,0-.09,0-.19,0-.28,0-.18.01-.27-.06-.25-.24,0-.13,0-.25,0-.38,0-9.8,0-19.59,0-29.39Z" style="fill:#fff;"/><path d="M169.01,31.86c.45-.55.86-1.01,1.35-1.41,1.56-1.27,3.37-1.68,5.33-1.51,1.26.11,2.42.49,3.43,1.28,1.26.98,1.95,2.31,2.28,3.84.14.66.21,1.33.21,2.01,0,3.52,0,7.03,0,10.55,0,.08,0,.16,0,.24,0,.16-.07.23-.23.22-.2,0-.41,0-.61,0-.75,0-1.51,0-2.26,0-.22,0-.32-.07-.3-.3.01-.11,0-.22,0-.33,0-3.19,0-6.37,0-9.56,0-.77-.06-1.54-.3-2.27-.51-1.58-1.71-2.45-3.37-2.53-2.32-.11-3.94,1.36-4.35,3.58-.09.5-.11,1-.11,1.5,0,3.11,0,6.21,0,9.32,0,.11,0,.22,0,.33.01.18-.06.25-.24.25-.97,0-1.95,0-2.92,0-.16,0-.23-.06-.23-.22,0-.13,0-.25,0-.38,0-3.28,0-6.56,0-9.84,0-.72-.1-1.44-.35-2.12-.55-1.51-1.75-2.36-3.36-2.43-2.08-.09-3.74,1.27-4.28,3.38-.12.49-.19.98-.19,1.49,0,3.14,0,6.28,0,9.42,0,.08,0,.16,0,.24,0,.5.02.46-.46.46-.86,0-1.73,0-2.59,0-.34,0-.34,0-.35-.33,0-.08,0-.16,0-.24,0-5.56,0-11.11,0-16.67,0-.64-.08-.57.58-.57.83,0,1.66,0,2.5,0,.24,0,.33.06.33.32-.02.5,0,1,0,1.62,1-1.08,2.08-1.83,3.44-2.12,1.34-.29,2.65-.23,3.94.23,1.32.47,2.33,1.34,3.09,2.56Z" style="fill:#fff;"/><path d="M58.99,35.16c0-3.73,0-7.47,0-11.2,0-.09,0-.19,0-.28,0-.4,0-.41.42-.41,2.98,0,5.97,0,8.95,0,2.48,0,4.96,0,7.44,0,.09,0,.19,0,.28,0,.26-.03.32.1.32.33,0,.85,0,1.69,0,2.54,0,.38,0,.39-.4.39-1.79,0-3.58,0-5.37,0-2.51,0-5.02,0-7.54,0-.09,0-.19,0-.28,0-.34,0-.35,0-.35.33,0,2.09,0,4.17,0,6.26,0,.24.07.33.32.32.63-.01,1.26,0,1.88,0,3.25,0,6.5,0,9.75,0,.56,0,.51-.04.51.5,0,.78,0,1.57,0,2.35,0,.4,0,.4-.42.4-1.04,0-2.07,0-3.11,0-2.75,0-5.5,0-8.24,0-.09,0-.19,0-.28,0-.4,0-.41,0-.41.42,0,2.09,0,4.17,0,6.26,0,.43,0,.43.44.43,4.33,0,8.67,0,13,0,.75,0,.64-.1.65.65,0,.75,0,1.51,0,2.26,0,.34,0,.34-.33.35-.55,0-1.1,0-1.65,0-4.93,0-9.86,0-14.79,0-.11,0-.22,0-.33,0-.46,0-.45.05-.45-.46,0-3.81,0-7.63,0-11.44Z" style="fill:#fff;"/><path d="M173.19,69.21c.25,2.08,1.88,4.6,4.97,4.81,2.36.16,4.38-.61,6.02-2.33.06-.07.14-.13.23-.22.45.4.89.79,1.34,1.19.21.19.42.38.63.57.27.24.27.25.04.51-.71.81-1.52,1.5-2.45,2.04-1.86,1.08-3.87,1.5-6.01,1.37-4.34-.26-7.68-3.56-8.23-7.87-.36-2.78.17-5.35,1.91-7.59,1.83-2.34,4.27-3.46,7.24-3.28,3.73.24,6.63,2.62,7.72,6.23.38,1.26.51,2.55.46,3.86-.03.67-.04.67-.69.67-4.21,0-8.42,0-12.63,0-.17,0-.34-.03-.54.05ZM183.51,66.35c-.21-1.31-.72-2.45-1.63-3.39-.99-1.02-2.21-1.51-3.62-1.52-1.34-.01-2.48.47-3.42,1.42-.95.96-1.47,2.14-1.68,3.49h10.35Z" style="fill:#fff;"/><path d="M80.79,33.54c-.34-.92-.64-1.79-.97-2.66-.08-.21,0-.27.16-.35,1.34-.63,2.73-1.12,4.2-1.33,1.56-.23,3.13-.25,4.68.08,2.92.62,4.81,2.73,5.12,5.69.06.55.08,1.09.08,1.64,0,3.31,0,6.62,0,9.93,0,.56.04.52-.5.52-.8,0-1.6,0-2.4,0-.4,0-.4,0-.41-.42,0-.42,0-.85-.01-1.27,0,0-.02-.02-.07-.04-.12.1-.25.2-.38.31-1.72,1.4-3.71,1.9-5.89,1.75-1.17-.09-2.28-.4-3.3-1-1.4-.81-2.36-1.98-2.65-3.59-.46-2.53.5-4.94,3.11-6.17,1.3-.61,2.68-.85,4.11-.87,1.57-.03,3.13.1,4.67.47.12.03.24.04.37.06.22-1.44-.61-2.98-1.93-3.62-.72-.35-1.49-.48-2.28-.51-1.71-.06-3.33.33-4.88,1.02-.26.11-.51.23-.82.37ZM86.44,38.51c-.25,0-.5-.01-.75,0-.9.06-1.77.24-2.56.69-1.77,1.02-1.81,3.66-.03,4.68.26.15.52.29.81.37,1.84.55,3.57.3,5.17-.75.87-.57,1.44-1.39,1.65-2.42.11-.53.05-1.06.05-1.6,0-.4,0-.41-.38-.5-1.3-.31-2.62-.51-3.96-.49Z" style="fill:#fff;"/><path d="M148.5,36.28c.23-1.32-.53-2.86-1.75-3.53-.76-.42-1.59-.56-2.45-.59-1.8-.07-3.48.37-5.1,1.11-.61.28-.61.27-.84-.35-.23-.65-.47-1.3-.7-1.94-.11-.32-.11-.32.18-.46,2.45-1.18,5.02-1.66,7.72-1.41.64.06,1.27.19,1.88.39,2.47.83,3.86,2.57,4.29,5.12.11.62.11,1.25.11,1.88,0,3.36,0,6.72,0,10.07,0,.02,0,.03,0,.05,0,.51,0,.46-.46.46-.83,0-1.66,0-2.5,0-.33,0-.34,0-.34-.34,0-.45,0-.91,0-1.37-.19-.01-.26.13-.36.22-1.73,1.44-3.74,1.97-5.96,1.81-1.08-.08-2.1-.35-3.06-.85-1.57-.83-2.66-2.07-2.93-3.86-.36-2.36.39-4.46,2.61-5.78.96-.57,2.01-.88,3.11-1.02,2.06-.27,4.1-.12,6.12.34.09.02.18.04.28.06.05,0,.09.01.14.02ZM144.23,38.51c-.25,0-.5-.01-.75,0-.85.06-1.68.21-2.43.63-.95.54-1.46,1.34-1.46,2.45,0,1.1.53,1.87,1.47,2.39.19.11.39.2.6.27,1.9.58,3.69.32,5.32-.81.91-.64,1.46-1.53,1.59-2.66.05-.41.03-.81.04-1.22,0-.54.04-.44-.43-.55-1.3-.32-2.61-.51-3.95-.49Z" style="fill:#fff;"/><path d="M121.72,31.2c.08-.11.15-.24.25-.34,1.26-1.26,2.8-1.87,4.56-1.95,1.09-.05,2.17.08,3.19.49,2.2.88,3.43,2.55,3.92,4.82.14.66.19,1.33.19,2.01,0,3.47,0,6.94,0,10.4,0,.05,0,.09,0,.14.02.22-.06.32-.29.3-.17-.01-.35,0-.52,0-.71,0-1.41,0-2.12,0-.51,0-.47.05-.47-.49,0-.97,0-1.95,0-2.92,0-2.35,0-4.71,0-7.06,0-.6-.09-1.19-.26-1.76-.48-1.59-1.71-2.59-3.36-2.73-.74-.06-1.48-.03-2.19.22-1.68.6-2.61,1.83-2.95,3.55-.09.43-.09.87-.09,1.31,0,3.12,0,6.25,0,9.37,0,.56.05.51-.5.51-.83,0-1.66,0-2.5,0-.4,0-.4,0-.4-.42,0-1.68,0-3.36,0-5.04,0-4.11-.01-8.22-.02-12.33,0-1.76-.02-3.51-.03-5.27,0-.09,0-.19,0-.28,0-.41,0-.41.42-.41.85,0,1.7,0,2.54,0,.54,0,.49-.01.49.48,0,2.28,0,4.55,0,6.83,0,.17,0,.34,0,.5.05.03.09.05.14.08Z" style="fill:#fff;"/><path d="M75.99,60.69c.21-.06.29-.21.4-.31,1.28-1.29,2.85-1.9,4.64-1.99,1.19-.06,2.35.11,3.45.59,1.95.85,3.11,2.37,3.65,4.4.2.76.28,1.54.28,2.33,0,3.55,0,7.09,0,10.64,0,.42,0,.42-.4.42-.89,0-1.79,0-2.68,0-.36,0-.37,0-.37-.36,0-.82,0-1.63,0-2.45,0-2.54,0-5.08,0-7.63,0-.76-.08-1.5-.35-2.22-.5-1.33-1.46-2.13-2.84-2.41-.94-.19-1.88-.15-2.78.19-1.72.66-2.62,1.96-2.91,3.74-.07.45-.09.9-.09,1.36,0,3.04,0,6.09,0,9.13,0,.11-.01.22,0,.33.03.25-.09.32-.32.31-.93-.01-1.85,0-2.78,0-.23,0-.36-.06-.32-.31.01-.08,0-.16,0-.24,0-5.63,0-11.27,0-16.9,0-.66-.08-.56.58-.57.82,0,1.63,0,2.45,0,.39,0,.39,0,.39.38,0,.51,0,1.02,0,1.56Z" style="fill:#fff;"/><path d="M152.13,74.83c-.14.15-.28.3-.42.44-1.15,1.11-2.54,1.71-4.13,1.84-1.15.09-2.29.01-3.39-.39-2.25-.82-3.58-2.45-4.14-4.75-.19-.78-.24-1.58-.24-2.38,0-3.45,0-6.9,0-10.36,0-.08,0-.16,0-.24-.01-.18.07-.25.25-.25.99,0,1.98,0,2.97,0,.19,0,.25.08.24.25,0,.11,0,.22,0,.33,0,3.23,0,6.46,0,9.7,0,.58.04,1.16.17,1.73.43,1.88,1.69,2.97,3.62,3.14,2.83.25,5.02-1.66,5.16-4.51.02-.33.01-.66.01-.99,0-3.01,0-6.03,0-9.04,0-.11.01-.22,0-.33-.03-.23.08-.29.3-.29.94,0,1.88,0,2.83,0,.02,0,.03,0,.05,0,.16-.01.23.06.22.22,0,.09,0,.19,0,.28,0,5.66,0,11.33,0,16.99,0,.59.06.52-.54.52-.85,0-1.7,0-2.54,0-.24,0-.33-.08-.32-.32.02-.53,0-1.06,0-1.59-.03,0-.06-.02-.09-.03Z" style="fill:#fff;"/><path d="M92.03,71.73c.21.05.34.2.49.31,1.34.97,2.79,1.69,4.44,1.93.86.12,1.72.15,2.56-.14.36-.12.69-.31.97-.56.75-.65,1.08-2.14-.19-2.94-.51-.32-1.06-.55-1.62-.74-1.11-.38-2.26-.64-3.37-1.04-.59-.21-1.16-.46-1.71-.77-2.3-1.31-2.78-3.47-2.11-5.6.54-1.72,1.8-2.75,3.46-3.33,1.37-.47,2.77-.49,4.18-.27,1.72.27,3.33.88,4.79,1.85.37.24.34.21.13.57-.4.67-.81,1.34-1.21,2.01-.19.31-.2.32-.53.1-1.12-.72-2.32-1.25-3.63-1.5-.82-.15-1.65-.2-2.47.04-.43.13-.82.32-1.13.64-.74.76-.65,1.82.19,2.45.48.36,1.03.59,1.6.78,1.06.35,2.12.68,3.17,1.03.87.29,1.7.66,2.45,1.18,1.01.7,1.72,1.63,1.9,2.86.32,2.22-.43,4.25-2.46,5.49-1.27.77-2.68,1.05-4.15,1.01-2.68-.08-5.09-.96-7.21-2.62-.32-.25-.32-.26-.09-.58.44-.63.89-1.26,1.33-1.88.07-.1.15-.19.23-.29Z" style="fill:#fff;"/><path d="M66.14,64.75c0,2.79,0,5.59,0,8.38,0,.06,0,.13,0,.19,0,.35,0,.36.37.36.97,0,1.95,0,2.92,0,.4,0,.41,0,.41.42,0,.78,0,1.57,0,2.35,0,.22-.05.32-.29.3-.27-.02-.53,0-.8,0-3.06,0-6.12,0-9.18,0-.11,0-.22,0-.33,0-.18.01-.25-.06-.25-.24,0-.85,0-1.69,0-2.54,0-.24.09-.29.31-.29.96,0,1.92,0,2.87,0,.59,0,.53.05.53-.53,0-5.6,0-11.2,0-16.8,0-.58.06-.52-.53-.52-.94,0-1.88,0-2.83,0-.34,0-.34,0-.34-.34,0-.8,0-1.6,0-2.4,0-.33,0-.33.34-.34,1.77,0,3.55,0,5.32,0,1.57,0,3.14,0,4.71,0,.49,0,.47-.04.47.45,0,.75,0,1.51,0,2.26,0,.35,0,.36-.37.36-.96,0-1.92-.02-2.87-.03-.46,0-.47,0-.47.46,0,2.84,0,5.68,0,8.52h.01Z" style="fill:#fff;"/><path d="M168.76,73.06c.11.09.08.19.08.28,0,.83,0,1.66,0,2.49,0,.24-.07.36-.29.47-1.13.58-2.33.81-3.6.75-.45-.02-.9-.07-1.35-.18-2.05-.5-3.2-1.95-3.5-3.96-.07-.47-.08-.94-.08-1.41,0-3,0-5.99,0-8.99,0-.11,0-.22,0-.33.02-.22-.07-.31-.3-.3-.56.01-1.13,0-1.7,0-.38,0-.38,0-.38-.39,0-.8,0-1.6,0-2.4,0-.35,0-.35.37-.35.55,0,1.1,0,1.65,0,.35,0,.35,0,.35-.37,0-1.4,0-2.79,0-4.19,0-.11.01-.22,0-.33-.03-.24.09-.29.3-.29.44.01.88,0,1.32,0,.46,0,.91,0,1.37,0,.51,0,.47-.03.47.49,0,1.16,0,2.32,0,3.48,0,.24,0,.47,0,.71,0,.55-.04.49.47.49,1.48,0,2.95,0,4.43,0,.56,0,.5-.07.51.5,0,.77,0,1.54,0,2.31,0,.33,0,.34-.34.34-1.49,0-2.98,0-4.47,0-.11,0-.22,0-.33,0-.17,0-.27.05-.26.24,0,.08,0,.16,0,.24,0,3.01,0,6.02,0,9.04,0,.17,0,.35.01.52.09,1.15.78,1.82,1.94,1.9.96.07,1.87-.09,2.74-.52.19-.09.37-.23.58-.24Z" style="fill:#fff;"/><path d="M137.83,73.05c0,1.01,0,1.97,0,2.92,0,.2-.13.26-.27.34-.69.36-1.42.59-2.19.7-.89.12-1.79.1-2.67-.1-2-.45-3.31-1.9-3.59-3.93-.07-.48-.09-.97-.09-1.45,0-3.03,0-6.06,0-9.09,0-.55.08-.53-.53-.53-.5,0-1.01,0-1.51,0-.23,0-.34-.04-.34-.31.02-.85.01-1.7,0-2.54,0-.22.06-.31.29-.3.58.01,1.16,0,1.74,0,.33,0,.34,0,.34-.34,0-1.22,0-2.45,0-3.67,0-.27,0-.53,0-.8,0-.35,0-.36.37-.36.91,0,1.82,0,2.73,0,.35,0,.36,0,.36.37,0,1.3,0,2.61,0,3.91,0,.17,0,.35,0,.52,0,.37,0,.37.35.37.09,0,.19,0,.28,0,1.46,0,2.92,0,4.38,0,.38,0,.39,0,.39.38,0,.8,0,1.6,0,2.4,0,.35,0,.36-.37.36-1.51,0-3.02,0-4.52,0-.54,0-.52-.04-.52.5,0,2.97,0,5.93,0,8.9,0,.2,0,.41.01.61.08,1.15.77,1.83,1.93,1.92.96.07,1.87-.08,2.74-.52.19-.1.37-.22.67-.26Z" style="fill:#fff;"/><path d="M117.32,73.07v.81c0,.64-.02,1.29,0,1.93.01.28-.1.42-.34.54-1.05.52-2.16.75-3.32.73-.56-.01-1.12-.07-1.68-.22-1.81-.49-2.9-1.67-3.32-3.48-.13-.55-.18-1.11-.18-1.68,0-3.09,0-6.18,0-9.27,0-.58.05-.52-.54-.52-.5,0-1,0-1.51,0-.23,0-.34-.06-.33-.32.01-.85.01-1.69,0-2.54,0-.23.08-.3.3-.29.58.01,1.16,0,1.74,0,.32,0,.33,0,.33-.35,0-1.41,0-2.82,0-4.24,0-.11,0-.22,0-.33-.02-.21.09-.28.28-.26.08,0,.16,0,.24,0,.82,0,1.63,0,2.45,0,.53,0,.49-.05.49.47,0,1.4,0,2.79,0,4.19,0,.57-.05.51.5.51,1.51,0,3.01,0,4.52,0,.39,0,.39,0,.4.38,0,.8,0,1.6,0,2.4,0,.35,0,.36-.37.36-1.51,0-3.01,0-4.52,0-.11,0-.22,0-.33,0-.14,0-.19.07-.19.21,0,.11,0,.22,0,.33,0,2.95,0,5.9,0,8.85,0,.3,0,.6.06.89.21,1.03.83,1.57,1.88,1.65.96.07,1.87-.08,2.74-.51.2-.1.39-.25.69-.26Z" style="fill:#fff;"/><path d="M33.66,50.04c0-2.18,0-4.36,0-6.54,0-.11,0-.22,0-.33,0-.15.05-.24.21-.23.09,0,.19,0,.28,0,2.28,0,4.55,0,6.83,0,.09,0,.19,0,.28,0,.16-.01.23.05.23.22,0,.09,0,.19,0,.28,0,4.38,0,8.76,0,13.14,0,.57.07.51-.49.51-2.28,0-4.55,0-6.83,0-.09,0-.19,0-.28,0-.15,0-.24-.05-.23-.22,0-.11,0-.22,0-.33,0-2.17,0-4.33,0-6.5Z" style="fill:#fff;"/><path d="M100.24,32.28c.36-.45.68-.87,1.07-1.24,1.5-1.44,3.29-2.15,5.38-2.06.38.02.39.02.39.4,0,.94,0,1.88,0,2.82,0,.37,0,.38-.39.38-.69-.01-1.38.05-2.05.24-2.02.59-3.26,1.97-3.95,3.9-.3.85-.47,1.73-.48,2.62-.02,2.37-.01,4.74-.02,7.11,0,.13,0,.25,0,.38,0,.18-.07.25-.25.25-.97,0-1.95,0-2.92,0-.15,0-.24-.05-.23-.21,0-.11,0-.22,0-.33,0-5.57,0-11.14,0-16.71,0-.05,0-.09,0-.14,0-.43-.02-.41.41-.41.85,0,1.69,0,2.54,0,.49,0,.44-.01.44.47,0,.71,0,1.41,0,2.12,0,.12-.03.25.06.42Z" style="fill:#fff;"/><path d="M109.46,33.13c0-3.11,0-6.21,0-9.32,0-.03,0-.06,0-.09,0-.41,0-.41.42-.41.88,0,1.76,0,2.64,0,.4,0,.4,0,.4.42,0,3.4,0,6.81,0,10.21,0,2.53,0,5.05,0,7.58,0,.33,0,.66.09.98.22.91.89,1.49,1.83,1.56.3.02.6,0,.89,0,.19-.01.29.02.29.24,0,.83,0,1.66,0,2.49,0,.17-.07.25-.23.29-.3.08-.61.15-.93.16-.74.02-1.47-.06-2.18-.29-1.77-.58-2.74-1.85-3.06-3.65-.08-.45-.1-.9-.1-1.36,0-2.93,0-5.87,0-8.8-.02,0-.03,0-.05,0Z" style="fill:#fff;"/><path d="M123.86,67.8v8.33c0,.09,0,.19,0,.28,0,.34,0,.35-.33.35-.93,0-1.85,0-2.78,0-.24,0-.35-.07-.32-.32,0-.08,0-.16,0-.24,0-5.63,0-11.27,0-16.9,0-.64-.07-.56.54-.56.82,0,1.63,0,2.45,0,.45,0,.43-.04.43.43,0,2.87,0,5.74,0,8.61Z" style="fill:#fff;"/><path d="M120.39,55.44c0-.52.01-1.03,0-1.55,0-.25.09-.32.33-.31.96.01,1.91,0,2.87,0,.22,0,.31.05.3.29,0,1.05,0,2.1,0,3.15,0,.22-.07.3-.3.3-.96,0-1.91,0-2.87,0-.32,0-.32-.01-.33-.36,0-.5,0-1,0-1.5Z" style="fill:#fff;"/></svg>