<?xml version="1.0" encoding="UTF-8"?><svg id="c" xmlns="http://www.w3.org/2000/svg" viewBox="0 0 200 100"><polygon points="145.09 54.68 145.09 47.67 139.98 54.68 145.09 54.68" style="fill:#fff;"/><path d="M122.81,52.85c-1.69.84-2.71,2.03-2.71,3.51,0,1.94,1.52,3.2,3.41,3.2s3.4-1.2,3.4-2.98c0-1.52-1.22-2.53-4.1-3.73Z" style="fill:#fff;"/><polygon points="41.55 34 48.08 34 44.83 26.23 41.55 34" style="fill:#fff;"/><path d="M126.51,48.58c0-1.64-1.39-2.68-3.13-2.68s-3.18.97-3.18,2.41c0,1.25.7,2.12,3.94,3.36,1.39-.79,2.38-1.79,2.38-3.09Z" style="fill:#fff;"/><path d="M170.21,24.88c-.54,0-.92,0-1.44.06v9.2c.69.09,1.12.06,1.78.06,3.2,0,5.3-1.23,5.3-4.69,0-2.68-1.21-4.63-5.64-4.63Z" style="fill:#fff;"/><path d="M0,10v58.72h192.43V10H0ZM126.75,30.82c0-1.97,1.91-3.68,4.54-3.68,1.67,0,3.57.59,4.46.99l.34,2.54h-.41c-.72-1.71-2.37-2.84-4.15-2.84s-2.89.8-2.89,2.13c0,3.36,8.23,4.14,8.23,8.5,0,2.32-2.2,4.27-5.21,4.27-1.43,0-3.24-.43-4.58-.8l-.52-3.53h.45c.55,2.33,2.4,3.56,4.42,3.56,1.73,0,3.56-.8,3.56-2.67,0-3.41-8.23-4.33-8.23-8.48ZM111.33,41.73c2.29-.06,2.45-.37,2.45-2.12v-12.48c.01-1.75-.15-2.06-2.44-2.12v-.54h13.61s.22,3.56.22,3.56h-.52c-.37-2.36-1.09-2.53-2.11-2.53h-6.4v6.97h5.01c1.03,0,1.52-.13,1.66-1.79h.54v4.8h-.54c-.23-2.03-.77-1.91-1.95-1.91h-4.72v6.1c0,1.32.61,1.57,1.66,1.57h4.29c1.97,0,2.62-.42,3.31-2.83h.52l-.45,3.86h-14.16v-.55ZM73.52,25.01c-2.15,0-2.25.37-2.25,1.49v15.97h-.74l-13.3-15.51v12.28c0,2.06.1,2.49,2.53,2.49v.54h-11.65v-.54h.39c1.63,0,2.23-.17,2.23-.97,0-.46-.2-.89-.31-1.17l-1.88-4.48h-7.46l-1.59,3.76c-.2.55-.57,1.4-.57,1.81,0,.77.74,1.06,2.32,1.06h.1v.54h-11.05v-.54c1.34,0,2.66-.37,2.55-1.89l-.83-12.82h-.06l-6.53,15.25h-.66l-6.72-15.25h-.06l-.77,12.88c-.08,1.46,1,1.77,2.29,1.83v.54h-5.96v-.54c2.09,0,2.35-.46,2.49-3.06l.76-12.16c0-1.12-.34-1.49-2.49-1.49v-.54h5.02l6.33,14.45,6.29-14.46h4.83s0,.54,0,.54c-2.15,0-2.49.37-2.49,1.49l.87,12.59c.12,1.92.39,2.58,1.13,2.58.59,0,.79-.39,1.89-2.78l6.15-14.43h2.03l6.66,15.45c.42.9.77,1.75,1.54,1.75.96,0,1.38-.77,1.38-1.86v-14.08c-.66-.46-1.19-.69-2.19-.72v-.54h4.28l11.96,14.05v-11.39c0-1.75-.16-2.06-2.45-2.12v-.54h5.99v.54ZM89.43,40.97c-1.71.81-3.08,1.76-6.46,1.76-5.81,0-9.28-3.84-9.28-9.13s3.58-9.56,9.57-9.56c3,0,5.21,1.01,6.55,1.58l.22,3.54h-.55c-.94-2.66-2.93-4.41-6.05-4.41-4.78,0-7.16,3.7-7.16,8.51,0,5.18,3.13,8.68,7.48,8.68,1.3,0,4.56-.87,6.51-4.33h.54l-1.37,3.36ZM95.77,33.57v6.03h0c0,1.75.16,2.06,2.45,2.12v.54h-7.08v-.54c2.15,0,2.25-.37,2.25-1.49h0v-13.73h0c0-1.12-.1-1.49-2.25-1.49v-.55h7.08v.55c-2.29.06-2.45.37-2.45,2.12h0s0,5.34,0,5.34h10.51v-5.59c-.01-1.53-.27-1.82-2.44-1.87v-.54h7.08v.54c-2.14,0-2.25.37-2.25,1.49h0v13.73h.01c0,1.12.1,1.49,2.25,1.49v.54h-7.08v-.54c2.16-.05,2.42-.34,2.45-1.84v-6.31h-10.51ZM117.85,59.91h-6.3v-.55c2.15,0,2.25-.37,2.25-1.48h0v-10.59c-.77.64-2.1,1.48-2.99,1.87l-.19-.32c1.39-.89,3.37-2.6,3.94-3.37h.84v12.1c.03,1.46.31,1.74,2.45,1.79v.55ZM123.48,60.14c-2.69,0-4.82-1.66-4.82-3.73,0-1.6,1.24-2.89,3.66-3.78-2.34-.96-3.46-2.07-3.46-3.62,0-2,2.07-3.69,4.55-3.69s4.47,1.45,4.47,3.28c0,1.45-1.09,2.57-3.28,3.37,2.61,1.07,3.77,2.23,3.77,3.98,0,2.37-2.14,4.19-4.9,4.19ZM138.33,58.51l-.19,1.4h0s0,0,0,0h-8.99v-.65c.58-.57,7.19-5.56,7.19-9.62,0-1.7-1.29-3.03-2.99-3.03-1.6,0-3.03,1.22-3.55,3.05h-.36c.27-2.58,2.12-4.34,4.57-4.34s4.11,1.72,4.11,4c0,3.44-4.36,6.69-7.19,9.18h5.37c1.13-.02,1.53-.39,1.84-1.76h.43l-.24,1.76h0ZM148.56,55.82h-1.87v4.09h-1.6v-4.09h-6.28v-.53l7.21-9.83h.67v9.22h1.87v1.14ZM147.59,28.34h-3.26v11.73c0,1.27.42,1.71,1.85,1.71h.54v.49h-6.82v-.49h.54c1.43,0,1.85-.45,1.85-1.71v-11.73h-3.26c-.94,0-1.36.26-1.71,2.33h-.42l.34-3.23h12.15l.35,3.23h-.42c-.35-2.07-.78-2.33-1.72-2.33ZM162.95,42.27h-14.16v-.55c2.29-.06,2.45-.37,2.45-2.12v-12.48c0-1.75-.15-2.06-2.44-2.12v-.54h13.61s.23,3.56.23,3.56h-.52c-.37-2.36-1.09-2.53-2.11-2.53h-6.39v6.97h5.01c1.03,0,1.52-.13,1.66-1.79h.54v4.8h-.54c-.23-2.03-.77-1.91-1.95-1.91h-4.72v6.1c0,1.32.6,1.57,1.67,1.57h4.29c1.97,0,2.62-.42,3.31-2.83h.52l-.45,3.86ZM185.34,42.27c-5.04.23-5.65-.82-8.27-3.32-1.02-.97-2.73-2.9-4.92-4.15-.68.03-1.14.05-1.9.05-.63,0-1.01-.03-1.47-.06v4.77c0,1.73.69,2.16,2.3,2.16h.66v.55h-8.14v-.55h.49c1.7,0,2.3-.46,2.3-2.39v-12.02c0-1.79-.49-2.3-2.16-2.3h-.63v-.55c.69,0,2.45-.12,3.63-.17,1.18-.06,1.75-.09,3.63-.09,5.32,0,7.71,2.19,7.71,5.12,0,2.16-1.47,3.97-3.83,4.66,1.07.84,1.93,1.43,3.28,2.78l2.27,2.18c1.7,1.7,2.84,2.63,5.05,2.77v.55Z" style="fill:#fff;"/><path d="M7.61,76.38v9.6h-1.19v-9.6h-3.17v-1.01h7.56v1.01h-3.19Z" style="fill:#fff;"/><path d="M17.24,85.98v-5.06c0-1.23-.33-1.93-1.46-1.93-1.4,0-2.39,1.38-2.39,3.24v3.76h-1.18v-11.47h1.18v3.82c0,.52-.03,1.16-.13,1.56l.03.02c.46-1.15,1.43-1.88,2.78-1.88,1.79,0,2.34,1.13,2.34,2.51v5.45h-1.18Z" style="fill:#fff;"/><path d="M26.66,81.83h-5.22c-.08,2.34.85,3.31,2.59,3.31.82,0,1.68-.2,2.26-.5l.11,1.01c-.72.3-1.6.47-2.58.47-2.36,0-3.61-1.27-3.61-4.01,0-2.34,1.26-4.09,3.43-4.09s3.05,1.49,3.05,3.22c0,.14,0,.35-.03.58ZM23.58,78.92c-1.1,0-1.89.8-2.07,2.03h3.96c.03-1.21-.69-2.03-1.89-2.03Z" style="fill:#fff;"/><path d="M35.6,86.12c-3.28,0-3.91-1.84-3.91-3.66v-7.09h1.21v6.98c0,1.52.5,2.78,2.8,2.78,1.95,0,2.91-.82,2.91-3.08v-6.68h1.18v6.58c0,2.72-1.43,4.16-4.18,4.16Z" style="fill:#fff;"/><path d="M47.12,85.98v-5.06c0-1.23-.33-1.93-1.46-1.93-1.4,0-2.39,1.38-2.39,3.24v3.76h-1.18v-7.81h1.16c0,.5-.05,1.26-.13,1.73l.03.02c.44-1.13,1.43-1.9,2.8-1.9,1.79,0,2.34,1.13,2.34,2.51v5.45h-1.18Z" style="fill:#fff;"/><path d="M51.13,76.75c-.46,0-.82-.34-.82-.8s.36-.8.82-.8.82.36.82.8-.38.8-.82.8ZM50.53,85.98v-7.81h1.18v7.81h-1.18Z" style="fill:#fff;"/><path d="M57.16,85.98h-1.23l-2.95-7.81h1.34l1.82,5.09c.16.49.3.93.44,1.38h.02c.13-.42.27-.9.42-1.32l1.87-5.15h1.29l-3.02,7.81Z" style="fill:#fff;"/><path d="M66.91,81.83h-5.22c-.08,2.34.85,3.31,2.59,3.31.82,0,1.68-.2,2.26-.5l.11,1.01c-.72.3-1.6.47-2.58.47-2.36,0-3.61-1.27-3.61-4.01,0-2.34,1.26-4.09,3.42-4.09s3.05,1.49,3.05,3.22c0,.14,0,.35-.03.58ZM63.83,78.92c-1.1,0-1.89.8-2.07,2.03h3.96c.03-1.21-.69-2.03-1.88-2.03Z" style="fill:#fff;"/><path d="M72.55,79.19c-1.73-.28-2.55,1.04-2.55,3.66v3.13h-1.18v-7.81h1.16c0,.52-.06,1.29-.17,1.96l.02.02c.31-1.15,1.13-2.31,2.77-2.12l-.05,1.16Z" style="fill:#fff;"/><path d="M75.26,86.12c-.58,0-1.18-.06-1.65-.16l.03-1.08c.5.14,1.13.25,1.74.25,1.13,0,1.92-.5,1.92-1.32,0-1.88-3.8-.71-3.8-3.49,0-1.3,1.07-2.29,3.05-2.29.49,0,1.04.08,1.52.17l-.03,1.02c-.52-.17-1.08-.27-1.62-.27-1.15,0-1.71.47-1.71,1.24,0,1.87,3.82.8,3.82,3.46,0,1.38-1.23,2.47-3.27,2.47Z" style="fill:#fff;"/><path d="M81.74,75.95c0-.44-.38-.8-.82-.8s-.82.36-.82.8.36.8.82.8.82-.34.82-.8ZM81.51,85.98v-7.81h-1.18v7.81h1.18Z" style="fill:#fff;"/><path d="M86.38,86.1c-1.57,0-2.03-.69-2.03-2.31v-4.7h-1.7v-.93h1.7v-2.59l1.18-.33v2.92h2.29v.93h-2.29v4.21c0,1.4.25,1.76,1.18,1.76.39,0,.8-.05,1.12-.14v1.02c-.41.09-.96.16-1.45.16Z" style="fill:#fff;"/><path d="M92.1,86.79c-.91,2.4-1.6,3.21-3.32,3.21-.28,0-.68-.03-.99-.08l.13-1.08c.31.11.63.16.97.16.94,0,1.41-.44,2.03-2.09l.36-.93-2.99-7.81h1.35l1.63,4.48c.25.71.42,1.27.6,1.85h.02c.14-.5.47-1.48.79-2.37l1.4-3.96h1.29l-3.27,8.63Z" style="fill:#fff;"/><path d="M102.42,86.12c-2.09,0-3.44-1.27-3.44-4.01,0-2.23,1.38-4.09,3.72-4.09,1.9,0,3.46,1.05,3.46,3.91,0,2.32-1.43,4.18-3.74,4.18ZM102.59,79c-1.23,0-2.39.93-2.39,3.02s.86,3.09,2.39,3.09c1.23,0,2.34-.94,2.34-3.09,0-1.89-.79-3.02-2.34-3.02Z" style="fill:#fff;"/><path d="M112.49,75.56c-.39-.13-.82-.17-1.23-.17-1.19,0-1.73.69-1.73,2.2v.58h2.31v.93h-2.31v6.88h-1.18v-6.88h-1.7v-.93h1.7v-.55c0-2.18,1.08-3.19,2.95-3.19.44,0,.86.05,1.29.14l-.11.99Z" style="fill:#fff;"/><path d="M126.69,85.98l-.94-6.54c-.19-1.29-.27-2.07-.33-2.65h-.03c-.11.44-.27,1.05-.52,1.78l-2.48,7.42h-1.37l-2.36-6.94c-.27-.77-.55-1.6-.68-2.25h-.02c-.05.85-.16,1.7-.28,2.78l-.77,6.41h-1.24l1.51-10.6h1.52l2.42,7.16c.27.77.49,1.48.6,2.06h.03c.16-.72.31-1.19.58-1.95l2.48-7.27h1.57l1.57,10.6h-1.27Z" style="fill:#fff;"/><path d="M134.11,85.98c0-.6,0-1.19.08-1.65h-.03c-.38.99-1.38,1.79-2.72,1.79-1.24,0-2.14-.66-2.14-1.9,0-1.63,1.7-2.77,4.74-2.77v-.64c0-1.18-.42-1.84-1.78-1.84-.75,0-1.7.24-2.39.68l-.11-1.04c.74-.33,1.65-.58,2.7-.58,2.15,0,2.77,1.07,2.77,2.55v3.06c0,.77,0,1.65.03,2.34h-1.16ZM134.05,82.32c-2.94,0-3.57.93-3.57,1.68,0,.71.5,1.16,1.27,1.16,1.38,0,2.29-1.37,2.29-2.72v-.13Z" style="fill:#fff;"/><path d="M142.51,85.98v-5.06c0-1.23-.33-1.93-1.46-1.93-1.4,0-2.39,1.38-2.39,3.24v3.76h-1.18v-7.81h1.16c0,.5-.05,1.26-.13,1.73l.03.02c.44-1.13,1.43-1.9,2.8-1.9,1.79,0,2.34,1.13,2.34,2.51v5.45h-1.18Z" style="fill:#fff;"/><path d="M148.88,86.07c-1.74,0-3.38-.77-3.38-3.72,0-2.56,1.29-4.29,3.83-4.29.64,0,1.29.09,1.84.27l-.13,1.04c-.52-.2-1.13-.35-1.79-.35-1.68,0-2.51,1.24-2.51,3.13,0,1.6.5,2.92,2.39,2.92.69,0,1.45-.17,1.96-.44l.11,1.02c-.52.2-1.37.42-2.32.42Z" style="fill:#fff;"/><path d="M157.86,85.98v-5.06c0-1.23-.33-1.93-1.46-1.93-1.4,0-2.39,1.38-2.39,3.24v3.76h-1.18v-11.47h1.18v3.82c0,.52-.03,1.16-.13,1.56l.03.02c.46-1.15,1.43-1.88,2.78-1.88,1.79,0,2.34,1.13,2.34,2.51v5.45h-1.18Z" style="fill:#fff;"/><path d="M167.29,81.83h-5.22c-.08,2.34.85,3.31,2.59,3.31.82,0,1.68-.2,2.26-.5l.11,1.01c-.72.3-1.6.47-2.58.47-2.36,0-3.61-1.27-3.61-4.01,0-2.34,1.26-4.09,3.42-4.09s3.05,1.49,3.05,3.22c0,.14,0,.35-.03.58ZM164.21,78.92c-1.1,0-1.89.8-2.07,2.03h3.96c.03-1.21-.69-2.03-1.88-2.03Z" style="fill:#fff;"/><path d="M170.39,86.12c-.58,0-1.18-.06-1.65-.16l.03-1.08c.5.14,1.13.25,1.74.25,1.13,0,1.92-.5,1.92-1.32,0-1.88-3.8-.71-3.8-3.49,0-1.3,1.07-2.29,3.05-2.29.49,0,1.04.08,1.52.17l-.03,1.02c-.52-.17-1.08-.27-1.62-.27-1.15,0-1.71.47-1.71,1.24,0,1.87,3.82.8,3.82,3.46,0,1.38-1.23,2.47-3.27,2.47Z" style="fill:#fff;"/><path d="M177.94,86.1c-1.57,0-2.03-.69-2.03-2.31v-4.7h-1.7v-.93h1.7v-2.59l1.18-.33v2.92h2.29v.93h-2.29v4.21c0,1.4.25,1.76,1.18,1.76.39,0,.8-.05,1.12-.14v1.02c-.41.09-.96.16-1.45.16Z" style="fill:#fff;"/><path d="M186.82,81.83h-5.22c-.08,2.34.85,3.31,2.59,3.31.82,0,1.68-.2,2.26-.5l.11,1.01c-.72.3-1.6.47-2.58.47-2.36,0-3.61-1.27-3.61-4.01,0-2.34,1.26-4.09,3.43-4.09s3.05,1.49,3.05,3.22c0,.14,0,.35-.03.58ZM183.74,78.92c-1.1,0-1.89.8-2.07,2.03h3.96c.03-1.21-.69-2.03-1.88-2.03Z" style="fill:#fff;"/><path d="M192.38,79.19c-1.73-.28-2.55,1.04-2.55,3.66v3.13h-1.18v-7.81h1.16c0,.52-.06,1.29-.17,1.96l.02.02c.31-1.15,1.13-2.31,2.77-2.12l-.05,1.16Z" style="fill:#fff;"/></svg>