<?xml version="1.0" encoding="UTF-8"?><svg id="c" xmlns="http://www.w3.org/2000/svg" xmlns:xlink="http://www.w3.org/1999/xlink" viewBox="0 0 200 100"><defs><mask id="d" x="44.47" y="20.69" width="45.95" height="66.81" maskUnits="userSpaceOnUse"><g id="e"><path d="M48.09,78.97c-2.46-4.14-3.05-9.72-.7-15.69,4.25-8.66,9.61-11.57,15.14-14.56,7.14-3.87,14.53-7.88,20.11-24.62,5.71,9.43,10.01,28.03,1.69,43.47-6.01,11.15-13.85,16.59-19.75,18.02-4.93,1.19-9.49.09-12.88-2.52l23.81-26.83-27.42,22.74Z" style="fill:#fff; fill-rule:evenodd;"/></g></mask><mask id="f" x="0" y="20.69" width="45.95" height="66.81" maskUnits="userSpaceOnUse"><g id="g"><path d="M42.32,78.97c2.46-4.14,3.05-9.72.7-15.69-4.25-8.66-9.61-11.57-15.14-14.56-7.14-3.87-14.53-7.88-20.11-24.62-5.71,9.43-10.01,28.03-1.69,43.47,6.01,11.15,13.85,16.59,19.75,18.02,4.93,1.19,9.49.09,12.88-2.52l-23.81-26.83,27.42,22.74Z" style="fill:#fff; fill-rule:evenodd;"/></g></mask></defs><path d="M48.09,78.97c-2.46-4.14-3.05-9.72-.7-15.69,4.25-8.66,9.61-11.57,15.14-14.56,7.14-3.87,14.53-7.88,20.11-24.62,5.71,9.43,10.01,28.03,1.69,43.47-6.01,11.15-13.85,16.59-19.75,18.02-4.93,1.19-9.49.09-12.88-2.52l23.81-26.83-27.42,22.74Z" style="fill:#fff; fill-rule:evenodd;"/><g style="mask:url(#d);"><path d="M47.39,63.28l-1.34-.53.02-.05.03-.05,1.29.63ZM48.09,78.97l.92,1.11-1.3,1.08-.86-1.45,1.24-.73ZM62.53,48.72l.69,1.27-.69-1.27ZM82.64,24.1l-1.37-.46.99-2.96,1.61,2.67-1.23.75ZM84.34,67.57l1.27.68h0s-1.27-.68-1.27-.68ZM64.58,85.58l.34,1.4-.34-1.4ZM51.71,83.06l-.88,1.14-1.22-.94,1.02-1.15,1.08.96ZM75.51,56.23l-.92-1.11,2,2.06-1.08-.96ZM48.73,63.81c-2.21,5.6-1.61,10.7.6,14.42l-2.48,1.47c-2.7-4.56-3.3-10.6-.8-16.95l2.68,1.06ZM63.22,49.99c-5.46,2.96-10.49,5.69-14.53,13.93l-2.58-1.27c4.46-9.08,10.16-12.17,15.74-15.19l1.37,2.53ZM84.01,24.55c-2.84,8.52-6.18,13.91-9.8,17.68-3.61,3.76-7.43,5.82-10.99,7.75l-1.37-2.53c3.57-1.94,7.02-3.82,10.29-7.21,3.26-3.39,6.41-8.38,9.15-16.6l2.73.91ZM83.07,66.88c8.01-14.86,3.87-32.9-1.66-42.04l2.46-1.49c5.88,9.73,10.36,28.88,1.73,44.9l-2.54-1.37ZM64.25,84.18c5.41-1.31,12.95-6.41,18.82-17.3l2.53,1.37c-6.16,11.42-14.29,17.19-20.68,18.73l-.67-2.8ZM52.59,81.92c3.03,2.34,7.14,3.35,11.66,2.26l.67,2.8c-5.34,1.29-10.36.1-14.09-2.78l1.76-2.28ZM50.63,82.1l23.81-26.83,2.15,1.91-23.81,26.83-2.15-1.91ZM76.43,57.34l-27.42,22.74-1.84-2.22,27.42-22.74,1.84,2.22Z" style="fill:rgba(255,255,255,.47);"/></g><path d="M42.32,78.97c2.46-4.14,3.05-9.72.7-15.69-4.25-8.66-9.61-11.57-15.14-14.56-7.14-3.87-14.53-7.88-20.11-24.62-5.71,9.43-10.01,28.03-1.69,43.47,6.01,11.15,13.85,16.59,19.75,18.02,4.93,1.19,9.49.09,12.88-2.52l-23.81-26.83,27.42,22.74Z" style="fill:#fff; fill-rule:evenodd;"/><g style="mask:url(#f);"><path d="M43.02,63.28l1.34-.53-.02-.05-.03-.05-1.29.63ZM42.32,78.97l-.92,1.11,1.3,1.08.86-1.45-1.24-.73ZM27.89,48.72l-.69,1.27.69-1.27ZM7.77,24.1l1.37-.46-.99-2.96-1.61,2.67,1.23.75ZM6.08,67.57l-1.27.68h0s1.27-.68,1.27-.68ZM25.84,85.58l-.34,1.4.34-1.4ZM38.71,83.06l.88,1.14,1.22-.94-1.02-1.15-1.08.96ZM14.9,56.23l.92-1.11-2,2.06,1.08-.96ZM41.68,63.81c2.21,5.6,1.61,10.7-.6,14.42l2.48,1.47c2.7-4.56,3.3-10.6.8-16.95l-2.68,1.06ZM27.2,49.99c5.46,2.96,10.49,5.69,14.53,13.93l2.58-1.27c-4.46-9.08-10.16-12.17-15.74-15.19l-1.37,2.53ZM6.41,24.55c2.84,8.52,6.18,13.91,9.8,17.68,3.61,3.76,7.43,5.82,10.99,7.75l1.37-2.53c-3.57-1.94-7.02-3.82-10.29-7.21-3.26-3.39-6.41-8.38-9.15-16.6l-2.73.91ZM7.35,66.89c-8.01-14.86-3.87-32.9,1.66-42.04l-2.46-1.49c-5.88,9.73-10.36,28.88-1.73,44.9l2.54-1.37ZM26.17,84.18c-5.41-1.31-12.95-6.41-18.82-17.3l-2.53,1.37c6.16,11.42,14.29,17.19,20.68,18.73l.67-2.8ZM37.83,81.92c-3.03,2.34-7.14,3.35-11.66,2.26l-.67,2.8c5.34,1.29,10.36.1,14.09-2.78l-1.76-2.28ZM39.79,82.1l-23.81-26.83-2.15,1.91,23.81,26.83,2.15-1.91ZM13.99,57.34l27.42,22.74,1.84-2.22-27.42-22.74-1.84,2.22Z" style="fill:rgba(255,255,255,.47);"/></g><path d="M27.12,34.83c-1.55,0-2.96-.3-4.23-.89-1.25-.6-2.34-1.4-3.25-2.42-.89-1.03-1.59-2.19-2.09-3.46-.5-1.29-.75-2.61-.75-3.97s.26-2.75.78-4.03c.54-1.29,1.26-2.43,2.18-3.43.93-1.01,2.03-1.81,3.28-2.39,1.27-.6,2.66-.89,4.17-.89s2.92.31,4.17.92c1.27.62,2.36,1.44,3.25,2.47.89,1.03,1.59,2.19,2.09,3.46.5,1.27.75,2.58.75,3.94s-.26,2.73-.78,4.03c-.52,1.27-1.24,2.42-2.18,3.43-.91.99-2.01,1.78-3.28,2.36-1.25.58-2.62.86-4.11.86ZM20.98,24.1c0,.91.14,1.8.42,2.65.28.85.68,1.62,1.19,2.3.54.66,1.18,1.18,1.94,1.58.78.38,1.65.57,2.62.57s1.88-.2,2.65-.6c.78-.42,1.42-.96,1.94-1.64.52-.7.9-1.46,1.16-2.3.28-.85.42-1.71.42-2.56,0-.91-.15-1.79-.45-2.62-.28-.85-.69-1.61-1.22-2.27-.52-.68-1.16-1.2-1.94-1.58-.76-.4-1.61-.6-2.56-.6-1.01,0-1.91.21-2.68.63-.76.4-1.39.93-1.91,1.61-.52.68-.91,1.43-1.19,2.27-.26.83-.39,1.69-.39,2.56ZM40.63,34.68V13.51h4.11v17.56h10.79v3.61h-14.91ZM70.65,19.06c-.14-.14-.4-.33-.78-.57-.36-.24-.81-.47-1.34-.69-.52-.22-1.08-.41-1.7-.57-.62-.18-1.24-.27-1.88-.27-1.11,0-1.96.21-2.53.63-.56.42-.83,1-.83,1.76,0,.58.18,1.03.54,1.37.36.34.89.63,1.61.86.72.24,1.61.5,2.68.78,1.39.34,2.59.76,3.61,1.25,1.03.48,1.82,1.11,2.36,1.91.56.78.83,1.81.83,3.1,0,1.13-.21,2.11-.63,2.92-.42.79-.99,1.44-1.73,1.94-.74.5-1.57.86-2.5,1.1-.93.22-1.93.33-2.98.33s-2.11-.11-3.16-.33c-1.05-.22-2.07-.53-3.04-.92-.97-.42-1.87-.91-2.68-1.49l1.82-3.55c.18.18.5.42.95.72.46.28,1.01.57,1.67.86.66.28,1.37.52,2.15.72.78.2,1.56.3,2.36.3,1.11,0,1.96-.19,2.53-.57.58-.38.86-.91.86-1.61,0-.64-.23-1.13-.69-1.49-.46-.36-1.09-.67-1.91-.92-.82-.28-1.78-.58-2.89-.89-1.33-.38-2.45-.79-3.34-1.25-.89-.48-1.56-1.07-2-1.79-.44-.72-.66-1.61-.66-2.68,0-1.45.34-2.66,1.01-3.64.7-.99,1.63-1.74,2.8-2.24,1.17-.52,2.47-.78,3.91-.78.99,0,1.93.11,2.8.33.89.22,1.73.51,2.5.86.78.36,1.47.75,2.09,1.16l-1.82,3.34Z" style="fill:#fff;"/><path d="M22.89,33.94l-.37.78h0s.37-.78.37-.78ZM19.64,31.52l-.65.57h0s0,.01,0,.01l.64-.58ZM17.55,28.06l-.81.31h0s.8-.31.8-.31ZM17.58,20.07l-.8-.33h0s0,0,0,0l.8.33ZM19.76,16.64l-.64-.59h0s.64.59.64.59ZM23.04,14.26l.36.78h0s0,0,0,0l-.37-.78ZM31.39,14.29l-.38.78h0s0,0,0,0l.38-.78ZM34.64,16.76l-.65.57h0l.65-.57ZM36.73,20.22l.8-.31-.8.31ZM36.7,28.18l.8.33h0s-.8-.33-.8-.33ZM34.52,31.61l-.64-.59h0s.64.59.64.59ZM31.24,33.97l-.36-.79h0s.36.79.36.79ZM21.4,26.75l-.82.27h0l.82-.27ZM22.59,29.05l-.69.52h0s0,.02,0,.02l.67-.55ZM24.53,30.63l-.4.76h.01s.01.01.01.01l.38-.78ZM29.81,30.6l.39.77h0s0,0,0,0l-.41-.76ZM31.75,28.96l.69.52h0s0,0,0,0l-.69-.52ZM32.91,26.66l-.82-.27h0s0,.01,0,.01l.83.26ZM32.88,21.47l-.82.27h0s0,.02,0,.02l.81-.29ZM31.66,19.21l-.69.52h0s0,.02,0,.02l.67-.55ZM29.72,17.63l-.4.76h.01s.01.01.01.01l.38-.78ZM24.47,17.66l.4.76h0s0,0,0,0l-.41-.76ZM22.56,19.27l-.69-.52h0l.69.52ZM21.37,21.53l-.82-.27h0s0,.02,0,.02l.83.26ZM27.12,33.97c-1.44,0-2.72-.28-3.87-.81l-.73,1.56c1.4.66,2.94.98,4.6.98v-1.73ZM23.26,33.16c-1.15-.55-2.14-1.29-2.98-2.21l-1.28,1.16c.99,1.1,2.17,1.97,3.52,2.62l.74-1.56ZM20.29,30.96c-.83-.96-1.47-2.03-1.94-3.21l-1.61.63c.53,1.36,1.28,2.6,2.24,3.71l1.31-1.13ZM18.36,27.75c-.46-1.2-.69-2.41-.69-3.66h-1.73c0,1.46.27,2.89.8,4.28l1.61-.62ZM17.67,24.1c0-1.3.24-2.53.71-3.7l-1.6-.65c-.56,1.38-.84,2.83-.84,4.35h1.73ZM18.38,20.4c.5-1.2,1.17-2.26,2.01-3.18l-1.27-1.17c-.98,1.07-1.76,2.3-2.34,3.68l1.6.66ZM20.39,17.23c.86-.93,1.86-1.66,3.01-2.19l-.72-1.57c-1.36.62-2.54,1.49-3.55,2.58l1.27,1.17ZM23.41,15.04c1.15-.54,2.41-.81,3.81-.81v-1.73c-1.63,0-3.15.32-4.54.98l.73,1.56ZM27.21,14.23c1.41,0,2.67.28,3.79.84l.76-1.55c-1.38-.68-2.91-1.01-4.56-1.01v1.73ZM31.01,15.07c1.17.57,2.16,1.32,2.97,2.26l1.31-1.13c-.97-1.13-2.15-2.02-3.53-2.69l-.75,1.55ZM33.99,17.33c.83.96,1.47,2.03,1.94,3.21l1.61-.63c-.53-1.36-1.28-2.6-2.24-3.71l-1.31,1.13ZM35.92,20.54c.46,1.17.69,2.38.69,3.62h1.73c0-1.46-.27-2.88-.8-4.25l-1.61.63ZM36.61,24.16c0,1.28-.24,2.51-.71,3.7l1.6.64c.56-1.39.84-2.84.84-4.35h-1.73ZM35.9,27.86c-.48,1.18-1.15,2.23-2.01,3.17l1.27,1.17c1-1.09,1.79-2.32,2.34-3.69l-1.6-.65ZM33.88,31.03c-.83.91-1.83,1.62-3,2.15l.71,1.57c1.37-.62,2.56-1.48,3.56-2.56l-1.27-1.17ZM30.88,33.18c-1.13.52-2.38.79-3.75.79v1.73c1.61,0,3.1-.31,4.48-.94l-.72-1.57ZM20.12,24.1c0,1,.15,1.98.46,2.92l1.64-.53c-.25-.77-.37-1.56-.37-2.39h-1.73ZM20.58,27.02c.31.94.75,1.8,1.33,2.55l1.37-1.05c-.45-.59-.81-1.27-1.06-2.04l-1.64.53ZM21.92,29.59c.61.75,1.35,1.35,2.2,1.8l.8-1.53c-.65-.34-1.21-.8-1.67-1.36l-1.34,1.09ZM24.15,31.4c.91.44,1.91.65,3,.65v-1.73c-.86,0-1.6-.17-2.25-.48l-.76,1.55ZM27.15,32.06c1.11,0,2.13-.22,3.05-.69l-.79-1.54c-.64.33-1.38.5-2.26.5v1.73ZM30.22,31.36c.88-.47,1.62-1.1,2.21-1.88l-1.37-1.05c-.44.57-.99,1.04-1.66,1.4l.82,1.52ZM32.44,29.47c.58-.78,1.01-1.63,1.29-2.56l-1.65-.51c-.23.74-.57,1.42-1.03,2.04l1.39,1.03ZM33.73,26.93c.3-.94.46-1.88.46-2.83h-1.73c0,.76-.12,1.52-.38,2.3l1.64.53ZM34.19,24.1c0-1.01-.16-1.98-.5-2.91l-1.63.58c.26.74.4,1.51.4,2.33h1.73ZM33.7,21.21c-.31-.95-.77-1.8-1.38-2.55l-1.34,1.09c.46.57.82,1.23,1.07,1.99l1.64-.53ZM32.34,18.68c-.6-.78-1.35-1.4-2.25-1.83l-.76,1.55c.66.32,1.2.76,1.63,1.33l1.37-1.05ZM30.12,16.86c-.89-.47-1.89-.7-2.97-.7v1.73c.83,0,1.54.17,2.16.5l.8-1.53ZM27.15,16.17c-1.13,0-2.17.23-3.09.73l.82,1.52c.63-.34,1.38-.52,2.27-.52v-1.73ZM24.07,16.89c-.87.46-1.6,1.07-2.19,1.85l1.37,1.05c.44-.58.98-1.03,1.62-1.37l-.8-1.53ZM21.88,18.74c-.58.75-1.02,1.6-1.33,2.52l1.64.55c.25-.75.6-1.42,1.06-2.01l-1.37-1.05ZM20.54,21.28c-.28.92-.43,1.86-.43,2.82h1.73c0-.79.12-1.56.35-2.31l-1.65-.51ZM40.63,34.68h-.86v.86h.86v-.86ZM40.63,13.51v-.86h-.86v.86h.86ZM44.74,13.51h.86v-.86h-.86v.86ZM44.74,31.08h-.86v.86h.86v-.86ZM55.54,31.08h.86v-.86h-.86v.86ZM55.54,34.68v.86h.86v-.86h-.86ZM41.49,34.68V13.51h-1.73v21.17h1.73ZM40.63,14.38h4.11v-1.73h-4.11v1.73ZM43.88,13.51v17.56h1.73V13.51h-1.73ZM44.74,31.94h10.79v-1.73h-10.79v1.73ZM54.67,31.08v3.61h1.73v-3.61h-1.73ZM55.54,33.82h-14.91v1.73h14.91v-1.73ZM70.65,19.06l-.61.61.82.82.55-1.01-.76-.41ZM69.88,18.49l-.48.72h0s0,.01,0,.01l.46-.73ZM68.54,17.81l-.34.8h0s0,0,0,0l.33-.8ZM66.84,17.24l-.24.83h.01s.01,0,.01,0l.22-.84ZM62.42,17.6l-.51-.7h0s0,0,0,0l.52.69ZM63.74,21.59l-.27.82.27-.82ZM66.42,22.37l-.22.84h0s0,0,0,0l.2-.84ZM70.03,23.62l-.38.78h0s0,0,0,0l.36-.78ZM72.38,25.53l-.72.48h0s0,.02,0,.02l.7-.5ZM72.59,31.55l.77.4h0s0,0,0,0l-.77-.39ZM68.36,34.59l.2.84h0s0,0,0,0l-.21-.84ZM59.17,33.67l-.34.79h0s0,0,0,0l.33-.8ZM56.49,32.18l-.77-.39-.34.67.61.43.5-.71ZM58.31,28.63l.61-.61-.84-.84-.54,1.06.77.39ZM59.26,29.35l-.47.72h.01s.01.01.01.01l.45-.74ZM60.93,30.21l-.36.79h0s.01,0,.01,0l.34-.8ZM63.08,30.93l-.21.84.21-.84ZM67.97,30.66l-.47-.72.47.72ZM66.24,26.63l-.28.82h0s0,0,0,0l.26-.82ZM63.35,25.74l.24-.83h0s-.24.83-.24.83ZM60.01,24.49l-.41.76h0s0,0,0,0l.39-.77ZM58.01,22.7l-.74.45.74-.45ZM58.37,16.38l-.71-.5h0s.71.5.71.5ZM61.17,14.14l.34.8h0s0,0,0,0l-.35-.79ZM67.88,13.69l-.21.84h0s.21-.84.21-.84ZM70.38,14.56l.36-.78h0l-.36.78ZM72.47,15.72l.76.41.38-.69-.65-.44-.48.72ZM71.26,18.45c-.21-.21-.54-.45-.92-.69l-.92,1.46c.37.24.56.38.63.45l1.22-1.22ZM70.36,17.77c-.42-.28-.92-.53-1.5-.77l-.65,1.6c.5.2.89.41,1.19.6l.96-1.44ZM68.87,17.01c-.56-.24-1.17-.44-1.82-.61l-.43,1.67c.58.15,1.11.33,1.58.53l.67-1.59ZM67.08,16.41c-.69-.2-1.4-.3-2.12-.3v1.73c.55,0,1.1.08,1.64.23l.48-1.66ZM64.96,16.11c-1.2,0-2.26.22-3.04.79l1.01,1.4c.37-.27,1-.46,2.03-.46v-1.73ZM61.9,16.91c-.79.6-1.18,1.45-1.18,2.45h1.73c0-.51.17-.83.49-1.07l-1.04-1.38ZM60.72,19.36c0,.77.25,1.47.81,2l1.19-1.26c-.16-.15-.27-.36-.27-.74h-1.73ZM61.53,21.36c.48.46,1.15.8,1.93,1.06l.55-1.64c-.65-.22-1.06-.46-1.29-.67l-1.19,1.26ZM63.46,22.41c.74.25,1.66.51,2.74.79l.43-1.67c-1.06-.28-1.94-.53-2.63-.76l-.55,1.64ZM66.21,23.21c1.35.33,2.49.73,3.43,1.19l.76-1.55c-1.08-.53-2.35-.97-3.78-1.32l-.41,1.68ZM69.66,24.41c.92.42,1.57.97,2,1.61l1.43-.97c-.64-.95-1.56-1.68-2.71-2.21l-.72,1.57ZM71.68,26.03c.42.58.67,1.42.67,2.6h1.73c0-1.41-.3-2.64-1-3.6l-1.4,1.01ZM72.35,28.63c0,1.03-.19,1.86-.53,2.53l1.54.79c.49-.96.72-2.08.72-3.32h-1.73ZM71.83,31.15c-.35.67-.83,1.21-1.45,1.62l.97,1.43c.86-.58,1.53-1.33,2.01-2.25l-1.53-.8ZM70.38,32.77c-.65.44-1.39.77-2.23.98l.43,1.67c1.02-.26,1.95-.67,2.77-1.22l-.97-1.43ZM68.16,33.75c-.86.2-1.79.31-2.79.31v1.73c1.11,0,2.17-.12,3.18-.35l-.39-1.68ZM65.37,34.06c-.99,0-1.99-.1-2.98-.31l-.35,1.69c1.11.23,2.22.35,3.34.35v-1.73ZM62.39,33.75c-1-.21-1.97-.5-2.89-.88l-.65,1.6c1.02.42,2.09.74,3.19.97l.35-1.69ZM59.51,32.88c-.92-.4-1.76-.86-2.53-1.4l-1,1.41c.87.61,1.82,1.14,2.84,1.58l.68-1.59ZM57.26,32.57l1.82-3.55-1.54-.79-1.82,3.55,1.54.79ZM57.7,29.24c.25.25.63.53,1.09.83l.94-1.45c-.45-.29-.7-.49-.82-.6l-1.22,1.22ZM58.81,30.08c.49.3,1.08.61,1.76.91l.71-1.57c-.63-.29-1.16-.56-1.58-.82l-.9,1.48ZM60.59,31.01c.7.3,1.46.55,2.27.76l.43-1.67c-.74-.19-1.41-.41-2.02-.67l-.67,1.59ZM62.86,31.76c.85.22,1.7.33,2.57.33v-1.73c-.72,0-1.44-.09-2.14-.27l-.43,1.67ZM65.43,32.09c1.19,0,2.23-.2,3.01-.71l-.95-1.45c-.37.25-1.02.43-2.06.43v1.73ZM68.44,31.38c.82-.54,1.26-1.35,1.26-2.33h-1.73c0,.41-.14.67-.47.89l.95,1.45ZM69.7,29.05c0-.87-.33-1.63-1.02-2.17l-1.06,1.36c.23.18.35.41.35.81h1.73ZM68.68,26.88c-.57-.44-1.31-.79-2.18-1.07l-.52,1.65c.76.24,1.29.51,1.64.78l1.06-1.36ZM66.52,25.81c-.83-.28-1.81-.59-2.93-.91l-.47,1.66c1.1.31,2.05.61,2.85.88l.56-1.64ZM63.58,24.91c-1.3-.37-2.35-.77-3.18-1.19l-.79,1.54c.96.49,2.13.93,3.5,1.31l.47-1.66ZM60.41,23.72c-.79-.42-1.33-.92-1.67-1.48l-1.47.9c.53.87,1.33,1.57,2.33,2.1l.81-1.52ZM58.75,22.25c-.33-.55-.53-1.27-.53-2.23h-1.73c0,1.19.24,2.25.78,3.13l1.47-.9ZM58.22,20.01c0-1.32.3-2.35.86-3.15l-1.42-.98c-.8,1.15-1.17,2.54-1.17,4.13h1.73ZM59.08,16.87c.6-.85,1.4-1.5,2.43-1.94l-.67-1.59c-1.31.56-2.38,1.4-3.17,2.54l1.42.99ZM61.52,14.93c1.05-.46,2.23-.7,3.56-.7v-1.73c-1.54,0-2.96.28-4.25.85l.7,1.58ZM65.08,14.23c.93,0,1.79.1,2.59.3l.42-1.68c-.95-.24-1.95-.35-3.01-.35v1.73ZM67.67,14.53c.85.21,1.63.48,2.35.81l.72-1.57c-.83-.38-1.72-.69-2.66-.92l-.41,1.68ZM70.02,15.34c.74.34,1.39.71,1.96,1.09l.97-1.43c-.66-.45-1.4-.86-2.21-1.23l-.72,1.57ZM71.71,15.31l-1.82,3.34,1.52.83,1.82-3.34-1.52-.83Z" style="fill:rgba(255,255,255,.12);"/></svg>