<?xml version="1.0" encoding="UTF-8"?><svg id="c" xmlns="http://www.w3.org/2000/svg" viewBox="0 0 200 100"><g id="d"><g id="e" style="isolation:isolate;"><g style="isolation:isolate;"><path d="M43.27,40.97h7.29c1.64,0,2.9.13,3.76.38,1.16.34,2.15.95,2.98,1.82.83.87,1.46,1.94,1.89,3.2.43,1.26.65,2.82.65,4.67,0,1.63-.2,3.03-.61,4.21-.49,1.44-1.2,2.6-2.12,3.49-.69.67-1.63,1.2-2.8,1.58-.88.28-2.06.42-3.53.42h-7.51v-19.76ZM47.26,44.32v13.09h2.98c1.11,0,1.92-.06,2.41-.19.65-.16,1.18-.44,1.61-.82.43-.39.78-1.02,1.04-1.91s.4-2.09.4-3.62-.13-2.7-.4-3.52-.65-1.46-1.13-1.91c-.49-.46-1.1-.77-1.85-.93-.56-.13-1.65-.19-3.28-.19h-1.79Z" style="fill:#bfbfbf;"/><path d="M63.2,44.48v-3.5h3.79v3.5h-3.79ZM63.2,60.73v-14.31h3.79v14.31h-3.79Z" style="fill:#bfbfbf;"/><path d="M69.53,56.65l3.8-.58c.16.74.49,1.3.98,1.68.49.38,1.19.57,2.08.57.98,0,1.72-.18,2.21-.54.33-.25.5-.59.5-1.01,0-.29-.09-.53-.27-.71-.19-.18-.61-.35-1.27-.5-3.06-.67-4.99-1.29-5.81-1.85-1.13-.77-1.7-1.85-1.7-3.22,0-1.24.49-2.28,1.47-3.13.98-.84,2.5-1.27,4.56-1.27s3.41.32,4.37.96c.95.64,1.61,1.58,1.97,2.83l-3.57.66c-.15-.56-.44-.98-.87-1.28-.43-.3-1.04-.44-1.83-.44-1,0-1.71.14-2.14.42-.29.2-.43.45-.43.77,0,.27.13.5.38.69.34.25,1.52.61,3.54,1.06,2.02.46,3.43,1.02,4.23,1.68.79.67,1.19,1.61,1.19,2.82,0,1.31-.55,2.44-1.64,3.38-1.1.94-2.72,1.42-4.87,1.42-1.95,0-3.49-.4-4.63-1.19-1.14-.79-1.88-1.86-2.23-3.22Z" style="fill:#bfbfbf;"/><path d="M98.89,53.47l3.87,1.23c-.59,2.16-1.58,3.76-2.96,4.81-1.38,1.05-3.13,1.57-5.25,1.57-2.62,0-4.78-.9-6.47-2.69-1.69-1.79-2.53-4.24-2.53-7.35,0-3.29.85-5.84,2.55-7.66,1.7-1.82,3.93-2.73,6.7-2.73,2.42,0,4.38.71,5.89,2.14.9.84,1.57,2.06,2.02,3.64l-3.95.94c-.23-1.02-.72-1.83-1.46-2.43-.74-.59-1.64-.89-2.7-.89-1.46,0-2.65.53-3.57,1.58s-1.37,2.75-1.37,5.11c0,2.5.45,4.28,1.35,5.34.9,1.06,2.07,1.59,3.5,1.59,1.06,0,1.97-.34,2.74-1.01.76-.67,1.31-1.73,1.64-3.18Z" style="fill:#bfbfbf;"/><path d="M105.28,53.37c0-1.26.31-2.48.93-3.65.62-1.18,1.5-2.08,2.64-2.7,1.14-.62,2.41-.93,3.81-.93,2.17,0,3.94.7,5.32,2.11s2.08,3.18,2.08,5.33-.7,3.96-2.1,5.38-3.16,2.14-5.28,2.14c-1.31,0-2.56-.3-3.75-.89-1.19-.59-2.1-1.46-2.72-2.61-.62-1.15-.93-2.54-.93-4.19ZM109.16,53.58c0,1.42.34,2.51,1.01,3.26s1.5,1.13,2.49,1.13,1.82-.38,2.49-1.13c.67-.75,1-1.85,1-3.29s-.33-2.48-1-3.23c-.67-.75-1.5-1.13-2.49-1.13s-1.82.38-2.49,1.13-1.01,1.84-1.01,3.26Z" style="fill:#bfbfbf;"/><path d="M132.44,60.73v-2.14c-.52.76-1.21,1.37-2.06,1.81-.85.44-1.75.66-2.69.66s-1.83-.21-2.59-.63-1.32-1.02-1.66-1.78c-.34-.76-.51-1.82-.51-3.17v-9.06h3.79v6.58c0,2.01.07,3.25.21,3.7.14.45.39.81.76,1.08.37.27.83.4,1.4.4.65,0,1.23-.18,1.74-.53.51-.35.86-.8,1.05-1.32.19-.53.28-1.81.28-3.86v-6.04h3.79v14.31h-3.52Z" style="fill:#bfbfbf;"/></g><g style="isolation:isolate;"><path d="M139.92,60.73v-19.76h8.4c2.11,0,3.65.18,4.6.53s1.72.99,2.3,1.89c.57.91.86,1.95.86,3.11,0,1.48-.44,2.71-1.31,3.67-.87.97-2.17,1.57-3.91,1.83.86.5,1.58,1.06,2.14,1.66s1.32,1.67,2.27,3.21l2.41,3.85h-4.77l-2.88-4.3c-1.02-1.54-1.72-2.5-2.1-2.9-.38-.4-.78-.67-1.2-.82-.42-.15-1.09-.22-2.01-.22h-.81v8.25h-3.99ZM143.91,49.33h2.95c1.91,0,3.11-.08,3.58-.24.48-.16.85-.44,1.12-.84.27-.4.4-.89.4-1.48,0-.67-.18-1.2-.53-1.61-.36-.41-.86-.67-1.5-.77-.32-.04-1.29-.07-2.91-.07h-3.11v5.01Z" style="fill:#fff;"/><path d="M158.83,54.3l3.88-.38c.23,1.3.71,2.26,1.42,2.87.71.61,1.68.92,2.89.92,1.29,0,2.25-.27,2.91-.82.65-.54.98-1.18.98-1.91,0-.47-.14-.86-.41-1.19-.27-.33-.75-.61-1.44-.86-.47-.16-1.53-.45-3.2-.86-2.14-.53-3.64-1.18-4.5-1.95-1.21-1.09-1.82-2.41-1.82-3.98,0-1.01.29-1.95.86-2.82.57-.88,1.39-1.54,2.47-2,1.07-.46,2.37-.69,3.89-.69,2.48,0,4.35.54,5.6,1.63,1.25,1.09,1.91,2.54,1.98,4.35l-3.99.18c-.17-1.02-.54-1.75-1.1-2.19s-1.4-.67-2.53-.67-2.07.24-2.72.71c-.42.31-.63.71-.63,1.23,0,.47.2.87.59,1.2.5.42,1.73.86,3.67,1.32,1.94.46,3.38.93,4.31,1.42.93.49,1.66,1.16,2.18,2.01.53.85.79,1.9.79,3.15,0,1.13-.31,2.19-.94,3.18-.63.99-1.52,1.72-2.67,2.2s-2.58.72-4.3.72c-2.5,0-4.42-.58-5.76-1.73-1.34-1.15-2.14-2.84-2.4-5.05Z" style="fill:#fff;"/><path d="M178.26,60.73v-19.76h14.65v3.34h-10.66v4.38h9.92v3.33h-9.92v5.38h11.04v3.33h-15.03Z" style="fill:#fff;"/></g></g><g id="f"><circle id="g" cx="23.09" cy="49.69" r="10.14" style="fill:#bfbfbf;"/><circle id="h" cx="50.33" cy="22.45" r="8.14" style="fill:#bfbfbf;"/><circle id="i" cx="50.33" cy="78.2" r="8.14" style="fill:#bfbfbf;"/><rect id="j" x="34.99" y="48.75" width="4.24" height="30.98" transform="translate(-34.56 45.05) rotate(-45)" style="fill:#bfbfbf;"/><rect id="k" x="21.62" y="33.27" width="30.98" height="4.24" transform="translate(-14.15 36.6) rotate(-45)" style="fill:#bfbfbf;"/></g><g id="l"><path id="m" d="M50.46,0c-6.48,0-12.63,2.87-16.8,7.83,4.09-3.99,9.58-6.24,15.29-6.26,12.15,0,22,9.85,22,22h0c0,5.18-1.84,10.2-5.19,14.16,4.26-4.13,6.67-9.8,6.69-15.73,0-12.15-9.85-22-22-22h0Z" style="fill:#fff;"/><path id="n" d="M50.78,7.38c-4.59.01-8.89,2.24-11.56,5.98,2.65-2.62,6.23-4.1,9.96-4.11,7.87,0,14.25,6.38,14.25,14.25-.01,2.96-.95,5.85-2.67,8.26,2.72-2.67,4.26-6.31,4.27-10.12,0-7.87-6.38-14.25-14.24-14.25h0Z" style="fill:#fff;"/></g><g id="o"><path id="p" d="M22.28,26.41C9.83,26.99.03,37.24,0,49.7c0,12.91,10.46,23.37,23.37,23.37,1.21,0,2.43-.1,3.63-.3-.36.03-.73.06-1.1.08-12.91,0-23.37-10.46-23.37-23.37,0-11.5,8.38-21.29,19.75-23.07h0Z" style="fill:#fff;"/><path id="q" d="M23.53,32.86c-9.32,0-16.87,7.55-16.87,16.87,0,9.32,7.55,16.87,16.87,16.87.37-.01.74-.04,1.11-.08-8.85-.58-15.73-7.92-15.76-16.79.02-8.97,7.06-16.36,16.03-16.81-.46-.04-.92-.06-1.38-.06h0Z" style="fill:#fff;"/></g><g id="r"><path id="s" d="M50.46,100c-6.48,0-12.63-2.87-16.8-7.83,4.09,3.99,9.58,6.24,15.29,6.26,12.15,0,22-9.85,22-22h0c0-5.18-1.84-10.2-5.19-14.16,4.26,4.13,6.67,9.8,6.69,15.73,0,12.15-9.85,22-22,22h0Z" style="fill:#fff;"/><path id="t" d="M50.78,92.62c-4.59-.01-8.89-2.24-11.56-5.98,2.65,2.62,6.23,4.1,9.96,4.11,7.87,0,14.25-6.38,14.25-14.25-.01-2.96-.95-5.85-2.67-8.26,2.72,2.67,4.26,6.31,4.27,10.12,0,7.87-6.38,14.25-14.24,14.25h0Z" style="fill:#fff;"/></g></g></svg>