<?xml version="1.0" encoding="UTF-8"?><svg id="a" xmlns="http://www.w3.org/2000/svg" viewBox="0 0 550 600"><polygon points="163.49 142.84 163.49 43.45 461.69 215.65 461.69 314.68 163.49 142.84" style="fill:#9688f2;"/><polygon points="536.95 172.16 461.69 215.62 163.49 43.45 238.75 0 536.95 172.16 536.95 172.16" style="fill:#f0eef9;"/><polygon points="88.3 285.32 88.3 185.93 386.5 358.13 386.5 457.16 88.3 285.32" style="fill:#9688f2;"/><polygon points="461.76 314.64 386.5 358.1 88.3 185.93 163.57 142.48 461.76 314.64 461.76 314.64" style="fill:#f0eef9;"/><polygon points="13.05 428.16 13.05 328.78 311.25 500.97 311.25 600 13.05 428.16" style="fill:#9688f2;"/><polygon points="386.51 457.49 311.25 500.94 13.05 328.78 88.31 285.32 386.51 457.49 386.51 457.49" style="fill:#f0eef9;"/></svg>