<?xml version="1.0" encoding="UTF-8"?>
<svg id="Layer_1" xmlns="http://www.w3.org/2000/svg" version="1.1" viewBox="-253 -660 2660 2497">
  <!-- Generator: Adobe Illustrator 30.4.0, SVG Export Plug-In . SVG Version: 2.1.4 Build 226)  -->
  <defs>
    <style>
      .st0 {
        fill: none;
      }

      .st1 {
        fill: #9688F2;
        stroke: #041A16;
        stroke-width: .5px;
      }
    </style>
  </defs>
  <path class="st0" d=""/>
  <g id="polygons">
    <path id="NL" class="st1" d="M532.5,638l-2.6,5-6.6,3.8-6.9,2.5-3.6-.3-3.9-2.7-3.8-1.3-5.1-.6-5.4,2.8-2-.2-2.7-2.8-1.6-5.4,3.8-1,8.2-.4,6.5,1.9,8.4.9,6.4-2.6,5.1,2.2,5.8-1.6ZM517.9,615.9l5,3.4,1.5,2.3-6.2,1.4-6.7-4.2-4.4,1-1.8-3.2,4.5-1.1,8.1.4ZM562.1,532.2l-4.8,4.5-3.9-2.3,1.4-3.5,7.1-5.8.2,7.1ZM572.6,517.3l-9,4.6-.8-.7,5.8-4h4ZM532.5,638l-4.4-.9-6.7-2.6-9.2,2.2-6.5-2.5-5.4-.2-3.4-2-3.7-3.4,4.9-3,9.8-.5,7.2,1.3,13.1,7.4,6.7-1-1.8-2-8.1-2.9-3.9-2.8,8.9-.9-2.5-3.9-9.6-8.6,3.8-7.4,2.8-4.2,6.1-4.1,8.1-8.7,5.1-7.1,3.7-8.4,5-23.1,4.2-8.3,6,2,6.8-2.6,4.6,6.4v4.5c-.1,0,7.8,1.5,7.8,1.5l2.2,2.6-3,1.4-.5,2.2-4.7,1.9-4.3-1.2-2,1.1,1.2,3.2,4,7.3-4.5,4.4-.8,2.2,6.5,1.4-.6-3.8,14.6-7.3,7-5.7,4.5-1.7-3.1-2.1-.2-6.7,3.8-4.7-2.7-.5-3.4,1.1-6.4-1.1-3.8-2.3,2.4-1.5v-6.6c-.1,0-1.7-5.2-1.7-5.2l3.2-7.4,4.1-3.4,16.7-6.7,9.2-2,14.4-.6,10.3-1.2,12.5-.5,7.9,7.1,4.5,1.7,7,1.1v6c-.1,0,.5,11.8.5,11.8l-.4,2.1-2.8,5-2.8,8.9-.6,5.9-.9,1.1h-13.2s-1.8,1.1-1.8,1.1l.5,2.8-1.2,2.7,3.1,4.1,4.2,1.3h6.8c0-.1,3.5,3.9,3.5,3.9l-.4,7.2-2,3.8-5.9,4.4-5.2,2.3-1.5,3.9,4.5,3.5-2.8,4.4-11.1,3.6-4.7-.3-3.4,2.1-3-1.6-6.6-1.9-7.8,3-2.9,2v2.5c0,0,5.6,6.5,5.6,6.5l1.9,1.3.2,2.4,5.4,6.9.2,4.9-1.2,3.5-4.2,8.2.5,2.8,2.5,2-9.4,6.7-3.6-.3,1.5,3.8,5.7,2.1,2.2,2.8-2.4,9.7-10-.2-5.3-1.3-2.9-4.3.3-1.5,4.4-4.1.5-3.6,3.2-6.1.3-2.5-3.9-2.7-7.3-1.8-5.2-4.8-10,1-4.9-1.2-5.9-4.2-2.3-6.7-1.5-1-4.2,3.9-4.8.3-2-3.1-2.8-2.4-6,4.4h-2.3s-4.4-3.3-4.4-3.3l-5.9,3,1.1,3.8-5,.4-4-1.5ZM583.2,512.4l-4.6.5-2.1-.9,11-2.5-4.3,2.9ZM612.9,507.7l-9.7,1.1-1.3-1.9h8.3c0-.1,2.7.9,2.7.9Z"/>
    <path id="SE" class="st1" d="M1355.6-275.3l-11,1.6-9.2-2.8-3.9,1.5-7.4.2-8.2,1.3-4.4,3.3-8.6-3.1-8.6-5.2-4.5,4.1-3.3.8-4-3.6-4.1.7-2.3,7.4.8,8-7.4-.7,3.4,3.6-2.3,1.5h-7.2s2.1,3.8,2.1,3.8l-2.4,2.9-8.3,1.4-5-.2-1.2,3.1,4.6,3.7-1.4,2.8-2.5.6,4.3,5.3.2,2.2-5,7.2-8.2,8.7-1.7,4.3,7.2,5.2,7.3,11.2,6.5,5-1.3,5.3-8.1,5.2-8.9,7.7-7.4,19.6-3.2,2.7-9.2,3.4-3,3.2-6.7,3.9-12.2,3.4-5,4.6-1.8,4.7-2.9.4-7.4-3.1.6,5.3-6.8-3.2-2.4,3.1-1.4,5.1-7.8,7-9.9-1.1,1.8,2.1-7.6,3.1h-2.7c0,0-2.2,7.2-2.2,7.2l-8,2.1-1,2.3,8.5.4-.7,5.9-9.1,3.1-2.9,3.8h-4.3s.4-2.9.4-2.9l-8.8.5,4.6,6.8-2.6,3.9,6.6,3.6-3.8,1.4-4.3,4.8-5.2.2-2.7,3.2h-3.4s-7.8-3.5-7.8-3.5l-.8,5.2,3.4,5.7,5.5,4.4,4.7,1.9-3,1.3-1.9,2.9-3.2,18.9,3.2,7.9,2.7,3.5-6-.4-6.6-2,1.5,4.3-3.1,5.1,2.6,7.3-.5,4.8,3.5,4.3-.3,3.9,1.2,6.4,2.7,10.1v2.1c-.1,0,4.7,8.7,4.7,8.7l-.2,7,5.5,3.7,9-.2,1.9.9,4,5.8,3.7-.3,5.5-2.6,3.8-.6,3.3,4.9,8,6.4,4.5,2.9,7.1,1.4,8.1,5.1v6.3l3.4,2.1,8.9,2.4,8.1,8.5,3.8,7.1-.2,4.4-10.7,6.4-5.6,5.8-7.4,4.8-2.9.9-5.1,3.6-2.6-.6-8.6,4.6-6.5-1.2-2.9-2.2.3-8.7-2.9-4.2-3.8,1.7,1.2,3.3-7.1.2-7.1-2.7v5.6s-15.1-4.4-15.1-4.4l-3.8,1.2-6.7-2.2-3.7,2.8-5-.9-3.9-3.3-3.9,5.8-10,1.8-9.5,1,4.9,1.9,21.6-.6,6.3,1.4,7.8-1,7.7,4.5,5.2,1,6.8,5.2,2.9-1.5,4.9.2,4.7,1.4,14.2-.4,4.3-3.7,7.2.7,3.5-1,2.4-2.3,5.8-.2,4.9-2.5,2.5.8,3.3,4.2-5.2,2.3-3.9.2-.9,7-3.4,4.5-8.3,3.1-5.2,3.8-6.4,3.1-3.1-.6-4,3.1-9.4,3.7-4.4,5-10.8,4.5-5.3,3.6-15.9.4-15.3-.6.4,2.2,3.6,1.6,4-.7,9.7.7,5.1.8,7.2,5.8-4.4,2.1-7.9,1.7,7.4,13.8-2.8,3.4,1.8,15.3-4.6.3-1.1,6.3,1.9,3.2.9,7.5,1.6,4.6,2.8,4.2-.4,4.4-6,10.4.8,4.9,3.3,7.5-3.6,16.4-2,6.3-5.3,7.6-2.5,5.6-5.2,17.5-3.2,3.5-4.2,2.7-5.3-2.4-4.8-1.3-5.6.2-8.6,2.1-13.4-1.2-12.9.8-3.1,1.8,2.7,6.3-4.7.9-4.9-1.8-7,4.6-6.1,5.7-1.9,3.5v6.5c.1,0,4.3,5.8,4.3,5.8l3.9,6.8-7.2,8.3-4.5.3-13.5-2.2-23,5.4-21.5-3.9,2.2-4.4-.4-3.2.9-10.1-.5-3.4-1.9-3.6-5.7-4.7-13.3-16-4.1-6.7-1-3,9.9,3.6,4.4-1.9-3.4-5.2-2.7-2.3-2-3.5,5.5-1,4.1.2,2.6-4-2.4-6.4-8.2-2.8-7.9-10-7.8-5.1-14.8-20-6-13.8-4.2,1.3-4.8-11.7-.7-4.2-7-2.3-3-16-7.4-1.7-5.4-7.3-2.1-13.9-5-2.5-3.8.7.5-6.7-3.4-12.8-1.8-11.7-3.5-7.6,1.8-5.6,4.6-.6,4.7,3.1,4.6,7.9,3.5,1,4.5-2.1,2.7-5.8,2.4-17.1-6.9-16.6-.4-2.3,6.5-6.6,3.5-10.5,2.4-1.7,8.2-1.4,5.3-3.5,8.1-8.8.4-8.3-.4-4.2,1.4-3.1,1-6.1-2.2-5.9-5.9-9-7.4-12.7-1.7-6.9,7.7-2.5,9.8-.4,3.4-8,2-3,1.5-8.2-6.3-5.8-8-5.9-5.2-1.9-9.4-5-6.7-4.2,3.1-28.1-.3-7.4-10.6-19.1.2-8.1-2.8-12.4,4.3-5.1-4.1-5.5-7.6-12.6,8-12.7-2.4-6.5,5.1-4.8,14-17,5.3-3.8,8.2-3.3,9.3-1.6h4.2s29.5,3.5,29.5,3.5l1.6-1.7,5-8.4-.4-5.4-2.3-8-2.5-4.8-9.3-3-10.3-4.2,17.2-23.1,8.4-14.2,2.4-5.9,2-2.3v-21.7s2.3-9.2,2.3-9.2l-.4-3.2-6.5-17.8,15.8-1.7,9.7-2.4,8.9-3.9,4.1-3.4-4.3-11.5,5.1-4,11.8-13.7,12.9-13.2,6.2-5,.3-6.3-4.1-6-11.5-10.8,2-5,10.5-3,4.6-4.9,5.4-16.8,14.6-8.7,5.6-4.7,26.1,8.4,6.7-10.7,1.3-4.2-2.2-7.3-2.1-9.4v-3.8c0,0,8.4-2.2,8.4-2.2l16.8,3.7,11.7.3,8.8,1.6,26.5,6.1,4.2.3,9.6-7.7-12-3.9,6.5-4.2,2.9-4.2,2.2-5.1v-6c0,0-1.2-3.2-1.2-3.2l-10.6-7.5,20.4-1.3,11.9,3.4,1.9,4.6,11.9,4.7,11.2,6.4,2.2,2.1,6.7,2.4,5,2.6,12.5,5.3,8.7,2.6,7.1.8,18.4,4.3,9,4.5,5.9,3.6,5.3,7.5,5.7.3,2.1,2.6,6,4.4,7.8,3.8v1.3c0,0-4.5,3.7-4.5,3.7l.6,4.9,2,6.3,3.1,6.6-1.9,4.6,1.1,4.3,8.2.5,3.3,1,3.1,5.9-4,3.9-.2,5.3,4,7.2,4.4,4,9.5,7.7,3,4.2-2.4,6.6.7,8.2-3.1,4.5-2.5,1.6.3,6.3,3,8,3.1,3.8,7.2,2.6,8.4,9.8,7.2,11.5ZM1184.2,125.5l-2.4-.4.8-3,2-1.4,3.8,1.4-4.2,3.5ZM1180.1,153.3l-3,.5,1.6-4.2,3.9-1-2.5,4.8ZM1225.6,222.3l-.3,3.9-2.5-.3-2.7-2.8,3.8-4.5,6.9.2,2.5.9-7.9,2.6ZM1222.7,227.8l-3.7,1.6-1.6,4.4-5.9,2.3,1,14,6.4,5.3-5.5,2.4-1.6,2.4-1.3,5.1-7.3,3-2.6,2.2-3.6,4.8-1.2,6.9-3.9,3-4.8.8,2.1-5.7,3.1-4.6-4.1-3.1-2.9-4.9-3.4-3.7,1.6-4.2-2.1-6.9-.6-6.7,6.1-6.3,4.8-6.5,5.6-4.7,8.4-2.2,4.2,1.9,1.1-4.2,2.7-1,2.8.9,6.3,3.9ZM1114.9,326.2l-2.1,3.2-2.2-.2-2-4.2-1.7-10.8.2-5.4,7.9-19.4,4.4-1.6,5-11.9,1-5.3,4.5-10.8,4.6,1.5-2.9,2.5.8,4.5-6.2,14.1-1,9.1-2.6,2.2-7.7,32.4Z"/>
    <path id="SI" class="st1" d="M1185,940.9l-4.8-1.5-5.6-.6-4.1,3.2,1.5,5.9-1.2,1-6.4-.5-2,.7-3.1,4.2-3.3,1.8-7.6,2.8-7.6,2.2-1.9,3.8.4,1.9,4,3.8.9,4.1v5c0,0-1.8,4.5-1.8,4.5l-8.8,2.4-9,4.2v1c-.1,0,4.5,3.6,4.5,3.6l-3.1,3,.5,4.5,3,4.7-5,1.7-7-.5-8.5-3-5.5,2.1-6.2-2.5-7.2-6.3-1.1-2.6-3,.4-1.2,3.2-3.6,5.6-2.9,1.6-4.6-.3-10.4.6-5.1-1.9-2.7,3.8-2.9,1.4-14.2-2.9-2.2-2.5,3-1.2,4.1-3.3,6.6-.4,1.4-1.4-2.6-4.1-6.2-5-3.2-1.9-4.3-1.2-.8-1.4,1.7-8-.8-1.1-4.8.4-1.6-4.1,6.4-5.9.6-2.8-7.6-2.4-4.9-.5-1.3-2.3.8-3.5,8.1-6.2,5.9-3,.7-3.6,6.9.5,10,1.7,4.3,1.3,8.9,1.3,12.5,1.4,2.5,1.1,2.3-2.3,8-4,3.9-5.1,2.6-1.6,5.5-1.3,11.2-1.2,11.7.7,5.4-1.6,4.3-2.8,7-.9,10.2,2,1-1.8-.8-6,2.9-2.8,2.8-1.2,10,.3,1.5,1.8,2.1,6.7,2.8,2.5v2.7c.1,0,7.4,7.3,7.4,7.3l.7,1.4Z"/>
    <path id="SK" class="st1" d="M1477.1,775.7l-.4,2.6-3.8,6.2-1.6,3.8-1.8,8.1-1.4,3.8-6.8,7.5.9,10.3-1,.8-17.2,3.7-2.4-.5-5.2-4.5-4.2-4.8-6.3-3.5h-3.6s-9.2,2.8-9.2,2.8l-6.6.4-10.7-2.3h-11.5c0-.1-7.7,1.4-7.7,1.4l-.5,2-5.6,12.6-10,4.8-8.6,4.8-2.5,1-4.8-1.4-5.6-2.8-4.5-1.4-3.1.7-3,3.2-1.2,3.3-10.2,2.5-18,1.6-6,3.2-1.7,3.8.3,3,1.8,2.5-2.3,4.2-29.8,1.8-19.9-.2-6.8-2.4-8.6-4.8-9.2-6.4-2.2-.8h-6.7s-3.4-2.1-3.4-2.1l-1.2-2.8-5.7-7.1-6.8-11.8-.5-3.4,3.4-6.9.2-3,1.1-4.9,3.3-6.6,3.3-3.8,2.6-1.3,5.7,1.1,9.7.9,7.2-1,6.5-3,3.4-2.6,5-5.3,5.5-1.6,1.6-1.8.4-7.2,2-4.9,9.8-5.1,2.2-3.5,5.5-4.7,2.9-1.7,7.8-.2,4.1-1.1,5.5.7,2.3,6.4,9.2-.3,4.3-7.1,2.6-.9,6.5-4.7,2.1,1.3,6.8,8,4.1,3.2,5.8,1.4,1.5,6.4-1,4.1,2.4.7,5.6-1.9,7.6,2.4,1.8-5.7,2.5-2.9,9.6-4.4,3-.5,5.8.6,4.1-.7,6,1.3,4,2.6,3.7.8,4-.2,2.6-1.5,3.3-5,7.4-.8h6.4s15,.8,15,.8l4,1.8,9.5,2.3,4.4,2.7,3.5,5.6,9.9,3.4,14.5,4.3,3.4.5Z"/>
    <path id="PT" class="st1" d="M-92.4,1529.2l-4.9.7-19.3,10.1h-5.9s-10.8-4.5-10.8-4.5l-19.3-1.5-6.3-1.4-8,2.9h-6.1c0-.1-5,3.6-5,3.6l-3.4-1,4.3-8.4,6.9-16.6.2-10.1,1.9-8.8-1.3-8.7-2.9-5.5,4.9-14.1v-7.3c-.1,0-3.6-9.2-3.6-9.2l11.7,1.4-3.5-3.7-3.5-2.3-6.4.3-10.2,3.6-5.1,1-1.4-.6.8-5.7-2.3-7.4,4.1-1.9,4.7-.5,4.1-3.1,2.6-3.5-1-6.3,3.7-6-.8-1.1-8.1,11.4-2.7,5.8-6.5,1.8-5.8.9-6.4-2.1.3-7.7,2.7-6.8,1.4-9.5,3.8-8.5-.9-5.7,3.2-3.3,3.8-2.2,6-7.3,8.7-17.4,9.9-18.5-2.5-4,1-5,6.5-21.7,2.3-2.8,2.9-6.4,1-10.3,1.3-7.1-.7-7.8-3.1-8.2-2.8-17.3v-5.8l3.1-2.9-4.9-.4-2-3.7.7-4.2,5.8-6.8,5.3-4.2,8-3.8,11.8-2.8,3.1-1.4,2.9.3,4.2,7.3-4.8,5.7-.7,2,3.7,5.3h3.1c0-.1,9.6-4.4,9.6-4.4l1.3.8,11.1-1.1,4.3,1.9,5.3,1.4,5.9.2,7.4-1.9,3.3-1.9.9-3.8,2.7-1.6,6.2,1.9,8.9.4,1.8-1.2,6.9,1.9,4.6-.5,2.2,1.8.9,2.4-.5,10.7.8,2,8.1.5,4.5,1.5,3.4,2.6,1.5,4.4-1.8,1-2.6,3.8-6.4,5-9,4.5-7,5.6-4.9,6.7-5.9,2.8-2.6,3.3,3.6,8.2,1.6,14.1-.7,2.2-.6,8.5-.8,4.5,1.9,4.3-2.8,2.6-8.7,5.8-.9,4.1,5.9,5.4,1,2.2-1,5.3-3.8,8.7-3.6,5.3-4.5,2h-18.5s-4.5,1.2-4.5,1.2l4.7,7.9,5.9,4.5,1.3,8,6.9,12.8,7,1.8,2.4,3.2-.6,4.5-2.4,4.9-4.6,5-5.3,3.5-3.5,3.5-.4,4.1-3.6,12.1,12.5,17.4,7.3-.8-.5,4.5-2.5,4.8-9.1,2.4-6.1,6.2-5.1,7.5-3.8,3.6-3.6,9,.3,3.9,1.4,6,2.8,15.6Z"/>
    <path id="NO" class="st1" d="M1329.1-610.4l11.2,2.2h3.6c0-.1,9.3,6.6,9.3,6.6l-14,2.9-7.2-.3-4.9-3.6-6.8-.8,3.2-4,5.6-2.9ZM1564.7-529.5l4.9,8.2.9,2.9-1.1,4.3-9.8.6-10.5-3.1-7.1-2.9-.5,10.7-4.1,4.6-5.9,2.1-16.8,4.3-.9,1.8-2.5,11-2.8,3-5.7,1.9-7.2-6-.5-3.6,5.1-7.1,6.6-6.8,2.3-5-11.5-12.2-14.9-3.5-17.3-5.4-6.6-2.9-10.8-6.1-8-5.5h-5.7c0,0-5.8,1.4-5.8,1.4l-13.2,8-3.6,1-7.4-1.3-7.9-.2-8.3,1.3-6.4,8.5-9.7,8.3-.9,4-.7,14-1.9,5.3v3.2c.1,0,3.5,9.7,3.5,9.7l.6,5.4-5.3,6.6-8.5,1.7-3.8,2.7-2.2,3.6-1.5,7.9-5.2,3-5.9-.7-4.8-2.8-16.1-3.4-15.1-5.2-6-.4-4.6,5.9-14.7,4.3-7.3.5-3.5-1.9-24.1-2.5h-3.7c0,0-2-3.5-2-3.5l-4.5-4.9-15.3-11.4-8.5-7-9.7-7.1h-14.5s-4.6,1.8-4.6,1.8l-2.9,3.8,4.5,6.6-2,2.5-7.6-1.8-8.7.3-1.8,2.1-20.4,1.3,10.6,7.5,1.1,3.2v6c0,0-2.1,5.1-2.1,5.1l-2.9,4.2-6.5,4.2,12,3.9-9.6,7.7-4.2-.3-26.5-6.1-8.8-1.6-11.7-.3-16.8-3.7-8.5,2.2v3.8c0,0,2.2,9.4,2.2,9.4l2.2,7.3-1.3,4.2-6.7,10.7-26.1-8.4-5.6,4.7-14.6,8.7-5.4,16.8-4.6,4.9-10.5,3-2,5,11.5,10.8,4.1,6-.3,6.3-6.2,5-12.9,13.2-11.8,13.7-5.1,4,4.3,11.5-4.1,3.4-8.9,3.9-9.7,2.4-15.8,1.7,6.5,17.8.4,3.2-2.4,9.2v21.7s-2,2.3-2,2.3l-2.4,5.9-8.4,14.2-17.2,23.1,10.3,4.2,9.3,3,2.5,4.8,2.3,8,.4,5.4-5,8.4-1.6,1.7-29.5-3.5h-4.2s-9.3,1.7-9.3,1.7l-8.2,3.3-5.3,3.8-14,17-5.1,4.8,2.4,6.5-8,12.7,7.6,12.6,4.1,5.5-4.3,5.1,2.8,12.4-.2,8.1,10.6,19.1.3,7.4-3.1,28.1,6.7,4.2,9.4,5,5.2,1.9,8,5.9,6.3,5.8-1.5,8.2-2,3-3.4,8-9.8.4-7.7,2.5,1.7,6.9,7.4,12.7,5.9,9,2.2,5.9-1,6.1-1.4,3.1.4,4.2-.4,8.3-8.1,8.8-5.3,3.5-8.2,1.4-2.4,1.7-3.5,10.5-6.5,6.6.4,2.3,6.9,16.6-2.4,17.1-2.7,5.8-4.5,2.1-3.5-1-4.6-7.9-1.5-4.3-17.5-3.6-7.8-1.2-4.9-7-5.1-5.8-.9-2.5-.8-10.9-1.8-4.8-3.4-1,2.3,6.8-3.3,2.9-4.3,1.4.8,4,1.9.7.7,4.2-.5,6.1-7.6,13.7-2.7,3.3-4.6-1.2-5.5,3.8-5.4.6-2.3-4.3-8.2-5.6-3.6.4,7,6.4-3.3,4-3.1.8-10.9,4.9,4.3,3.2-3.1,3.7-3.9.6-2.5,4-11.2,6.7-17.9,17-9.5,4.8-6.6,5h-6.1c0,0-7.4,4.2-7.4,4.2l-19.1,3.8-12.9-1.6-8.8,1.5-5-2.9.2-4.5-5.2-.7-1.4,1.4v3.2s-1.7.8-1.7.8l-6.8-1.8-1.8-1.6,2.2-3.3,3.9-3-1.7-2.4-7.9.2-4.9-.5-16.1-6.7-3.8-3.6-13-5.7-6-6.1-3.5-6.7v-6s1.1-9.6,1.1-9.6l2.5-2.4,11.5,3.3,11.8,5.6,1.8-.3,3.4-4.4,6.8-3.6-2-1-10.2,4.1-4-2.2-6.2-4.5v-2.4c-.1,0,2.5-2.4,2.5-2.4l.8-3.2-1.6-3,.5-4.1,4.4-4.3,6.7-4.4,4.7-4.3-1.3-1.8-5.4,2.8-6.3,4.7-7.8,3.9-12.9,4-4.3,5.5-4.8,2.4-8.8.3-2.1-4,1.9-14.3,2.4-7,2.7-4.9,4.5-.8,3-3.6,5.1,1.6,9,1.6,4.2-4.6,5.7-.7,10.2-4.7-.3-.8-11.3,1.2-6.1,1.2-3.3-.8-1.7-3.4,2.3-3.1,9.5-7.5,5-6.3-.4-2.1,1.4-4.3,9.2-7.5,7.6-3.5,2.7,2.9-1.7,9.2.2,3.8,5.4-13.5,5.5-5.5,7.4-1.6,2-2.1-8.7.7-20.8,5.2-8.7,4.6-2.2,3.5-5.9,5.3-2.7,3.5-1,5.1-3.4,2.8-4.7,1-6.2,6.4-2.6,5.2-6.4,4.1-5.3,4.3-2.1,3.1-3.6-1.6-.4-4,.4-6.4,2.9-4.6,1.3-4.5-2.3-4.2,1.3-2.7,8,1.3,5.5-.2,8.8-3.4-1.5-1.9h-11.1s-6.2-3.2-6.2-3.2l-5-6.4-2.5-8.6,1.3-2.5,17-8.8,4.5-4-2.7-.4-6.3,4.9-9.2,3-6.1-4.2-3.2-4.5-2.2-9.5.4-4.9-1-6.4,3.9-2.1,8.9,1.5,9.9-.6,21.7-3.9,14.2,2.2,5.7-.2,8.6-3.4,7.6-.4,5.9,2.5,3.3,2.9.6,3.9,3-1.3-.6-4.8,22.7-5.5,2.6-2.1-9.2-.7-3-4.9,4.4-7.5-5.3,3-2.2,5.5,1.3,4.4-.9,2-4.6,1-10.5.4-6.9-1.8-6.3-1-5.3-2.3-2,5.6-4.9,1.3-13.8-2-19.8,1.3-8.8,2.9-5.8-.3-10.2-4.9-4-3.9-1.8-8,.4-3.5,7.6-1.5h3.9c0,0,3.6-1.8,3.6-1.8l-7.9-3.6-3.3-4.8-4.7-1.6-3.3-4.1-1.1-6.2.7-4.3,2.4-1.4,6,.9,15.7-.8,15,4.3,10.2,2.4,20.3-1.3,11.7-4-2.2-1.1-12.8,2.3h-12s-21.3-4.4-21.3-4.4l-8.7-1.4-9.3.7-4.9-1.3-3.1-4.4,1.7-8.4,4.3-1.8,2.5,2.2h2.9c0,.1,5.4-5.4,5.4-5.4l2-4.5,8.1-4.3,3.5-.4,4.9-2,3.2.5,4.9,3.6,5.6-.2,16.5-3.5,4.8-3.8-10.5,1.3-8.7,2-5.6.6-.9-2.5,5.1-4.6,1.3-4,3.5-1.7,11.9-.7,5.6-1.1,24.3,2.1,9.6,3.7,7.2-1.4,1.6-1.4-7.4-1.5.2-3.9,11.7-3.1,13-.7-2.4-2.5-28.2,3.9-7.6-2.5h-5.9c0,0-3.7,1.5-3.7,1.5l-10.9,1.8-2.1-1.3,1.8-4.3,9.5-10.6,16.7-4.2,7.8-4.8,12.8-.9,10.8,1.3,5.4,6,4.6,1.9,14.5,7.4-.8-2.2-12.9-10.1-4.8-2.5-3.8-5,.8-4.7,3.6-3.2,13.6-1.8,2.3-1.8v-3.1s-2.3-2.1-2.3-2.1l-5,.2-4.2-1.3-1.4-3.4,1.5-2.3,7.5-4.2,11.5-2.9,13.2,3.2,1.1,1.7-3.3,4.2.6,2.3,3.2.2,6.8-7,8.6-1,7.6-2.5,6.5,6.3,4.9,2.8,2.4,5.2,4.3-2.4,4.7-1.4,6.6-1,11.2,1.3,7.4-.9-4.5-6,1.9-4.2,2.2-1.7,7.4-3,7.2-1.4,4.5-2.8,6.1-2.6-3.2-4.4-6-1.4,11.8-6.6-1.4-1.3-5.5-1.5-9.8,3.9-6.6,4.3,6.3,4.7-4.5,4.7-25.1,12.7-12.2,3.8-5.8-.5-1.7-3.4-2.9-2.5-3.3-5.2-8.9-.4,1.6-5.6,3.7-4.4,6.6-3.4,2.9-4,2.5-6.4,9.4-6.1,13-15.1,11.3-4.9,3.8-5.3,6.7-2.4,5.5-4.1,4.6-.4,8-3.7,4.3-4.4-3.1-.2-11.1,4.1-.2-4.7,1.5-4.8,5.6-4.4,27.6-13,7,5.8,8.7-.9,9.1-7.3,6.7-7.9-4,1.4-4.1,3.2-8.3,4.5-6.4.2-1.6-3-5.9-.2-3.1-2.1-1.1-5.2,5-13,2.6-3.9,10.8-11.1,1.9-6,5.1-3.2,7.2.6,2-.9-2.9-3.9-8.2-3.1-.7-2,25.1-5.4h12.3c0,0,3.3-2.5,3.3-2.5l6.4-1.7,4.6-3.2-2.8-1.4-12.1,3-13.7,2.4-9.9.5-3.8-12.5.7-6.8h3.7c0,.1,0-6.4,0-6.4l3.8-3.9,5.8-.9,6.6-5.1,7.2.7,7.1-.8-2-1.5-9.3-1.9-2.7-3.5,6.2-3.4,3-.3,5.1-6.9,3.2-2.9,4.1.5,5.3-3,5.7,1,5.1-2,7.2-1.4,26.9-.8.4-2.8-5.8-.6-20.1-.5-10.2.2-4.2.8-1.7-2.6,3.3-2.7,1.3-2.9,6.4-7.2,8-4.8,6.8,1.1,7.7,4.4,5.1.5,2.6,1.4,4.6,6.2v-5.8s4.1-4.9,4.1-4.9l-1.5-1.3-7,1.8-5.8-1.8-5-3.6-1.8-3.3,4.5-5-2-1.9-10.2,5.3-7.6,1.3-3.2-.7,1-4.7-1.5-3.7,9-9.3,3.4-1.1,5.9.7,5.6,2.5,8.9-1.9-1-2.5-10.5-.9-3-2,.6-2,6.8-2.2,6.4-3.9,7.9-1.2,6-3,2.6,1.8,4.1,10.8,7.2,8.8,2.2.3-3.5-7.5,4.1-3.9-5.5-5.1-5-8.5.8-2.2,6.8-4.6,9.3-1.2,10.7,3.1,9.3-1,18.8-5.2-6.3-2.1-9,1.5h-25.5c0-.1-2.7-1.7-2.7-1.7l-.9-2.6,2-3.8,2.6-2.1,8.9-3.8,10-.6,9.5-6.8,3.2-5,.9-7.7,5.3-6.3,15.5-3.7-2-4.8-1-5.8,3.1-6.8,3.8-2.7,3.9,2.2,5.1,4.6,7.1,2.6,8.8.4,2-1.4-7.3-2.6-5.8-3.5-1.1-3.5,2.1-1.9,8.4-.3,3.9-2.4.7-6.2,5.3-5.6,19-3.8,1.7,1.4,1.1,10.6-.9,6.9h3.9c0,0,2.3-13.8,2.3-13.8l2.5-6.5,3.6-3.7,9.5-4,3.6,4.8.4,12,1,3.8-1.4,5.1-7.1,11.4,2.8.9,3.3-1.9,9.5-10.9,10.4.3-8.6-6.1-2-3.7-1.6-10,2.2-4,8.9.3,5.1-.6,2.8,1.8,5.2-.2,2-7.2,7.1-.7,7.4,4.6,8.3,3,7.2,4.5,1.4-1.3-5.8-10.6-4.5-3.8-8.3-1.9-9.4-4.6-2.6-3.7,7-1.6,10,1.6,7.7-4.1,2.6,1.1,6.1-2.2,4.8,2.7,2.3-.9.5-3.8,10-2.5,7.2,2.1,4.1,2.2,7.3,12.6,10.2,6.7,4,.6,1.3-2.3-4.3-2.7-1.6-2.6v-6.4c.1,0,1.5-2.6,1.5-2.6l8.9-9.7,8.2-5.1,5.5-.5,7-11.2,4.7-2.6-1.4-2.7-5.8-1.6-1-3.4,6-4.2,6.7-7,4.1-.5,3.2,1.9,9.1,2.9,10.2,5.2,2.3-.4,3.3-4,5.5.6,8.7,2.8,1.1,2.3-3.9,2.6-6,6.7-5.7,7.6-1.5,4,.3,10.4-4.3,6.7.8,4.6,3,2.1,6.2-1.8,6.6-6.3.3-6.6,15.7-18.2,6.8-10,8.6-8.3,5.6-1.8,4.4,5.3-.3,7.1-3.4,4.6,4,2,.9,5.4v6.1s3.8,2,3.8,2l11.2-5.8,3.2-10.7.3-4,3.9-3.8,9.4-.2v-1.5c0,0-12.9-5-12.9-5l-2-2.3,2.9-3.2,8.7-6.1,9.2,1.8,13.2.8,11.2,4,1.7,6.6-3,4.6-11.2,5.3-1.3,2.5,4.2.8,7.8-2.7,2.9,2.2-1,5.8,4,18.1,2.8-9.8,4-3.7-.4-7.4,2.2-8.9,4-5.2,2.8-1.5h10.7s5.2,1.8,5.2,1.8l5.4,4.2,3.6,1.6,10.1,1.6,7.5,3.8,5.4-3.4,4-.6,8.4,4.9.6,4.9,8.2-.4,7.4,1.3,15.7,7.4,2.5,3.5.8,4.3-17.4,5.2-6.7,4.7-12.9,2-46.7-2.1,1.9,3.3,34.1,6.6,2.5,2,.3,4.4,2.4,5.9,3.1,2.2,4.3,1,7.8-.7,4.3,1.1,2.1-1.8-.9-6,1.9-1.4,5,1.6,4,6.3,2.2-3.9,9.2-.3,6.5.6ZM1249.9-588.5l-1.1,3.9-2.8,2.1-7.4,8.1-5.2,1.4-3.5,2.1-7.2-1-3.2,2.8-7.9.2-8.3-2.8-8.3-5.8,14.1-.2,2.1-2.9,6,.3,10.9-2.1,4.4,1,7.9-6.7h3c0,.1,4.1-1.8,4.1-1.8l2.2,1.7ZM1276.7-573.3l-6.9,2.6-4.9-2.1-2.4-2.2-1.5-4.9.3-3,3.1-1.6,7.8,2.9,5.6,3-1.1,5.2ZM1261-571.9l2.4,5.3-2.8,3.6-7.4,4.7.8,1.2-6.9,2.2-2.6-.8-.6-3.9-4,.5-4-1.9v-3.8s2.6-2.7,2.6-2.7l4.9-1.9,3.7.6,10.1-7.2,3.8,4.2ZM1112.3-548.8l5.9.8,8.5,6.2-3,1.7h-9c0,0-3.9-5.4-3.9-5.4l-4.6-3.3-1.2-2.9,3.3-.5,4.1,3.5ZM1093.8-539.1l4.3,3.4,5.8-2.3,4.7,1.8v3.1s-5.2,4-5.2,4l-3.2,5.6-5.3,1.3-2.8-.6-4.3,3.2-6.6,7.6v3.8c-.1,0-15,1.8-15,1.8l-5.3,1.2-6.1-1.3-3.3-2.7.6-1.5,5.7-.7-.3-2.6,2.9-2.5.8-3.3h6.6c0-.1,2.4-2.6,2.4-2.6l4.4-1.2-1.3-4.1,4.7-4.4,1.8-3.2,3-2.1,3.4.3.3-3-1.6-5.1,1.9-4.9,3.2-.3,2.4,4.3,1.7,7ZM1154.6-541.4l-5,2.1-7.4-1.1-2.9-2.6-.2-2.2,2.6-3.1,6.1-1.8,6.9,1.5v7.3ZM1527.8-529.6l-7.1,2-1.3-1.5,1.4-7.2h3.2c0,.1,6.9,4,6.9,4l-3.1,2.7ZM1028.9-508.8l5.5,3.5,6.2-1.6,6.5,3.5h3.1c0,0,4.2,6.9,4.2,6.9l-1.7,2.9-3,1.4-.2,3.4,2.1,4.8-6.9,1.7-8.2.8-3.7-2.2-5.9,4.3-5.5,6.6-8.7-2.6h-6.1s.9-2.6.9-2.6l5-1.7.5-3.3-2-5.9.3-4.8,2.9-2.3,11.5.9v-3.6c-.1,0-6.4-2.4-6.4-2.4l.6-1.6,7.9-1.8,1.2-4.2ZM968.9-443.1l5.2-5.7,5.9-1.9,2.1-4.2v-6s6.9-2.2,6.9-2.2l6.9,4.5,3.7,5.4-.3,5.2-6.8,4.2-5.6,1.9-5.2,4.8-2.4,3.9-2.5.9-6.4-1.2-2.8,3.4-9.7,2.8-4.1-.7-3-3-3.2,4-5.9,1.8-4.8-1.4-11.3,6.9-11.4,1.4-3.9-.7-.6-4.1,12.2-9.1,20.6-2.8,11.4-11.1,1.2-11.9,2.4-4.3-1.8-2.4-3.6-.4-.8-3.7,1.2-4.1,9.3-8.1,5-6.8,6.1-1.6,3.6,1.7v3.6s-3.9,6.6-3.9,6.6l-6.5,5.6,1.5,4,3.5,3.2,2.7,11-4.5,7.3-.7,3.5ZM942.4-466.8l9.4,9.9-.9,7-4.7,3.6-7.9.7-5.7-.2-6.7-4.1-5,2.5-3.7.4-5-1.8-1.7-3,4.5-3.9,1.9-3,5.7.2,4.8,1.4,1.7-7.7,6.9,1.2-1-6.7,5.8,1.1,1.7,2.4ZM893.9-423.7l2.6,1,6.4-.4.7,2.2-2.5,2-5.7,1.3-4,4-8,.8-7.4,4.6-6.5,1.7-2-5.8,3.6-4.6,5.3-.2,3.8-5.4,6-1.6,7.7.4ZM859.8-398.9l-5.7,3.4,1.5-6.1,2.5-6.2,4.1-3.5,2.5,1.3-.2,5.8-4.6,5.2ZM851-283.8l-3.9.5.3-2.8,2.9-2.6,1.4-3.9,2.6-1.6,4.2,2,.5,3.5-1.6,3.2-6.5,1.9ZM855.9-275l-3.4.2-.3-2.6,4.6-3.9,8.4-.7-.9,3-8.5,4ZM834.6-257.5l-2.6,2-5.4-.5.4-5,3.1-1.4,5.7,1.6-1.1,3.3ZM808.1-209.5l-2.1,1.8-5.2-1.4-9.9,1.2-4.2-1.7,2.8-3.3,8.7-3.5h4.9c0,.1,5.4,4.4,5.4,4.4l-.4,2.6ZM694-133.5l-5.1.2-3.2-1.4,7-2.8,11.2-2.7,4.4.2-.7,4.3-13.8,2.4ZM679.2-112.7l-9.6-.9-4-3.8,5.8-2.3,5.9-1.3,3,2.5.5,4.1-1.6,1.8ZM545.9,29.3l-4,.8-3.3-.7.9-6,4.1-1.3,2.8,3.2-.5,4ZM553.8,78l.5,7.5-4.3-.5-2.7-4.7v-4.3c.1,0-1-4.5-1-4.5l2.7-2.5,2.9,3.9,1.9,5.1Z"/>
    <path id="LV" class="st1" d="M1617.7,241l5.7.2,2.2,1,2.4,4.9,13.8,6.9,2.9,4.3v5.1s-2,2-2,2l-1,5.1.8,4.8-1.6,8.4,7.7-1.5,4.2,2.6,1.6,5.2,6.1,5.9,1.4,2.8,5.3,3.3,5.4,9.9,3.3,7.9-1,7.4-5.4.7-5.8,3.7-10,10.6-1.7,7.1h-13c0,0-12.7-1.5-12.7-1.5l-4.6,1.2-4.9,6.6-2.2,1-7.1,1-1.1.8-9.8-2.1-6.4-2.8-4.2-3.8-7.1-5.2-11.3-5.9-11.6-6.8-4-1.5-18.8-2.7-6.9-1.3-7.6-7.8-2.8-4.5-3.1-.8-6.4,2-7.2,5.5-19.2,2.3-5.8-1.9-9.8-2h-9.6c0-.1-20.4-1.9-20.4-1.9l-3.2,2.4-3.6.5-4.2-3.5-4.6-.9-4.7,1.3-8.9.3-10.8-1-13.7-.7-16.1,5.3-3.6.8-14.9,8.2-11.7,7.6-3.4-11.8-3.1-23.7v-11.8c0,0,7.7-7,7.7-7l3.5-5.4,1.4-7.1-.3-6.6.9-5.4,10.1-15.8,9.8-1.8,12.9-4.5,14.6-3.8,5.9,8,20.8,12.5,5.5,4.2,9.9,14.6,18.6,7.2,13.1-2.6,14.7-10.6,3.9-5v-4.7c0,0-5.8-20.1-5.8-20.1l-4.6-8.7v-5.4c0,0,1.9.2,1.9.2l4-2.7,14-5.1,6.1-1.3,8.7-3.9,6.4,4.1,4.7-2.8,12.2,5.9,7.4,1.7,4,2.8,9.7,1.7,2.5,3.3,15.1,11.4,8.5,3.4,3.5.8,16.3-5.2h3.1c0,0,3.6,1.8,3.6,1.8l7.8,2.4,7.9.5Z"/>
    <path id="IT" class="st1" d="M878.3,1172l1.9,2.4-.8,3,.7,3.6-4.7-3-6.7,1.6-4.2-.3-1.3-2.7.9-1.6,6.5-.4,2-.8,4,.3,1.8-2.2ZM843.8,1296.2l2.9,4,7,16.4.8,3.5-2.5,6.3-5.6,8.3,1.2,6.9,2.5,4.2.6,4.7-.8,5.8-2,35.8-2.4,11.8-4.1,1.7-5.5-1.7-7-3.1-6.2,1.3-5.2-2.7-1.3,12.3-2.8,5-4.5,3.2-4.4.2-4.6-1.1h-3.9s-3-2.3-3-2.3l-2.5-4.1-7.9-11-1.8-17.3,2.4-5.1.5-5.3-.7-4.6,4.9-.7v-6.7c0,0-2.9-3.6-2.9-3.6l-4.9-1.2-.6-3.8.4-3.7,2.4-2.5.7-3.3-.4-10.2-3.6-3.7-1.5-5.7-1.9-3.6-3.3-3.6-3.7-3-2.3-2.9-.8-7.5,1-6.2,2.2-2.3,3.7,3.1,8.7,1.4,5.6-1,6.8-2.8,6.5-3.5,9.2-10.1,5.8-2.1,2.9-2.7.8-3.6,2.5-.9,3.1,3.4,3.7.3,5.8,2.8,4.8,6,4.3,2.3-3.1,5.4,4.4,3.1ZM770.1,1286.7l-1.7,2.9-2.6-.2,3.1-6.4,2.8-1.4,1.3,1.3-3,3.9ZM1078.9,1305.9l-2.4.6-2.3-1.7.8-2.4,5.1,1.4-1.1,2.1ZM786,1410.4l-2.9,6.2-3.5-4.4v-4.8c.1,0,6.4,3,6.4,3ZM1180.5,1461.3l-4.8,9.9-12,17.6-1.8,8.4-4.1,12.1,1.5,7.8,4.5,3.2,2.2,2.4-3,2.3,3.8,4.4,3.1,2.6.7,5.2-5.7,5-2.2,2.7-1.7,6.7.9,6.1-6.2-.3-6.4-1.8-6.3.9-9.2-3.5-6.4-2-8.2-10.9-6.3-4.6-6.7-3.6-6.6-.2-6.6.4-6-2.2-12.4-7.4-12.9-5.9-11.1-8.1-7.3-1.7-6.7-4-2.9-.3-6.3.5-3.3-.3-3.3-1.4-6.6-4.7-4.4-6.5-1.2-2.9,2.4-7.5,2.9-7.2,6.2-3.5,3.6-4.7,6.9,7.5,3,1.8,2.9-.4,5-2.7.2-3,5.5-3.8h7.2c0-.1,3.4.5,3.4.5l2,3.4,6.1,1.5,11,6.3,6,1.2,8-2.7,6.2-1.1,13.2,1.4,7-1.7,5-.2,7.1-2.6,5.2-4.2,5.9-1.4,7.5.2,7.7.9,3.1-1,2.5-2.7,3-1.2,3.4.8,8.4-4.7,3.8-.3,3.8,1.7-3,3ZM991,1554.5l-2.6.7-3.6-2.1.2-4,4.3,1.4,1.7,4ZM1037.4,940.9l-.7,3.6-5.9,3-8.1,6.2-.8,3.5,1.3,2.3,4.9.5,7.6,2.4-.6,2.8-6.4,5.9,1.6,4.1,4.8-.4.8,1.1-1.7,8,.8,1.4,4.3,1.2,3.2,1.9,6.2,5,2.6,4.1-1.4,1.4-6.6.4,3.1-2.5-8.9-8.9h-3.7s-4.6,3.9-4.6,3.9l-14-3.7-2.5,1.6-1.7,3-4.4,3.8-6.6,1.7-7.2,4.2-13.5,5.3-3.5-.4,5.1-4.9h-2.3c0,0-7,3.4-7,3.4l-4,2.9-1,4.9-.6,8,3.4,2.1,6.4,10.5,7.3,4.5-2.6,7.7-4,3-3.7-2.2h-2.1c0,0-1.1,7-1.1,7l4.3,18.4,5.8,12.9,5.2,5.6,11.5,8.7,11.8,4.5,21.9,14.6,11.7,4.6,3.2,2.5,7.8,11.3,7,13.1,8.1,20.6,5.4,10.1,10.2,11.5,20.6,16.3,18.5,11.9,17,7.3,12.9,1.2,30.1-1.9,5.3.7,5.8,2,1.8,5.2-1.7,3.5-6.1,3.7-6,5.1v6.8c-.1,0,6.3,4.8,6.3,4.8l30.4,12.5,30.9,10.4,9.8,5.4,11.6,8.4,27.3,11.4,5,5.7,17.1,12,8.1,9.3,2.1,7.3-2.8,7.5-1.1,5.3-2.2,5.2-7-1.9-8.2-5.2-13.7-21.5-21.4-2-4.5-1.5-7.9-3.6-2.8-5.4-2-1-8.2-.6-5.3,3.5-5.9,8.3-6.5,11.9-6.1,17.5.2,7,4.7,6.8,12.8,3.7,10.1,6,6.9,6.3,1.8,15.3,3.6,8.7-3.8,5-8.2-1.2-10.5,3.2-7.2,5.7-2.7,5.4,2,13.9-1.1,5.3-13.7,10.2-6.8,10.3-4.1,9.1-18.4.3-4.8-5.9-.8-8.9,2.7-5.5,6.6-2.6,3.7-11.4-2.1-8.2,4.7-6.2,5-1.5,7.1-1.5-.2-11.4-6.1-5.1-2.6-7.3-3.7-13.4-10.7-17.1-6.2-15.3-4.5-7.5-6.2-3.9h-10.6c0,.1-5.4-.9-5.4-.9l-19.6-10.5-1.4-1.6v-2.8c-.1,0,2.7-4.3,2.7-4.3l-5.2-11.2-4-4.6-4.2-2.4-8.3,1.5-2.9,1.2-5.4-.4-4,2.1h-2.3c0,0,6-8.1,6-8.1l-1.9-1.9-6.8-3.3-11.3-.8-3.1,1v-3.6c0,0-11.5-16.2-11.5-16.2l-7.4-6.6-3.5-1.2-6.1,1.5-10.7-2.9-6.3-.6-3.4.7-5,2.2-2.7-1.4-1.1-2.2-10-6.7-12.1-3.7-24.5-21.4-7.6-8-15.1-8.8-10-12.8-7.8-4.7-11.2-3.7-5.7,1.9-2.5.2-2.2-1.7,4.2-2.5-1.2-4.9-13.2-12.7-7.5-4.1-2.2-2.5-3.4-5.7-3.5-1.3-2.9.2-4.1-.9-.2-6.1.5-4.7-.8-4-4.5-10.5-7.3-8.9-5.2-21.3-3.4-6-7.8-4.5-17.2-5-24.3-13.6-5-.2-14.4-5.3-8.8-.9-11.1,4.8-13.2,13.2-10.6,13.7-4,2.7-14.3,4.7-12.8,2.3-.9-6.1,5.5-6.4,3.1-4.3,1.2-3.1-2.4-5.1-2-.2-12.1,2.6-2.8-.7-9.2-3.9-9.9-4.9-3.7-3.5-1.5-3.5.9-2.3-2.9-5.2,5.8-10.5,3.7-2.5-2.3-6.9-2.9-2-7.4-1.5-3.4-2.4-2.8-6.3-3.1-2.9-.5-3.1,3.3-1.7,8,.5,7.2-5,5.1-1.5,1.8-6.9,1.8-3.3-7.6-6.2-2.9-5-4.5-5.6-4.1-2.5-1.1-4.4.7-2.2,7-3.4,4.1-3.6,5.8,2.8,10.4-2,6.4-2,4.5-2.1,2.8.4,10.5,3.1,10.5-6,1-2.3,5.5-6.9v-1.7s-2.6-4.3-2.6-4.3l7.6-5.4,3.3-3.9,3.6-2.6h2.7c0,0,1.2,2.6,1.2,2.6l.2,7.5,1.2,2.3,5.9,5.4,4.2,3,9.4,2.1.5,1-2.4,4.1,5.9,4.8,1.2,3.6,2.7,2,3.6-1,1.1-1.9-2.9-6.7,1-4.3,2.4-3.2,6.6-7.4,2.2-4.2-.2-11.9,2.3-1.3,6.5.8,3.3,8.4,2.7,2.7,5.9.6,7.6-3.2,5-1.4,2.9.4,5.8,7.7,2.1.6,3.3-1.6-4-10.5-2.5-3.9,2.1-7.3,5.6-1.4,4.2,3.5,4.8,1.1,3.5-.2v-4.3c.1,0-2.2-2.9-2.2-2.9l.2-4.4,1.9-8.2,1.4.6,11,.5,3.9,3.3,3.7,1.1,5.2.3,5-1.8,1.8-3.9,3.3-4.8,5.6-2.5,9.8-.5,4.9-.9,13,.6,9.9-3.4,10.2-2.7,1.8,1.3-3.3,4.8,1.5,3.1,6.4,6.2,6.9,8.3,4.9,1.9,11.7,1.5,5.6,1.3,19.3,3.2,9.6.9h7.3c0,0,11.2,2.2,11.2,2.2ZM986,1105.8l1.3-3.2-.8-2.3-3.3.5-2.1,3,1.8,2.5,3.1-.5Z"/>
    <path id="IL" class="st1" d="M2352.1,1580.5l-3,.4-6.6,3-1.8,2.6,1,15.5-3.9-.3-5.1-3-2.8-3.6-9.8-1.6-6.6,4.8-2,7.8v3.6c-.1,0-1.5,7.6-1.5,7.6l1.5,4.7,2.6,10.9-1.4,4.6,1.9,1.5,3.8-1.4,4.4,1.3,4.4,2.5.5,1.7-2.7,1-6.2,4-4.1,4.6-2.7,13,2.4,2.8,10.9-1.1,9.5-3.7,7-3.9,2.4.2-.6,15.7,3.1,6.2-1.9,9.5-2.5,7.8-5.5,21.3-1,6.5.8,2.3.7,11.9,1,3.4-2.8,10.4-2,26.8-3.4,5-2.7-5.4-11.2-26.3-6.1-13.2-9.5-16-3.5-9.5-7-14.5-5.6-10.5-6.6-13.4,5.2-5.4-.5-4.4,8.6-10.4-3.3-3.7,8.7-19.8,4.4-19.1,2.9-26.5,2.8-13.5,2.8-8.9.7-7.4,6.4-.6,5,.7,5.8.2,4.2-2.8,1-8.3,5.1-1.7,5.5-3.7,6.7-6.4-.8,6.4.5,3.3,3.7,5.4,1.6,3.6-1.7,3,1.6,5.7,2.2,3.1-4.8,10.6-.4,3Z"/>
    <path id="IE" class="st1" d="M13.5,468.1l2.8,4.5-3.7.8-3.8-.5-1.9,1.5-.2,2.9,1.1,3.7,2.4,2.6,3.1,12.5,2.4,4v11.7c.1,0-1.1,1.5-1.1,1.5l.7,4.1,3.9,13.2.4,10.3-5.5,7.5-3.8,9-1.2,7.6-6.8,8.8-6,3.5,6.6,6.2-5.8,2.7-6.2.8-6.7-1.6-4.3.2-5.6,3.2-1.2-.6-2.3-5.1-2.1,5.2-4,1.7-6.7-.4-11.3,1.3-4.4,1.5-3.4,5-3.9,2.4-10.6,2.7-4.3,4.3-5.4,2.5-4.4.7-7-4.9-4.2.9,1.5,5.2-.9,3.4-3,1.7-3.5.3-5.8,3.5-7.4.9-4.2,3.2-24.7,5.3-8.3-2-3.7.4-10.4,3-4.9-.6,6.8-7.5,8.7-3.8-1.8-1.6-16.2,2.6-5.7,2.2-5.6.6,2.8-3.4,7.5-4.7,6.4-3.1,2.9-2.7,7.8-3.1-24.8,6.3-6.3-.8-1.4-1.8-5.1.8-1.6-4.4,7.9-6.6,4.5-2.8,10.3-3.7,2-2.7-2.2-.9-14.8.6-7-.6,2-4.5,7.6-4,7.5-.2,6.1,2.5,8.3-.7-3.3-2.6-.2-5.3-2.5-1.8,3.5-2.4,4-1.5,6.8-5,2.4-.8,12.8-1.2,13.9-2.6,13.8-3.6-6.8-2.1-3.2-2.7-5.7,5.4-4,2.1-11,1.1-8.2-2.4-3,2-7.4,2.6-7.6.6,9.2-4.9,11.8-8.3,6.5-7.2-3.2-3.2,8.7-9.4,3-1.7,5.2-.2,7.1-2,3.5-2.8-5-1.8-5.2-1-16.4.9-5.3-2.4-.8-3.2-4.8-.7-6.2.9-2.4-1.4,4.2-3.3-5.1-.8-5.2.6-4.2-1v-2.1s2.1-2,2.1-2l-2.4-2-.4-2.5,2.8-1.2,3,.4,6.2-1.8,7.9-.8-6.6-1.8-2.5-1.6.7-4.4,8-3.4,8.3-1.5.3-4.7-8.3-.7-8.3,1.7,1.2-4.6,2.3-4.2.4-5.7-3.9,1.2v-4.2c-.1,0-1.6-2.9-1.6-2.9l-5.8,1.9.4-3.8,1.8-2.6,3.1-1.1,8.4.5,5.4-1.9,7.6-.5,12.1.7,7.9,5.6,7.4-4.9,12.4,1.6,7.7,2.1,2.1-.6-.9-3.9-2.5-2.7,3.6-3.5,7-3.6,6.4-1.5,2.8-1.4,2.1-4.6,3.2-3.8-15.9,1.9-14.8-4.6,2.6-3.2,3.3-1.8,5.6-1.3,8.3-6.7-1.4-4.7,1.1-3.5,3.4-2.2,2.8-5.6,6.7-.8,6.5-2.2,9.9-.2,2.2-3,4.7-.5,4.4,5.4.5,3.1-4,4.2,2.2,3.8,5.3-3.3-.8-6.1-1.3-3.1.8-3.4,3-2.1,7.7-1-2.9-3.9,5.8.5,4.3,3,9.2,4.3-4.8,3.7-5.8,2.6-2.4,2.8-7.9,4-1.3,1.5-2.9,7.9-5.2,6.8-9.4,3.6-6.6-.5-.8,3.3,6.7,3.2-2.5,2.8-12.5,3.6-5.1,3.7,1.2,2.5,9.4,7.4,1.6.8,1.2,4.3,8.5,1.8,3.4,2.7,3,.7,6.7-.2,2.6,1,10.2-7.4-2.1-3.9,7.9-6.7,5.5,2.2,2.8,2.9.7,3.8,4.3,4.6,4.7.7,1,1.3-1.1,4.9.6,1.6H4.3c0,0,5-2.2,5-2.2l4.2.4ZM-170.8,478.2l-3.8-.5-1.6-2.5-9.9-1.2,4.3-2.4,2,.7h7c0,.1,1.9,1.2,1.9,1.2v4.7Z"/>
    <path id="HU" class="st1" d="M1462.3,817.9l6.2-.2,4.3,7.5,2,1.9,3.9.8,5.3,2.3,3.9,4.5,5.1,1.8,4.7-.4,3.9,3.1,1.1,4,2,3.1-1.1,1.5-7.9,7.9-5.5,2.6-3.8-.8-3.8.7-6.3,2.3-2.1,2-2.5,4.3-3.3,3.6-5.2,4.3.7,6.9-5.8,5.8-2.9,10.5-5.7,6,.2,5-2.8,5.4-3.9,5.6-.6,2.3,1.4,3.1-4,3.6-4.4,2.6-2.6,7.7,1.3,4.7-3.6,1.3-1.4,5.5-5.4,4-10.8-1-3.9.9-1,3.3-3.4,3.1-2.4.8-5.8-2-11.7,2.3-1.9,1.6-4.5-2-12.1-1.1-4.6,1-6.3-.3-5.9-1-4.2.9-3.3,4.3-3.1,2.4-5.7,3-3.5,1.2h-3.3c0-.1-3.3-1.9-3.3-1.9l-3.3,3.6-5.6,1.8-3.7,1.4-5.8.8-3-.5-4.7,6-6.4,3-4.1.9-3.7-.7-17.2-.2-8.4-1.2-5.6-2.3-3.8-2.6-2-2.8-4.3-1.7-6.5-.5-5.3-2.8-4.1-5-5.3-3.9-6.5-2.9-5.3-4.1-4.1-5.3-7-4.8-9.8-4.2-2.9-.9-.7-1.4-7.2-7.3v-2.7c-.1,0-2.9-2.5-2.9-2.5l-2.1-6.7-1.5-1.8-10-.3,7.7-6.9,3.9-1.9,6.3-.3,1.3-7.3-3-1.4-1.6-4.8,2.1-3.1-2.1-5.9.3-2,3.7-.3,5.3-2.8,2.2-5.6-2.4-4.6-11.1-2.9,1.7-2.4,3.9-3.3,5.1.5,5.6,3.3,11.7-.7,4.8-.8-2.8-8.1,2.1-4,.2-3.9,2.7-2.7h6.7s2.2.9,2.2.9l9.2,6.4,8.6,4.8,6.8,2.4,19.9.2,29.8-1.8,2.3-4.2-1.8-2.5-.3-3,1.7-3.8,6-3.2,18-1.6,10.2-2.5,1.2-3.3,3-3.2,3.1-.7,4.5,1.4,5.6,2.8,4.8,1.4,2.5-1,8.6-4.8,10-4.8,5.6-12.6.5-2,7.7-1.5h11.5c0,.1,10.7,2.5,10.7,2.5l6.6-.4,9.2-2.8h3.6s6.3,3.5,6.3,3.5l4.2,4.8,5.2,4.5,2.4.5,17.2-3.7,1-.8Z"/>
    <path id="HR" class="st1" d="M1314.2,975.3l-.2,4.2-2.6,1.9,3.4,4.3,3.6,7-1.2,3.5,2.2,2.7,5.6,1.9-2.1,3.9.3,4.2,5.1,3.9,9.9,3.6,3.1.6,4.1,3.4-.3,2.5-9.6.4-3.8-1.7v2.8c0,0-3.5.9-3.5.9l3.1,10.3-1.7,4-2.8-.5.2,3.1-3.5.3-5.7-1.1-2.8-2-.9-3.9-2.1-3.1-4.8-3.2-9.3-.4-11.1-2.9-7.7,1-7.6-1.3-6,4.1h-3.2l-7-5-2-.3-5.4,2.6-12-2.5-3.5-.4-2.4.9-4.6-.9-11.6-6.5-6.2,5.1-13.9-1.1-3.8,3.5-4,6.5-3.5,3.2-3.4-1.1-4.2-2.8-7.5-7.3-3.6-1.3-4-.3-5.1,2.4-.7,20.3.5,5.7,8.1,5.2,9.8,9,3,1,1.7,2.9,6,16.2,5.1,5.6,4.5,4,5.4,3.5,6.9,5.6,7.4,8.4,10.9,8,10.6,8.2,9,2.8,1.5,1.5.7,6.4,1.2,2.4,6.5,6.6,12.9,9.7,2.2,3.9-3.6,2.7-2.7-1.5-12.1-9.5-11.3-6-13.2-11.3-16.6-4.3-11.5-4.9-6.6.8-7.2,1.7h-4.6c0,0-3.3-.8-3.3-.8l-2.6-3.1-.6-5.5-6.9-4.9-9.2-4.7-8.9-6-18.2-16.4-3.8-5.3,5.7-1,2.7-1.1h4.6c0,0,.4-2.5.4-2.5l-6.2-3.4-16.6-13.6-5.1-6.5-1.2-7,.3-9.6-3.3-6.9-12.6-8.8-4.7-4.6-8.9-2.7-3.8.3-2,3.5-1,7.7-6.9,10.2-5.8,10.2h-5.6c0,0-7.1-9.7-7.1-9.7l-6.6-7.3-2-7.7-5.8-15.7,3-2.2,2.2,2.5,14.2,2.9,2.9-1.4,2.7-3.8,5.1,1.9,10.4-.6,4.6.3,2.9-1.6,3.6-5.6,1.2-3.2,3-.4,1.1,2.6,7.2,6.3,6.2,2.5,5.5-2.1,8.5,3,7,.5,5-1.7-3-4.7-.5-4.5,3.1-3-4.6-3.6v-1c.1,0,9.1-4.2,9.1-4.2l8.8-2.4,1.9-4.5v-5c0,0-1-4.1-1-4.1l-4-3.8-.4-1.9,1.9-3.8,7.6-2.2,7.6-2.8,3.3-1.8,3.1-4.2,2-.7,6.4.5,1.2-1-1.5-5.9,4.1-3.2,5.6.6,4.8,1.5,2.9.9,9.8,4.2,7,4.8,4.1,5.3,5.3,4.1,6.5,2.9,5.3,3.9,4.1,5,5.3,2.8,6.5.5,4.3,1.7,2,2.8,3.8,2.6,5.6,2.3,8.4,1.2,17.2.2,3.7.7,4.1-.9,6.4-3,4.7-6,3,.5,5.8-.8,3.7-1.4ZM1104.2,1037.3l-6.4,1.4-3.3-2.4-1-2-5.4-.6-4.2-4,4.3-3,2-4.9,3.4,2.9,4.3,5.5,2.1,1.5,4.3,5.5ZM1088.9,1057.3l-3.7-.6-2.1-5.5-4.8-8.9-.7-2.5,1.9-2.5-.3-2.5-3.5-7.8,3.7-1.5,1.1,5.4,1.6,3.1,4.2,3.8-.2,6.3,1.6,9,1.4,4.1ZM1106.5,1051l-3.6.3-4.6-.9-1.1-1.9,1.3-3.1,3.4.2,4.6,5.4ZM1127.8,1077.4l-1.2,1.7-7-5.2-2.5-2.6-4.7-3.2-1.8-3.7-7.2-7.5,5.3,2.9,2.3.5,6.2,4.8,6.2,6.1,7.2,5.3-2.7.9ZM1130.1,1103.4l-2.7,1-14.2-13.6,3.3.5,13.7,12.1ZM1131.6,1094.6l-6-1.9-3.4-4,9.3,5.9ZM1139.6,1100.1l.5,3.7-3.8-2.8,3.3-.9ZM1219.2,1143.6l-8.4.2-7.5-1.1-3.8-1.9,1-4.4,8.2.3,12.6,1.8,3.3,2.2-5.4,2.8ZM1242,1152.5l-3.7.7-23.9-.3-7.1-1.2-9.7-4.3,7.7-1,7.3.9,2.4,2.4,19.7,1.8,7.2,1.1ZM1268.8,1166.6l3.8-1.2,3.4.8,2.5,3.6,11.6,6.4,4.6,3.1,10.2,5.6,7.4,2.4.3,2.3,4.9,5.6-10.5-5.9-10-6.6-19.1-10.1-13.1-2.4-18.4-8.1-11.7-2.8,4.3-.7h5s28.1,10.7,28.1,10.7l-3.3-2.9ZM1213.6,1160.9l10.1,1.7,7.2-.9,6.7,1,4.3,2-4.2,1.2-6.1-.8-6.6,2.1-6.1-1-4.2-2.9-1.1-2.3ZM1266.4,1174.7l7.7,4.3-22.1-5.5,4.7-.7,9.6,1.9Z"/>
    <path id="FR" class="st1" d="M615.9,753.8l1.8,2.1,4,.9,3,2.2h5.9s2.3-2,2.3-2l6.2-.6,5.3,2.6,5.9.6,4,3,2.3,4.7,8.7,10,2.1.4,3.6-3,2.1-.4,5.8,1.7,1.2,3.5,4.9-.3,4.3.8,5.8-1,4.6-1.5h2.4s4.1,4.1,4.1,4.1l4.5,1.5,9.7,1.2,10.5,1.9,7,2.3.6,5.5-10.6,11.9-4.2,3.9-1.9,5.6-1.1,8.6-2.7,8.2-4.2,7.8-1.4,5.8,1.4,3.9-.5,6.1-2.4,8.3-.2,6.3,2.1,4.2,2.7.9-6.1,2.9-3.6,5.8-3.9,1.4h-7.3c0,0-3.6-3.5-3.6-3.5h-4.3s-4.3,2.3-4.3,2.3l-3.4,3.7,1.2,2.1,3.3.5.9,1.9-2.4,3.5-16.4,16.6-8.6,3.5-.9,1.4-1.1,10.7-12.7,9.1-4.5,9.6-.4,1.9,3.4,3.1-1.2,6.2-3.1,2.6-3.4,1.5.2,4,6,.2,5.8-2.9,3.7-3.8-2.4-3.5.2-1.5,4.4-3.8,5.5-2.3,7.8-.5,9.5,1.3,1.6,6.4,1.8,2.4-2.1,6.9,6.9,7.1,3.1,2.2,3.8,5.7-4.1,3.6-7,3.4-.7,2.2,1.1,4.4,4.1,2.5,4.5,5.6,2.9,5,7.6,6.2-1.8,3.3-1.8,6.9-5.1,1.5-7.2,5-8-.5-3.3,1.7.5,3.1,3.1,2.9,2.8,6.3,3.4,2.4,7.4,1.5,2.9,2,2.3,6.9-3.7,2.5-5.8,10.5,2.9,5.2-.9,2.3,1.5,3.5,3.7,3.5,9.9,4.9,9.2,3.9,2.8.7,12.1-2.6,2,.2,2.4,5.1-1.2,3.1-3.1,4.3-5.5,6.4.9,6.1-2.8,1-1.4-1.3-1.8,2.5-6.1,2.3-4.2,2.3-16.4,13.9-7.8,4.1-2.9,7.1-4.5,3.9-4,1.9-10,2-10,4.2-4.6-1.8-11.8.2-7.6-5-14.3-3.1-4.9-7.3-6.5-.5-4.2.2-2.6-1.1-.8-4.9-4.5,1.1h-3.4s-3.6,2.1-3.6,2.1l-7,1.3-4.5-.9-13.6-4.3-8.2-1.4-3.3-1.5-2.8-3.7-3.3-1.9-7.6,1.9-6.6,6.4-27.8,16.9-5,7.1-5.8,10.4-.4,4.8,2.8,15.5,5.9,8.1.8,1.9h-3.2l-9.9-2.3-4.2.7-4.1,1.7-6.1,1.3-1.7,1-.9,3.3-4.5-.3-10.5-2.8-9.4-1.9-5.5,2.2-3.5,2-2.5-.3-3.2-4.3-3.7-1.9-8.3-2.9,1.8-3.3-1.7-3-11.3-2.4-3.9,2.9-4.3-5.9-3-1.2-4.6-.2-10.7-4.1-13.2-3.7-3.6-.4-2.4,2.8-1.1,6.9-6.1.2-7.6-.9-6.6.4-2.9-1.7-13,1.9-2.2-.9-6.7-5.1-5-2.5-5.3,1.1-10.1.6-8.2-6.9-1.2-1.9-9.2-.6-12.9-4.5-5.9-2.4-1.8-2.3-2.8,3.7h-3.1c0,0-2.8-2.1-2.8-2.1l3.1-4.9.7-5.7-3.3-1.7-8.3-.9-6.7-2.7-2.1-3v-2.2s8.7-1.9,8.7-1.9l7.9-7.9,7.7-28.6,5.6-33.9,4-6.4,5-1.8-4-4.7-2.5,2.4-2.4,3.7,3.2-31,2.2-11.4,3.7-11.9,7.3,4.7,6.1,4.8,3.1,4.2,3.9,13.9,2.7.2-4.8-18.5-3-5.2-4.7-4.4-15.2-9.3-2.1-5.3h5c0,.1,4.4,1.9,4.4,1.9l-1.8-4.1-2-7.5-2-24.2-8.7-1-4.2-1.5-20.6-10.3-6.9-10.7-7.1-7.9-1.7-3.4.2-3.5,3.8-7.4-3.2-4.6-3.2-.9-2.8-2.3,4.7-6.3,4.2-.7,5.5.8,5.2,2.2,4.1.6-12.1-6-19.7,2-7.8-2.1-1.3-4.4,2.8-1.9,2.6-3.6-2.8-2.6-3.7-1h-5.8s-5.4.8-5.4.8l-1.3-1.5,3.4-4.1-2.8-1.5-9.2,1.5-5.2-1.3-4.8-4.6-5.5.6-3.3-1.8h-6c0,.1-3.3-2.5-3.3-2.5l-20.3-5.3-8.8-.7-8.1,2.4-4.4-.8-3.2-3.4-2.6-5.8-12.9-4.5,2.7-2.9,6.1-.7,7-2,2.6-2.6-5.4-3-4-.7-3.2-3.8,2.5-1.3,6.5,1.1,8.4-.6-3-2.7-4.7-1.3-6.8-.3-3.1.9-7-.4-2.1-5.5,2.3-5.6,9.9-5,24.5-5.4,10.5.8,7.3-1,8.8-3.4,3.9-3,12.4-1.7,11.7,3.2,10.6,11.9,5.1,4,12.8-7,18.9.2,3.9,4,1.6-3.3,3.5-3.9,2.8,1.8,1.4,2.4,20-.7,3.2-.7-5.3-2.8-4.3-6.8-.6-24.9-5.4-7-6.2-11.1-2.8-6.6.8-5.6,7.7.2,6,.8,11.4-2.5,5.5,1.7-.4,5.1,1.6,6.5,4.7,6.7,9.2-.3,9.9,2.1,12.5.3,18.3,3.6,7.8-2.1,7.5-4.5,14.4-2.9,1.1-1.6-8.3.6-7.6-2.8-1-3.1,4-9.1,21.9-10.1,15.7-3,16.4-5.5,8.2-5.7,5.4-7.3,4-3-2.1-2.6,1.1-28,1.5-5,3.1-4.1,4.8-3.2,7.3-3.5,26.9-4.8,4-1.9.6,3,3.4,5.9-1.1,2.7.9,2.2,3.7,4,4.6,3.8,4.1,2.4,4.2-1,5.1-2.5,4.2-.8,3.9,3,2.8,4.3,2.1,8.2,2.2,1.5,8.2.5,6,1.4,1.6,1.2,2.3,8.3,4.1-1.2,10.3.5,4.8.9,6.8,4.7-1.8,6.5,3,3.1-.4,2.6-2.3,3.3,2.1,2.5,9.9.9,9-1,5.6-2.7,2.4-5.9,5.6-3.5,2.2,1.1-3.2,11.1,2.7,2.8,1.6,7.9,7.1.6,6.1,3.6,8,2.7,8.2,7.7,3.8,2.7,10.3-1.8h4.1ZM257.4,982.3l-1.9,5.5-3.5-5.1-4.6-4.4-1-5.2,5.4,3,5.6,6.2ZM829.3,1175.5l-.9,9.2,1.2,2.7,3.1,3.9,2.9,24.6-.2,2-6.1,9.9-1.3,2.9.3,12.2-1,3.3-2.2,3.3-3.7,10.5-3.4,4.8-10.2-5.7-6-2.5-5-4.5,1.1-2.5,2.6-2.6.3-2-9.3-3.8v-2.7c-.1,0,1.9-4.2,1.9-4.2l-1.2-3.4-6.5-.3-.4-1.8,4.5-5.3-.2-3.3-3.3-1.4-3-2.7-1.3-3.7,2.1-2.5,3.6-1.6-2.9-3.7-3.3-.9,3.8-4.3,3.6-7.8,5.3-3.7,9.6-2.4,2.6-1,4.9-4.5,3.2.2,4.9,2.2,2.5-4.6-1-2.9v-8.1s1.5-4.6,1.5-4.6l2.8-.3,2.7,2.5v2.3s1.5,8.7,1.5,8.7Z"/>
    <path id="FI" class="st1" d="M1502.7-480.3l-14.5,6.2-5.8,1.6,2.2,2,10.4.2,3.2,1.5.4,4.3-6.9,14.9.6,3.1,6.2,8.5,8.1,10,29.5,7.4,9.9,8.2,15.6,10.7,7.8,4,.8,1.3.3,7.6-5.7,7.7-5.5,6.5-9.6,14.5-4.3,8,.6,5,1.9,2.6,11.2,9.5,10.2,10.1,5.1,5.7,3.5,5.2,4.9,5,13.2,11.4,2.7,4.2,10.7,14.7,2.2,6.6-8.8,1.3-6.4,2.6,5.4,3.4-2.2,6.1,1.9,8.6-2.9,4.6,1.3,2.6,8.1,1,1.7,6.1-6.9,4.5.5,4.5,6.4,7.6,4.3,2.5,13.2,2.2,2.2,2,2,5.5-4.3,5.6.6,2.1,8.1,9.8,13.8,5,5.1,2.8,3.5,5.9,1.1,7.6-2.6,4.7-6.4,9.2-8.1,3.7,3.3,3.6,19.2,11.2,28.1,12.2,10.7,5.6,9.4,8.6,9.7,6.9,2.4,4.4-2.3,6.9-3,13.2-2.9,5.5-8.5,10.1-13.2,12.6-8.9,10.4-9.9,13.3-10.9,13.5-7.3,6.6-8.4,10-9.8,7.7-9.8,7.1-2.6,3.6-10,6.9-22.3,23.1-5.3,2.5-6.5.6-2.5,1.7-11.2-4.4-7.4,1-4.9,3.5-10.3,1.2-5,1.2-3,1.6-1.5-3.7.3-4.7,1.6-3.2-1.9-1.8-2.3,4.6-.6,5.4-3,2.7-7.7,1.2-8.7-4.2h-3.7c0,.1,5.3,6.5,5.3,6.5l.2,1.9-4.2-.2-4.1,2.1-3.4,3h-2s-3.6-4-3.6-4l-4.6,2-3.7,2.7-8.5,1-4.4,3.5-8.6,2.5h-5s-10.8,3-10.8,3l-2.9,4.3-3,1.6-5-1.2-14.2,2.3-13.4,3h-6c0,0-6.2-1.1-6.2-1.1l-5.5,3.9-5.7,5.2-7.1,1.9-2.8-.6,1.6-2.7,4.4-2.8,2.6-3.8-.2-3.1-5.8-1.5-4.6-3.1-5.1-6.9-2.8,1.5v5.4c-.1,0-1,1.6-1,1.6l-6.2,3.2h-8.5s-1.8-3.8-1.8-3.8l.8-3.6-.7-3.4,4.3-.3.5-3.2-3.8-1.6,2-4.9-2.8-1.1-12.3-1.3-16.1-6-3.7-.3-3.3-5.5-3.4.8-4.6,3.3-8.9-4-1.6-2.5-1.8-8.2-4.3-12.5-.3-5.8,3.3-7,.3-7-1.2-8.1-1.5-4.6,1.8-1.6-3-2.6,4.1-1.1.3-1.5-4.1-6.9-9.8-13.2-6.7-4.6,1.6-14.8-2.8-7.4-7.9-4.4-5.3-13.1.4-7.4,1.7-3.2,9.7-10.2-.3-5.2,7.8-.5-4.6-4.6-2.2-5.7,10.9-2.3,4.6,1.7,9.5-2.3,8-4.3-.6-2.2-4.4-5.7,6.1-3.5,4.6-5.6-.7-4.3,9.4-2.4,9.5-8.9,9.3-4.8,8.9-8.8,4.5-.5,1.1-5.9,7.4-7.9,2.6-1,2.7-7.1,9.3-8.3,4.7-10.5,3.1-3.7.3-3.9,4.2-.4,3.2-2.9,8-2.1,8.4.4,3.8,1.3,3.1-.5-1.2-3.5-2.8-2.1,1.4-2.1,4-1.7-2.7-5.6-4.3-2.7.3-6.3-1.2-6.9-.2-7.9-5.6-4.1-19-6.8-7.2-.5-5.3-5.3.7-4.7-3.7.7-4.9,2.7-7.6-1.9-3.4.5-7.2-11.5-8.4-9.8-7.2-2.6-3.1-3.8-3-8-.3-6.3,2.5-1.6,3.1-4.5-.7-8.2,2.4-6.6-3-4.2-9.5-7.7-4.4-4-4-7.2.2-5.3,4-3.9-3.1-5.9-3.3-1-8.2-.5-1.1-4.3,1.9-4.6-3.1-6.6-2-6.3-.6-4.9,4.6-3.7v-1.3c0,0-7.8-3.8-7.8-3.8l-6-4.4-2.1-2.6-5.7-.3-5.3-7.5-5.9-3.6-9-4.5-18.4-4.3-7.1-.8-8.7-2.6-12.5-5.3-5-2.6-6.7-2.4-2.2-2.1-11.2-6.4-11.9-4.7-1.9-4.6-11.9-3.4,1.8-2.1,8.7-.3,7.6,1.8,2-2.5-4.5-6.6,2.9-3.8,4.6-1.8h14.5s9.7,7.1,9.7,7.1l8.5,7,15.3,11.4,4.5,4.9,2,3.5h3.7c0,0,24.1,2.4,24.1,2.4l3.5,1.9,7.3-.5,14.7-4.3,4.6-5.9,6,.4,15.1,5.2,16.1,3.4,4.8,2.8,5.9.7,5.2-3,1.5-7.9,2.2-3.6,3.8-2.7,8.5-1.7,5.3-6.6-.6-5.4-3.4-9.7v-3.2c-.1,0,1.8-5.3,1.8-5.3l.7-14,.9-4,9.7-8.3,6.4-8.5,8.3-1.3,7.9.2,7.4,1.3,3.6-1,13.2-8,5.8-1.5h5.7c0,0,8,5.6,8,5.6l10.8,6.1,6.6,2.9,17.3,5.4,14.9,3.5,11.5,12.2-2.3,5-6.6,6.8-5.1,7.1.5,3.6,7.2,6ZM1397.4-224.8l-6,2.2-5.5-1.2-1-4,2.8-2,5.6-.9,8.4,1.8-4.3,4.1ZM1261.9-112.6l3.2.8,3.1-2.2,2.7,1-3.9,5.3-2.4.7-5.2-2.9-3.8-4.8h6.7c0-.1-.4,2.2-.4,2.2ZM1304.6,57.3v2.9c-.1,0-6.3.3-6.3.3l-3.1-2.9-2.2-4.9,4.1.5,7.6,4ZM1331.8,69l-3.3.3-5.3-3,4-.8,4.6,3.5ZM1339.7,66.8l6.1,1.4,2.3-.6,3.4,3.2-4.3,2.2.2,2.6,3.3,3.9h-4.7c0,0-4.1-4.3-4.1-4.3l-5.7-3,1.4-4.4,2.1-1ZM1326.7,81.5l-4.2,2.2-1.8-.5-.2-3.6,2.4-1.7,4.6-.2-.7,3.9ZM1317.7,83.6l-3.9.7-2.8-1.8,3.2-2.9,3.1.2.4,3.8Z"/>
    <path id="EE" class="st1" d="M1620.7,117.8l6.8,5,1.3,1.8-3.7,2-1.5,2.6-5.2,1.6-3.2,14.3-4.8,6.8-4.2,3.8-2.2,6.3.4,3.4,9.1,18.6.7,3.4-.4,7,1.4,3,4.4,5.2,5.2,7.7,2.5,5,5.2,3.1-.2,2.7-9.3,2.8-1.3,4.7-3.5,3.7-.4,8.7-7.9-.5-7.8-2.4-3.6-1.9h-3.1c0,0-16.3,5.3-16.3,5.3l-3.5-.8-8.5-3.4-15.1-11.4-2.5-3.3-9.7-1.7-4-2.8-7.4-1.7-12.2-5.9-4.7,2.8-6.4-4.1-8.7,3.9-6.1,1.3-14,5.1-4,2.7-1.9-.2v-2.5s3.7-12.4,3.7-12.4l-.8-9.8,2.4-2.7-1.6-3.1-6.8-1.9-2.5.3-3.6,5.8-5.4,1.6-5.4-2.5-12.1-3.2-3.8-4.5-1.6-4.5-6.9-4.3-3.5-5.2.3-3.6,5-2.5,1.2-2.1-6.8.4-6.4-8.6,2.9-5-2.6-2,1.4-4.8-2.1-5.5,6.2-3,6.2-2.2,13.8-1.3-2.4-5,5.6-.3,8.3-6.2,9.6.9,12.8-4.4,26.2-.4,3.1-2.5-1.6-5,5.1.6,8.1-.6,32,4.5h7.6c0-.1,11.7,4.8,11.7,4.8l6,1.2,16.7-.3,26.3,1.8,4.5-4.5ZM1392.8,163.1l-3.2,3.2-4-2.7-3.6,7.1-5.4,1.3-3.5-1.3-.2-2.6-4.4-6.8-5.2-1.9h-6.8c0,0-5.4-2.8-5.4-2.8l18.6-2.2,1.3-3.3,3.2-3.5,5.5.3,1.8,3.7,8.9,1.4,4.2,4.4,2.3,5.4-3.9.5ZM1415.8,180.1l-3.8.7-10.1-4.3,1.6-3.1,2.4-1.2,8.2,1.7,2,4.6-.3,1.6ZM1380.9,176.2l3.6,1.5,5.9-1.6,6.9.9,16.9,7.4,1.8,2-9,1.1-3.6,4.1-2.5.6-3.8,3.4-5.4,3.3-.9,1.9-11-.2-5.7,1.3-4.2,3.6-.7,6.9-2.6,5.4-3.2,2-3.7.4-1.2-4,6.5-7.6,1.2-2.5-4.1-1-3.8-2.6-7.7-3-1.7-2.5,3.1-.9,2-4.5-7-6.8,2.7-1.1,3.7.2,4.1,2,3.6-2.4,4.7.4,2.1-4.6,6.6-1.6,3.1-1.5,3.4.3Z"/>
    <path id="ES" class="st1" d="M223.3,1139v2.2s2.1,3,2.1,3l6.7,2.7,8.3.9,3.3,1.7-.7,5.7-3.1,4.9,2.8,2.2h3.1c0,0,2.8-3.8,2.8-3.8l1.8,2.3,5.9,2.4,12.9,4.5,9.2.6,1.2,1.9,8.2,6.9,10.1-.6,5.3-1.1,5,2.5,6.7,5.1,2.2.9,13-1.9,2.9,1.7,6.6-.4,7.6.9,6.1-.2,1.1-6.9,2.4-2.8,3.6.4,13.2,3.7,10.7,4.1,4.6.2,3,1.2,4.3,5.9-.7,3,.8,5.5,3.1,1.7,5.4-1.3,6.4-3,8.3,2.9,3.7,1.9,3.2,4.3,2.5.3,3.5-2,5.5-2.2,9.4,1.9,10.5,2.8,4.5.3.9-3.3,1.7-1,6.1-1.3,4.1-1.7,4.2-.7,9.9,2.3h3.2l1.6,4,2.6,1.5,1.1,3.4-4.7,1.8-2.8.3-.8,5.9,4.1,3.2.8,1.8.7,8.6-5.4,5.2-7.6,5.9-37.3,18.9-8.9,9.2-3.4,2.1-28,5.8-19.5,6.2-9.4,2.2-11.7,10.7-5.5,4.3,4.4,1.2,5.2,5.1-1.7,2.3-10.8,4.6h-3.5c0,0-12.6,18.5-12.6,18.5l-11.2,13.3-6.3,5.8-6.5,8.7-13.8,22.3v6.5c-.1,0,6.7,22.2,6.7,22.2l3.9,5.9,5.5,4.9,10.4,4.2,2.6,4.1-3.6,3.9-10.4,7-18.2,9.4-7.7,7.4-1.7,7.2-5.3,3.2-2,10-3.9,8.9-3.4,5-.5,3.7,5.6,5-2.8,2.2-2.8.9-6.4.6-21.6.6-17.5,10.9-8.8,9.7-8.1,18-9.7,10.6-4.3,2-6.5-4.7-8.2-.7-8,1.5-4.2,3.7-6.5,2-6.3-1.8-13.8-1-6.1.2-9.6,3-8.2-2-13.9-1.1-30.1,2.3-3.8,1.1-3.8,4.5-9.8,7.7-14.6.2-13.3,4.9-3.4,3.1-5.7,8.6-1.9,6.3-2.5-1.5-2.1.5-1.2,4.8-5,2.2-4.2.8-10.1-3.9-8.4-5.9-4.5-.4-7-9.1-3-5.8-2-6.3v-4.4s-6.4-2.5-6.4-2.5l-1.4-5.8,4.9-7.5,3.9-3.2-3.4-.6-4.3,4.8-5.1-7.7-21.3-15.1,1.5-3.4-6.5,3.2-11.1-.7-12.9,1.8-2.8-15.6-1.4-6-.3-3.9,3.6-9,3.8-3.6,5.1-7.5,6.1-6.2,9.1-2.4,2.5-4.8.5-4.5-7.3.8-12.5-17.4,3.6-12.1.4-4.1,3.5-3.5,5.3-3.5,4.6-5,2.4-4.9.6-4.5-2.4-3.2-7-1.8-6.9-12.8-1.3-8-5.9-4.5-4.7-7.9,4.5-1.2h18.5s4.5-2,4.5-2l3.6-5.3,3.8-8.7,1-5.3-1-2.2-5.9-5.4.9-4.1,8.7-5.8,2.8-2.6-1.9-4.3.8-4.5.6-8.5.7-2.2-1.6-14.1-3.6-8.2,2.6-3.3,5.9-2.8,4.9-6.7,7-5.6,9-4.5,6.4-5,2.6-3.8,1.8-1-1.5-4.4-3.4-2.6-4.5-1.5-8.1-.5-.8-2,.5-10.7-.9-2.4-2.2-1.8-4.6.5-6.9-1.9-1.8,1.2-8.9-.4-6.2-1.9-2.7,1.6-.9,3.8-3.3,1.9-7.4,1.9-5.9-.2-5.3-1.4-4.3-1.9-11.1,1.1-1.3-.8-9.6,4.3h-3.1c0,.1-3.7-5.1-3.7-5.1l.7-2,4.8-5.7-4.2-7.3-2.9-.3-3.1,1.4-11.8,2.8-8,3.8-5.3,4.2-4.1.9-1.4-1.3v-9.9l6.5-6.6,4.6-4-2-.8h-4.7c0,0,.5-3,.5-3l2.3-1.5,2.3-3.4-4.2-3.7.6-10.7-9.7,3.4-2.4-.5v-4.3c.1,0,5.7-6.5,5.7-6.5l.6-2-6.1-1-4.4-3.2-5.4-7.1.2-3.7,3.5-8.6,8.4-4,8.4-6,11.1,1.2,7-1.3,6.3-3,3.6-.7,5.8-2.6v-3.6s-1.8-2.7-1.8-2.7l1.8-2.5,6.5-3.1,7.3-4.1,8.2-.8,8.4-3.6,5.4,2.3,4.9-.8,5.5,2.8,7.1,6.4,10.7,2.6,8.7-1.9,15.2-.4,7.5.9,13.5-1.5,7.7.6,12.6-3.1,9.6,4,18.7,1.9,11.2,3.3,31,5.4h11.2c0,.1,16-2.9,16-2.9l6.8-2.3,6.1,1.4,9.1-2.6,4.3.5,5.6,3.7,19.9,5.1,5.3-4.3,3.9-.9,14.3,2.6,14.4,5.3,7.5.4,11-1.4,10.6-3.9ZM554.7,1362.6l-1,.7-17-7.2-5.5-.8-1.4-1.1.5-5.5,11.3-.8,9.2,2.7,5,7.2-1.1,4.7ZM491.8,1365.9l5.3,2.1,5.5-1.9,5.9,1.6.8,4-2.5,4.4-3.5,4.5-3,4.9-2.5,5.7-4.9,3.4-4.5,2-9.6-4.2-5.5-1-1.6-1.6-1.4-6.3-2.5-2-3.7-.9-3.2,1.6-4.1,3.3-2.3-3.3-3.5-.6-1.4-2v-2.6c0,0,22.5-15.2,22.5-15.2l6.5-3.4,13.8-3.9.4,2.9,1.9,2.2-2.1,3.4-.7,2.9ZM399,1420.7l-2,3.9-8.4-1.4-1.9-1.6,1.8-4.4,2.4-.5v-3.1c.1,0,2.6-3.1,2.6-3.1l11.9-2.5,2.7,2.1.6,3.1-7.1,6.7-2.7.9ZM407.3,1436.2l-1.2.8-3.7-.8h-5.5l-.2-2.5,1.9-3.6,3.4,3.5,5.3.7v1.8Z"/>
    <path id="GB" class="st1" d="M27.4,199.8l-6.6,10.9-2.4.3-2.2,2.7-6.6,3h5.6c0,0,1.5,1.1,1.5,1.1l-1.2,3.4-7.5,5-5.1,1.9-5.7,5.2h-2.7c0,0-5.2,4.8-5.2,4.8l-2.6-.7-3.1-3.3,6.2-3.2.7-1.8,3.9-2.4-6.4-2.7-2.5-1.8,3.6-3-4.2-1.8-.7-3.7.6-2.8,3.6-2.9,2.9.7,2.9,2.2,7.7-.9-2.7-5.4,2.3-2.4,9.5-3.8,12-6.4,2.9-1,1.8,4.3-.4,4.5ZM-22.5,242.3l5.1,3.5-4.6,5.8h-6.6c0,0-9-4.4-9-4.4l.9-2.2,10.9-1.3,3.2-1.6ZM27.3,253.7l-1.2,6,1.1,5.9,3.1,1.9,8.9,1.3,8.3-.3,1.7,2.6-1.4,1.8-4.9,3.3-7.6,6.3-3.1-.4-.5-9.4-6.2,1.2-4.9-.2-2.7-1.2-5.3-7.9-11-2.3-3.8-5,2.9-3.4,2.8.8,3-2.4-1.4-2.7,11.5-2.5,1.2-4,5.2,1,3.6,4.2.8,5ZM-26.7,277.9h-4.6l-1.6-1-1.6-6.2,1-4.3v-5.2c.1,0,6.9.6,6.9.6v16.1ZM19.2,287.6l-3.2.6-3.9-4,5.4-2,2.1,1.2-.2,4.2ZM-35.2,287.3l-4.3.8-1.8-1.3,1.1-2.2,3.3-.7,2.2,1.2-.6,2.2ZM2.2,311.4l-2.9-.6,5-4.2,1.8,2.2-3.9,2.6ZM41.4,326.6l-19.3,3.4-6.6-.3.9-2.9,5.5-1.1,2.6-8.4-8.1-3.9,1.4-3.8,5.1-1.9h3.8c0-.1,3.4,2.1,3.4,2.1l3.8,4.7,5.3.8,3.5,2-1.2,9.2ZM30.6,359.8l-3.5.5-1.2-5.4,1.6-2,6.4-3.1-2.8-1.1,1.7-3.3,6.9-4,3.6-.6-3.8,7.1-8.9,12ZM23.2,352.5l2.9,14.8-1.7,2.4-8.1,3.1-2.6-.8,2-3.2-2.8-6.5-5.9,4.4-2.1-.5,2.8-7.6,3.5-2.4,3,.9,4.8-3,4.3-1.6ZM71.5,382.9h-6.1s-4.8-2.1-4.8-2.1l-2.6-8.6,1.2-3,2.7-2.6,3.2-.5,4.3,3.2,2.5,5.8.3,5-.6,2.9ZM13.5,468.1l-4.2-.4-5,2.1H-7.8c0,0-.6-1.6-.6-1.6l1.1-4.9-1-1.3-4.7-.7-4.3-4.6-.7-3.8-2.8-2.9-5.5-2.2-7.9,6.7,2.1,3.9-10.2,7.4-2.6-1-6.7.2-3-.7-3.4-2.7-8.5-1.8-1.2-4.3-1.6-.8-9.4-7.4-1.2-2.5,5.1-3.7,12.5-3.6,2.5-2.8-6.7-3.2.8-3.3,6.6.5,9.4-3.6,5.2-6.8,2.9-7.9,1.3-1.5,7.9-4,1.8,2.2,3.8.6,3.5-2,4.4-6.4h5.9c0,.1,6.2-.6,6.2-.6l11-2.9h4.9s6.8,1.6,6.8,1.6h5.1s4.3,4.6,4.3,4.6l2.1,7.2,5.4,7.1,7.2,6.2v3.8c.1,0-2.6,2-2.6,2l-5.7,2.5v2.7c-.1,0,6.9-2,6.9-2l7.6.6,2.6,2.8,2.5,7.5-2.8,2.5-2-3.3-4.9-2.3,1,4.5-.7,6,4.8.7-2.7,6.2-5,1.7-5.8.6-2.7,5-3.2,4.2-4.1,2.4-4.9-.5-4.8-1.9ZM111.4,516.6l2.1,1.2,5.2-.2-1.8,2.6-5.8,2.9-4,2.8-4.8,2.4-2.2-2.8h-2.6c0,.1-3.8-5.2-3.8-5.2l-.5-7.9,5.3-2h7.3c0,.1,5.7,6.2,5.7,6.2ZM265.4,682l-4.3,2.2-2.4,3.5-5.6.7-10.6-5.1v-2.1s6.6-1.9,6.6-1.9l3.7-2.5,8.5,2.5,4,2.8ZM284,46.8l-2.4,6-3.8,1.8-1.3-3.7.5-3.2,4.8-2.2,2.2,1.2ZM271.5,65.5l-1.2.7-4.4-6.4,3.4-7.3,4,.2.2,3.7-2.2.7.6,3.4-.4,5ZM259.3,64l.9,4.4,2.4-1.2,3.6,4.3,4.9-1.7-.6,3.9-3.2,10.9-2.2,5.9-1,6.7-2.2,2.2-1.8,5.3-3.3-1.5,3.8-12.8-2.1-4.6-7.3.9-1.6-3.6-5.8-.4-1-2.9,4-1,3.8.4,5.6-2.5-3.3-8.5-4.6-.8,6.3-7.4,5.2-.6-.4,4.4ZM192,148.6l-4,1.6-1.7-1.3-.3-4-7-2.8-1.8-2,3.6-1.5,5.2,3.7,2.1,3,3.9.9v2.5ZM200.5,145.9h-5.3c0,0,2.8-3.6,2.8-3.6l3.2-.9,6,.4-1.1,1.7-5.6,2.5ZM176.4,158.5l2.9,1.5,8.2,1.5,2.6,1.6-1.5,3.1-3.3,1-6.1-3.1-8.1,1.3-3-2.3-5.3-2v-4.9c.1,0,2-4.1,2-4.1l2.9-.8,4.3.5,4.9,2.3,1.4,2.6-1.8,1.8ZM171,173.2l-5.4.8-4-3.6-1.5-2.6,2.1-2.3,4,.9,2.7,5.8,2.2,1.2ZM182,176.6l-2.1-1-2.7-4.1,6.5-.3-1.7,5.4ZM173.2,190.7l.3,5.1-1.8,3.5-3.7,3.6-9.5,5.1-17.5,11.7-10.4,5.8-2.4,6.7,6.1.8,2.3,1.3-1.5,2-9.3,6.9-2.9,6.2,6.9-.2,5.8-1.2,11.5-3.9,10.8-2.9h5.1c0-.1,9.9,2.2,9.9,2.2l10.8-1.2,29,.8,8.1-1.3,5.3,1.6,4.4,4,4.2,7.4-2.8,4.6-4.8,4.2-4.2,5.8-3.5,9.8-8.4,15-8.1,8.3-3.7,5.9-4.5,4.7-4.3,3-4.6,2-13.1,2.1-8.1,4.1.8,1.1,5.4-1.4,9.7-.5,11.1,5-1.1,4.1-4.6,3.2-10.2.5-9.7,7.1-4.4,2.2-4.6,1.1-5.7-.3-10.3-1.9-.5,1.3,4.6,1.7,26.9,4.1,10.3-4.6h11.5c0,0,21.7,7.8,21.7,7.8l15.1,14.5,8.4,6.4,2.1,4.5,4.1,15,4.7,14.6,6.2,15.9,2.9,4.4,3.8,3.1,19.3,7.1,4.3,2.4,7.5,6.8,7.2,7.3,6.7,5.6,7.3,4.5-3.5,2.3-2.4,3.7,1.8,5,3,4.8,5.9,7.7,5.2,8.4-3.9-2-5.4-.2-9.7-5.8-9.4,1.3-1.2,1.4h9.4c0,.1,20.9,14.2,20.9,14.2l7.1,8.3,4.2,11-2.9,5-4.5,3.2-8.1,7.8,11.6,6.1,5.1-1,2.5-2.1,6.3-6.8,7.2-.6,6.1.4,6.1,1.1,5.3-.4,10.8,2.1,5.5,1.9,13.8,8.8,3,4.8,1.5,6.2.2,6.9-4.8,12-1.6,7.3-2.7,4.7-7.2,5.8-4.8,2.4-2-1-2.4,1.5,2.4,2.9v3.6s-4.2,2.7-4.2,2.7l-4.4,1.1-7.3-1.4-10.2,4.9,7.3,2.5,1.5,2.7-1.8,4.7-4.6,2.1-5.1.9-5.2.2-4.3,1.2,4.7,2.1,2.3,4,2.1,1.1,10.2,1.7h6.3s12.2-1,12.2-1h5.9s2.1.7,2.1.7l-.8,11.4-1.6,1.7-16.2,6.8-3.3,4.7-.9,2.9-9.5-.5-4.4,3-7.7,2-11.8,4.9-4.8.8-20.7-3.2-12.5.3-17,2.8-4.4-.5-6.5-2.7-6.7-1.8-7.7-.8-6.6-2.5,4.1,4.8-9.3,4.6-4.3.9h-4.4c0-.1-9.1,1.1-9.1,1.1l-8.4-.6,1.2,3.3,2.2,2.8-3.8,1.6-15.9-2.2-4.3,2.4-5.8-1.1-5.6-3.4-5.9-2.3-6.2-1.1-5,.3-20.7,5.3-4.2,5.3-2.2,7.5-3.1,6.7-5,5.1-5.8.6-5.3-3.6-10.2-4-3.4-2.7-6.4,2h-4.2c0,0-6.5,1.1-6.5,1.1l-11.4,3.2-4.6,2.2-10,5.9-2.1,1.7-3.8,6-5.5,1.1-4.8-3.9-5.6-1.4-6,1.3-3.7,2-1.6-1.7v-3.4c0,0,4.6-4.1,4.6-4.1l11.7-3,10.5-8,9.8-9.3,3.2-.7,1.7-3,14.5-12.2,1.3-2.8,2.2-9.8,11.6-3.1,5.8-10.1,1.5-.8,16-1.8,11.8.2,11.7,2,6,.2,6.1-.7,4.8-2.7,8.3-9.8,4.6-4.3,5.3-3.9,5-4.5,8.1-8.3-5.4,2.9-10.3,7.1-11.9,2.6-5.2,2.7-9.1,6.1-1.8.5-13.5-1.5-9.9-8-6.4-3.2-2.7-.4-8.7,1.9-6-.2,3.2-3.6,4.2-2-9.3-1.4-5.4-3.7-7.3-.4-3.5.6-6,3.4-9.4,3.6-11-5-2.1-2.2.2-4.2-1.6-3.4-3.1-1.2,4.1-4.3,4.9-2.9,10.6-2.9,16.1-6.8,9-2.9,8.4-5,3.5-3.1,5.2-9.3,3.6-4.2-3.4-1-1.4-3.1.5-3.2,1.6-2.8-3.7-7.3,1-6-6.4.2-6.3.9-5.8,2.2-5.7,3-5,.5.2-2.4,2.2-2.9,5.7-4.2,6.1-3.5,4-5.7,3-2.5,8-4.6,15.1-5.2,8.1.3,5.8-.8,5.1-1.9,5.1-.4,11.2,5.5-3.2-8.4,5.1-2,7.1,7.6,2.7.8,3.6-2.4-5.9-1.2-2.8-2.4-4.5-7.8.3-4.6,6.9-9.2-5.2-2.6-.6-4.4,1-3.9,6.3-3.4,2-5.2.9-5.7-1-2.6-6.2.4-5.8,2.8h-2.8c0-.1-7.5-6.5-7.5-6.5l-4.2-4.8-7.5-10.2-.9-6.1,6.6-13.1,9.8-8.3,9.2-3.5h-17.2c0-.1-5.7.9-5.7.9l-5.4,3.4-6.1,1.4-8.7,5.6h-8.6c0,0-3.6-3.6-3.6-3.6h-4.7c0,0-5.3,3.1-5.3,3.1l-5.3,1.8-6.3-1.9-8.2-3.6-3.7,4.6-1.2,5.2-5.8-4.5-4.8-6-1.5-3.8v-4.3s2.8-1.6,2.8-1.6l2.9,1.5,4.8-10.1,9.3-13.1,3.2-3.9,2.3-5-.2-3.3-1.8-2.8-7.9-6.3,1.4-11,3.3-4.2h10.8c0,.1-4.1-1.7-4.1-1.7l-8.2-5.3-6.2,2.7-6,1.3-2.1,3.4-5.4.2v-4.5c.1,0,1.5-4.1,1.5-4.1l7-8.2-9.8,6.7-6.4,5.9-.5,2.7,1.9,7.8-.8,3.6-9.3,23.9-1.7,2.4-2.9,1.5-4.1-.5-1.7-1.8,1-5.1,3.9-11.3,4-6.1,1.7-4.5-2.3-1.4,1.3-15.2,2.8-5,1.3-7.3,2.5-6.2,2.8-4.5,2.2-5.8,3.1-2.6,1-4,3.5-4.2,1.4-4-17.1,11.6-4.3,2.1-5.8-.6-4.4-1.3-3.3-2.8-1.3-5.3-4.3-.2-3.5-1.6,4.8-2.9,7.6-1,7.2-4.6-6.1-3.1,6.2-3.6,7.3-8.9,1.8-8.2-4.2-6.4-6.5-2.8-.9-3.6,3.1-4,8.5-2.9-4.5-1.6-1.6-1.8-1.2-4.2,2.7-6.9,4.4-6.4,12.3.2,2.9-1.6h5.3c0,0-9.9-8.7-9.9-8.7l-.9-1.7,3.1-4.6.9-6,3.3-.8h9.9c0,.1,2.5-.7,2.5-.7l-3.2-5.2-.3-2.5,1.5-8.5,2.5-2.9,4.4-1.4,5.4,1,4.3,3.9,10.7-3.6,2.6,3.5,11.6-2.7,15.5-1.2,9.4-1.8,9.8-.6,9.2-2.1,9.7,1-.3,2.9-2.6,4.6Z"/>
    <path id="DK" class="st1" d="M795.2,421l-6.2-1.8-5.6,1-7.5,2.2h-4.3c0,0-3.5-2.4-3.5-2.4l-14-3.2-11.4-.3-.8-5.2-1.4-3.7-3.5-5.5,4.6-1.4-1.6-10.8-2.1-5.6-13.5-5.7-10.7-5.6,1.2-18.9.7-5.1-4.5-9.9-.3-11.4.5-17.9,5.6-.6,9.4,3.2,3.9.3,2.8,2.9,3.2,1.2,2-3.1.5-5.2,6.8-6.8,8.3-3.8,6.6,5.8v-6.7c.1,0,1.4-12.8,1.4-12.8l-7-2-5.5,1.8-5,8.1-4.3,10.2-8,1-6.3,2.9-6-3-3.9-2.6.3-6.2,6.3-8.3,8.6-8h9.2s6.5-2.6,6.5-2.6l4-.3,12.5.5,6.3-1.8,5.5-3.7,11.2-15.5,6.5-6.5,13.9-2.4,12.4-7.5h3.6c0-.1-5.7,5.5-5.7,5.5l-1.2,5.4,5,7.1-.6,4.4,1,8.5-3.8,4.5-3.9,9.5-1.9,1.4.5,11.1.7,2.6.2,10.1,5.2,4.1,5.3,2.1,17.1-.2,4.3,4.9-2.6,9.3-4.7,3.4-6.2,2.6h-4c0,.1-5.8-4.6-5.8-4.6l-4.9,4-3.4,13.1-1.4,8.8-8.1-.6-5.3,2.1,6.2,5.1-1.1,1.6-4.7,1.8-4,3.6-1.6,2.7-5.2,3.2-3.1,4.1,2,5,2.9,9.2-1.1,3.9-6.3,5.6-2.1,4.8h5.8c0-.1,3.6,1,3.6,1l4.5,3.4-1.1,2.5,2.2,6.4ZM846.2,268.2l-1.8,1.5-6.8-2,2.6-2.9,7.1-1.4,4.3.4-5.5,4.5ZM927.6,359.8l.7,6.3-2.8,3.1-8.7,3.1-3.5,3.2-1,4.5,3.2,3.3,5.5,1.7,2,6.2-4.1,3.1-11,3.1-.5,7.4,1.1,10.1-.4,5.9-8.9,2.7-6.7-8.9-.4-3.6-2.1-4.2-.6-3.6-2.6-5.7-12.2-1.7-5.8.7-6.3-7.8.2-8.6-3.4-4.3-.7-4.1-5.7-2.7-1.9-4.8,3.3-1.2,8.5.5,4.6-1.4,6.1-8,.2-4,7.3-.9,3.6,3-.2,4.9,1,6.3,6.4,1.9,2.5-6.9,1.7-1.3.2-4.3-3.7-4.5,7.9-5.3,8.2-4.2,5-.3,5.2,1,7.5,2.6,1.6,1.9-3.3,7.2,2.9,8.4ZM832.7,360.6h-3.9s-.7-4.1-.7-4.1l.9-3.7-1.6-3.3,1.3-2.1,6.1,7.1-2.1,6ZM933.4,371.5l-4.3,2.7-2.8-3.8,3.4-4.2,2.6,2.1,1.2,3.1ZM835.4,371.5l2.3,3.3,3.1,7,4.6,7.8-1.4,3.3,1.5,4.2-.8,4.4-7.5,5.1-8.8.3-9.4-2.4-13.3-4.6-3.2-4.1-4.1-8-.7-9.9,6.4-1.3,13.8-4.8,3.3.7,3.6,2.4h3.9c0,.1,5.4-3.4,5.4-3.4l1.1.2ZM1054.9,406.6l-1.7,1.1-8.2-1.7-10.3-4.3.5-8.5,2.1-3.7,19,9.4.6,3.6-1.9,4.1ZM844.2,425.4l-2.1.4-3.9-6.7,3.2-3.3,1.9-3.7,5.3-5.7,2.8-6.7h1.3c0,0-1,6-1,6l-7.5,19.6ZM810.6,417.1l-5,.9-2.7-1.5-4.8-.6-2.4-9.6h2.9c0,0,8.5,4.5,8.5,4.5l3.5,6.3ZM931.5,411.2l-1.8.9-7.6-.6-8,4.4-3.3-1.3,1.8-3.8,6.8-4.2,5.3.6,4.9,2.1,1.9,2ZM831.5,419.4l-3.2.7-3.9-1.3-6.5-5.1,2.4-.5,4.2,2.7,3.3.6,3.7,3.1ZM874,416.3l9,3.8,5.8-.3,4.1,1.6,1.2,2.5.8,5.5-4,1.7-4.7-.5-6.1,2.1-21.4-8.9-.3-7.5.6-3,9.7-.8,5.3,3.7Z"/>
    <path id="DE" class="st1" d="M725.4,423.8l-1.1-7.6,4.2.5,12.2.4-1.3,1.7-12.3,1.2-1.7,3.8ZM795.2,421l.4,1.2,7.2,1.6,6.9,6.7.8,5.8-7.3,6.9,13.4-1.1,3.8,5,7.1-1.9,18.8,7.5,10.7-3.8,2.8-.2,3,6.2-2.2,6.2-9.2,6.7,2.5,4.1,3.2.9,9.1-.9,14.9,3.9,2.9-1.3,11-9.4,4.5-2,15.3-1.6,2.5-3.6,5.9-3.7,3.7-4,9-7.6,10.1,1.3,6,1.4,6.5.7,6.6,8,15.6,8.8,13.5-.9,5.7,8.4,3.2,10.4,8.4,5.3,11.8,2.3,3.1,10.9,7.5,17.1.4,5.3-1.5,5.9-3.2,5-4.7,2.8-2.4,3.1v3.4c-.1,0,6.7,6,6.7,6l13.8,8.5,6,7.3-1.9,6.1-.3,4.5,3.6,5.1,3.4,1.7,1.6,2.7-.3,3.6.9,2.5,2.6,1.8-2.7,11.2-3.2,4.6,1.5,3.8,6.7,9-.8,5.2.8,1.3,9.5,3.7,1.7,1.7,1.2,3.6,4,7.8-1.6,9.9-1.8,5.4-4.5,9.5-1.9,2.6-2.2.2-5.8-2.5v-3.7c.1,0-3.4-2.5-3.4-2.5l-3-3.4-9.6-1.7-3,2.3,6.4,6.4-8.2,2.4-5.1,2.5-4.8,1.4-4.8,2.5-9.7,2.9-7.3.8-1.5.7-2.3,4.8-1.8,1-3.2-1.3-3.3,2.2-3.4.6-2.5,4.2-8.2,1.3-2.1,4.7-10.3-.9-2.9,1.4-7.9,1-4.7,2.8-4.4,4.8-3.7,5.8-2.7-4-5.2-4.1-2.1,2.7,4.8,5.8,2.1,4.9,3.8,3.4,5.7,2.7,4,2.7,3.1,3.7-.5,2.7-4.9,7.2,6.2,6.2,3.2,4,4.5,7.1,2.8,2.9,7.2,5.3h5.3c0-.1,5.9,4.3,5.9,4.3l6.5,6.3,4.8,2.9,3.2.9,2.8,2.3,3.6,5.2,2.2,1.4,5.5-.3,7.5,5.2,4.7,3.8,2.6,3.1-.5,1.2.5,7.9-.5,2.2-5.3,4.1-10-3.6-1.3,1.1-1.7,10.7-4.1,4-12.2,3.6-9.2,4.6-4.1,2.7-2.5,3.4v2c.1,0,11.1,11.5,11.1,11.5l.5,5.2-2.5,5.4,7.2,1.4,1.3,2.7v4.8c0,0-1.1,6.4-1.1,6.4l-2.4.2-4.8-1.9-5.3-3.6.5-2.7-1.5-2-4.6-1.8-10.4,2.1-6.5-3.2-8.8-1.2.7,3.9-.8,1.7-24.2,2.4-7.3,2.2-5.2,2.8-3.9,1.2-.8,1.7-3.8,2.3h-5.5l-7.6,2.1-3.2-.3-4.8-4.5-1.3-3.1-6.8-.2-4.4-1.4-11.8.5-.9,7.8-4.3,6.5-3.7,1.9-3,.4.6-5.3-5.5-1-3.6-5.9-3.4-2-7.1-2.9-4.8-1.5-4.9,3.1-5.3-.5-1.3.6-18.3-9.1-15.6,1-2.8-2.9-2-.8-3.3,1-6-4.1h-5.6s-3.7,2.2-3.7,2.2l-1.5,2.7,2.6,2.2,5.2-.5.5,2.2-4.2.7-3.2,1.5-4.6-1.1h-6.7s-5.3,2-5.3,2l-8.6.8-11.9-.3-4.4-1.4-2.7-.9-2.1-4.2.2-6.3,2.4-8.3.5-6.1-1.4-3.9,1.4-5.8,4.2-7.8,2.7-8.2,1.1-8.6,1.9-5.6,4.2-3.9,10.6-11.9-.6-5.5-7-2.3-10.5-1.9-9.7-1.2-4.5-1.5-4.1-4.1h-2.4s-4.6,1.5-4.6,1.5l-5.8,1-4.3-.8-4.9.3-1.2-3.5-5.8-1.7-2.1.4-3.6,3-2.1-.4-8.7-10-2.3-4.7-4-3-5.9-.6v-3.8c0,0,2.7-8.3,2.7-8.3l3.8-4v-5.7c-.1,0-8.5-2.5-8.5-2.5l-3.6-2.1-6.3-6.4-1.6-3.8v-5.4c.1,0,2.8-7,2.8-7l9.4-5.3-1.6-8.5-2.4-2.1-4.7-.8-1.9-2.9,3.3-3.3-4.2-2.5-1.9-2.6-5.9-3.3-.6-1.1,2.4-9.7-2.2-2.8-5.7-2.1-1.5-3.8,3.6.3,9.4-6.7-2.5-2-.5-2.8,4.2-8.2,1.2-3.5-.2-4.9-5.4-6.9-.2-2.4-1.9-1.3-5.5-6.5v-2.5c0,0,2.8-2,2.8-2l7.8-3,6.6,1.9,3,1.6,3.4-2.1,4.7.3,11.1-3.6,2.8-4.4-4.5-3.5,1.5-3.9,5.2-2.3,5.9-4.4,2-3.8.4-7.2-3.5-4h-6.8c0,.1-4.2-1.2-4.2-1.2l-3.1-4.1,1.2-2.7-.5-2.8,1.8-1h13.2s.9-1.2.9-1.2l.6-5.9,2.8-8.9,2.8-5,.4-2.1-.7-11.8v-6c.1,0-2.3-2.8-2.3-2.8l-5-3,.7-6.4,1.4-5,4.6-6.2,3.8-1.7,16.9-1.1,18.8.3,8.3,9.2-2.6,4.8,4.7,2.2,2.2-.8,2.3-8.7,1.5-1.4,6,3.4,2.2,2.3,2.1-2.7-2-7.1.7-6.9,4.1-5.9,13.9,2.4,15.1-1.4,5.9,2.6,13.9,13.3,4.5,2.2-19.1-18.3-4.8-2-7.3-.6-4.6-1.6-3-2.4-1-2.2-.9-16.4-2.9-2.4-3.6-.8-2.1,1.1h-4.5c0,0-1.2-3.6-1.2-3.6l.9-2.8,8.9-1.9,5.8-2.5v-4.4s-4-3.5-4-3.5l-4.9-6.4-5.6-6-1-7,11.4.3,14,3.2,3.5,2.3h4.3c0,0,7.5-2.1,7.5-2.1l5.6-1,6.2,1.8ZM739.4,428.4l-1.8,1.6-4.7-.2-2-3,4.4-1.4,3.2.7.9,2.2ZM991.9,447.3l1.7,4.2-1.1,2.2-5.9-3.5h-5.5c0,0-2.8,5.6-2.8,5.6l-2.4.3-9.1-4.9-2.1-4.5.5-7-.5-2.2,2.5-2.4v-3.5c0,0,4.4-3.7,4.4-3.7l4.2-.2,3.9,5.2,7.3,2.3,2,2.6-3.9,4.5,1.3,2.4,5.5,2.6ZM872.7,446l-7.5.2-3.1-2.5-3-.6,1.3-3.1,1.9-1.1,7.5,2,2.8,5.2ZM1020,479.2l-8.1.6-6.1-.9-1.5-3.8.6-3.6-5.1-3.9-.4-4.3,11,5.7,9,5.2.7,5Z"/>
    <path id="CZ" class="st1" d="M1069.3,668l4.3-.2,4.2-1.6-.3-8,6.8,1.3,6.9,2.1,1.4,4.7,4.4,4.4,5.7,1.1,9.4,2.7,4.4.5,8.7,3.9,2.8.4,3.4,3.7,2.9-1.2,10.8-1.7,4.2,2.1,3.3,3-2.7,4.6-3.6,1.1-3.2,3.8,1.2,1.8,5.4,1.7,1,1.4,7.6,6,6.5,7.9,4.4,1.5,7.6-5.7,7.2-3.2v-1.4s-4.6-5.3-4.6-5.3l-2.8-4.3,5.6-.2,9,2.3,14.3,7.6,7-.7,8.2-2.3,1.3,4.3-1,2.4-5.8,2.3,2.2,2.5,2.9,1,3.7,2.7,2.7,3.1,4.5,2.1,5.4-1.8,2-2.3,3.9,2.6,5.6,1.7,5.5,3.1,2.1-1,8.8,1.6,2.5,1.4.8,3.8,1.8,3.8,12,8.9,2.1,6.4-4.1,1.1-7.8.2-2.9,1.7-5.5,4.7-2.2,3.5-9.8,5.1-2,4.9-.4,7.2-1.6,1.8-5.5,1.6-5,5.3-3.4,2.6-6.5,3-7.2,1-9.7-.9-5.7-1.1-2.6,1.3-3.3,3.8-3.3,6.6-1.1,4.9-4.3-6.5-9-1.8-6.1-2.9-6.5-1.1-5.3,3.9h-7.6c0,0-8.4-.9-8.4-.9l-12.7-6.8-6.4.3-5.4-1.6-10.5-4.4-4.8-1-5.5,1.7-7.1-3.1-4.8.9-.3,9.8-.9,3.5h-5.2c0-.1-5.3,6.3-5.3,6.3l-.4,4.6-10.6-1.5-2.9.6-3,2.5h-9.2c0,0-7.4-1.5-7.4-1.5l-3.6-5.6-3.5-2.2-5.9-2.4-2.6-3.1-4.7-3.8-7.5-5.2-5.5.3-2.2-1.4-3.6-5.2-2.8-2.3-3.2-.9-4.8-2.9-6.5-6.3-5.9-4.4h-5.3c0,.1-7.2-5.2-7.2-5.2l-2.8-2.9-4.5-7.1-3.2-4-6.2-6.2,4.9-7.2.5-2.7-3.1-3.7-4-2.7-5.7-2.7-3.8-3.4-2.1-4.9-4.8-5.8,2.1-2.7,5.2,4.1,2.7,4,3.7-5.8,4.4-4.8,4.7-2.8,7.9-1,2.9-1.4,10.3.9,2.1-4.7,8.2-1.3,2.5-4.2,3.4-.6,3.3-2.2,3.2,1.3,1.8-1,2.3-4.8,1.5-.7,7.3-.8,9.7-2.9,4.8-2.5,4.8-1.4,5.1-2.5,8.2-2.4-6.4-6.4,3-2.3,9.6,1.7,3,3.4,3.5,2.5v3.7c-.1,0,5.7,2.5,5.7,2.5l2.2-.2,1.9-2.6Z"/>
    <path id="CH" class="st1" d="M814.9,879.3l5.5,3.6-.6,4.7-3.8,7.6-1.9,6.2.6,6.9,4.8.3,8.7,1.2,5.3,1.8,2,4.4,6.4,3.3,7.3,2.1,2.4-.7,8.4-7.7,3.5,1.3,2.3,4v2.2s-1.9,8.2-1.9,8.2l-.2,4.4,2.3,2.9v4.3c-.1,0-3.6.2-3.6.2l-4.8-1.1-4.2-3.5-5.6,1.4-2.1,7.3,2.5,3.9,4,10.5-3.3,1.6-2.1-.6-5.8-7.7-2.9-.4-5,1.4-7.6,3.2-5.9-.6-2.7-2.7-3.3-8.4-6.5-.8-2.3,1.3.2,11.9-2.2,4.2-6.6,7.4-2.4,3.2-1,4.3,2.9,6.7-1.1,1.9-3.6,1-2.7-2-1.2-3.6-5.9-4.8,2.4-4.1-.5-1-9.4-2.1-4.2-3-5.9-5.4-1.2-2.3-.2-7.5-1.2-2.7h-2.7c0,0-3.6,2.7-3.6,2.7l-3.3,3.9-7.6,5.4,2.6,4.3v1.7s-5.5,6.9-5.5,6.9l-1,2.3-10.5,6-10.5-3.1-2.8-.4-4.5,2.1-6.4,2-10.4,2-5.8-2.8-3.8-5.7-3.1-2.2-6.9-7.1,2.1-6.9-1.8-2.4-1.6-6.4-9.5-1.3-7.8.5-5.5,2.3-4.4,3.8-.2,1.5,2.4,3.5-3.7,3.8-5.8,2.9-6-.2-.2-4,3.4-1.5,3.1-2.6,1.2-6.2-3.4-3.1.4-1.9,4.5-9.6,12.7-9.1,1.1-10.7.9-1.4,8.6-3.5,16.4-16.6,2.4-3.5-.9-1.9-3.3-.5-1.2-2.1,3.4-3.7,4.3-2.3h4.3s3.6,3.5,3.6,3.5h7.3c0,0,3.9-1.5,3.9-1.5l3.6-5.8,6.1-2.9,4.4,1.4,11.9.3,8.6-.8,5.3-1.9h6.7s4.6,1,4.6,1l3.2-1.5,4.2-.7-.5-2.2-5.2.5-2.6-2.2,1.5-2.7,3.7-2.2h5.6s6,4.1,6,4.1l3.3-1,2,.8,2.8,2.9,15.6-1,18.3,9.1Z"/>
    <path id="BE" class="st1" d="M608,676.2l6.9-2.2,3.3,3.5h-4.8c0-.1,10,.1,10,.1l.6,1.1,5.9,3.3,1.9,2.6,4.2,2.5-3.3,3.3,1.9,2.9,4.7.8,2.4,2.1,1.6,8.5-9.4,5.3-2.7,7-1.5-2.1-5.8-.8-5.3,5.3-3.7,7.7-2.1,2.6-.7,7,3.3,3.1,5,7.1-2,4.2-2.3,2.5h-4.1s-10.3,1.8-10.3,1.8l-3.8-2.7-8.2-7.7-8-2.7-6.1-3.6-7.1-.6-1.6-7.9-2.7-2.8,3.2-11.1-2.2-1.1-5.6,3.5-2.4,5.9-5.6,2.7-9,1-9.9-.9-2.1-2.5,2.3-3.3.4-2.6-3-3.1,1.8-6.5-6.8-4.7-4.8-.9-10.3-.5-4.1,1.2-2.3-8.3-1.6-1.2-6-1.4-8.2-.5-2.2-1.5-2.1-8.2-2.8-4.3-3.9-3-4.2.8-5.1,2.5-4.2,1-4.1-2.4-4.6-3.8-3.7-4-.9-2.2,1.1-2.7-3.4-5.9-.6-3,21.8-10.6,13.3-5.4,6.2-1.6,1.6,5.4,2.7,2.8,2,.2,5.4-2.8,5.1.6,3.8,1.3,3.9,2.7,3.6.3,6.9-2.5,6.6-3.8,2.6-5,4,1.5,5-.4-1.1-3.8,5.9-3,4.4,3.3h2.3s6-4.4,6-4.4l2.8,2.4,2,3.1,4.8-.3,4.2-3.9,1.5,1,2.3,6.7,5.9,4.2,4.9,1.2,10-1,5.2,4.8,7.3,1.8,3.9,2.7-.3,2.5-3.2,6.1-.5,3.6-4.4,4.1-.3,1.5,2.9,4.3Z"/>
    <path id="AT" class="st1" d="M1193.8,808.9l-.2,3-3.4,6.9.5,3.4,6.8,11.8,5.7,7.1,1.2,2.8,3.4,2.1-2.7,2.7-.2,3.9-2.1,4,2.8,8.1-4.8.8-11.7.7-5.6-3.3-5.1-.5-3.9,3.3-1.7,2.4,11.1,2.9,2.4,4.6-2.2,5.6-5.3,2.8-3.7.3-.3,2,2.1,5.9-2.1,3.1,1.6,4.8,3,1.4-1.3,7.3-6.3.3-3.9,1.9-7.7,6.9-2.8,1.2-2.9,2.8.8,6-1,1.8-10.2-2-7,.9-4.3,2.8-5.4,1.6-11.7-.7-11.2,1.2-5.5,1.3-2.6,1.6-3.9,5.1-8,4-2.3,2.3-2.5-1.1-12.5-1.4-8.9-1.3-4.3-1.3-10-1.7-6.9-.5-11.2-2.1h-7.3c0,0-9.6-.9-9.6-.9l-19.3-3.2-5.6-1.3-11.7-1.5-4.9-1.9-6.9-8.3-6.4-6.2-1.5-3.1,3.3-4.8-1.8-1.3-10.2,2.7-9.9,3.4-13-.6-4.9.9-9.8.5-5.6,2.5-3.3,4.8-1.8,3.9-5,1.8-5.2-.3-3.7-1.1-3.9-3.3-11-.5-1.4-.6v-2.2s-2.4-4-2.4-4l-3.5-1.3-8.4,7.7-2.4.7-7.3-2.1-6.4-3.3-2-4.4-5.3-1.8-8.7-1.2,1.4-3.2-2.2-3.2-2.7-7.1,3.8-7.6.6-4.7-5.5-3.6,1.3-.6,5.3.5,4.9-3.1,4.8,1.5,7.1,2.9,3.4,2,3.6,5.9,5.5,1-.6,5.3,3-.4,3.7-1.9,4.3-6.5.9-7.8,11.8-.5,4.4,1.4,6.8.2,1.3,3.1,4.8,4.5,3.2.3,7.6-2.1h5.5l3.8-2.3.8-1.7,3.9-1.2,5.2-2.8,7.3-2.2,24.2-2.4.8-1.7-.7-3.9,8.8,1.2,6.5,3.2,10.4-2.1,4.6,1.8,1.5,2-.5,2.7,5.3,3.6,4.8,1.9,2.4-.2,1.2-6.4v-4.8c0,0-1.4-2.7-1.4-2.7l-7.2-1.4,2.5-5.4-.5-5.2-11-11.5v-2c-.1,0,2.4-3.4,2.4-3.4l4.1-2.7,9.2-4.6,12.2-3.6,4.1-4,1.7-10.7,1.3-1.1,10,3.6,5.3-4.1.5-2.2-.5-7.9.5-1.2,5.9,2.4,3.5,2.2,3.6,5.6,7.4,1.4h9.2c0,0,3-2.5,3-2.5l2.9-.6,10.6,1.5.4-4.6,5.3-6.5h5.2c0,.1.9-3.4.9-3.4l.3-9.8,4.8-.9,7.1,3.1,5.5-1.7,4.8,1,10.5,4.4,5.4,1.6,6.4-.3,12.7,6.8,8.4.9h7.6c0,0,5.3-3.9,5.3-3.9l6.5,1.1,6.1,2.9,9,1.8,4.3,6.5Z"/>
  </g>
  <path class="st0" d=""/>
</svg>