<svg xmlns="http://www.w3.org/2000/svg" viewBox="0 0 400 600">
  <circle cx="279.9" cy="10.1" r="2.5" fill="#9688F2" opacity="0.95"/>
  <circle cx="261.1" cy="21.7" r="2.5" fill="#9688F2" opacity="0.95"/>
  <circle cx="270.7" cy="21.7" r="2.5" fill="#9688F2" opacity="0.95"/>
  <circle cx="261.5" cy="33.3" r="2.5" fill="#9688F2" opacity="0.95"/>
  <circle cx="262.2" cy="56.3" r="2.5" fill="#9688F2" opacity="0.95"/>
  <circle cx="216.1" cy="90.5" r="2.5" fill="#9688F2" opacity="0.95"/>
  <circle cx="188.4" cy="101.8" r="2.5" fill="#9688F2" opacity="0.95"/>
  <circle cx="197.8" cy="101.8" r="2.5" fill="#9688F2" opacity="0.95"/>
  <circle cx="188.9" cy="113.0" r="2.5" fill="#9688F2" opacity="0.95"/>
  <circle cx="189.3" cy="124.2" r="2.5" fill="#9688F2" opacity="0.95"/>
  <circle cx="77.7" cy="135.3" r="2.5" fill="#9688F2" opacity="0.95"/>
  <circle cx="124.4" cy="135.3" r="2.5" fill="#9688F2" opacity="0.95"/>
  <circle cx="133.8" cy="135.3" r="2.5" fill="#9688F2" opacity="0.95"/>
  <circle cx="143.1" cy="135.3" r="2.5" fill="#9688F2" opacity="0.95"/>
  <circle cx="152.5" cy="135.3" r="2.5" fill="#9688F2" opacity="0.95"/>
  <circle cx="161.8" cy="135.3" r="2.5" fill="#9688F2" opacity="0.95"/>
  <circle cx="171.1" cy="135.3" r="2.5" fill="#9688F2" opacity="0.95"/>
  <circle cx="180.5" cy="135.3" r="2.5" fill="#9688F2" opacity="0.95"/>
  <circle cx="189.8" cy="135.3" r="2.5" fill="#9688F2" opacity="0.95"/>
  <circle cx="69.1" cy="146.4" r="2.5" fill="#9688F2" opacity="0.95"/>
  <circle cx="78.4" cy="146.4" r="2.5" fill="#9688F2" opacity="0.95"/>
  <circle cx="115.7" cy="146.4" r="2.5" fill="#9688F2" opacity="0.95"/>
  <circle cx="125.0" cy="146.4" r="2.5" fill="#9688F2" opacity="0.95"/>
  <circle cx="134.4" cy="146.4" r="2.5" fill="#9688F2" opacity="0.95"/>
  <circle cx="143.7" cy="146.4" r="2.5" fill="#9688F2" opacity="0.95"/>
  <circle cx="153.0" cy="146.4" r="2.5" fill="#9688F2" opacity="0.95"/>
  <circle cx="162.3" cy="146.4" r="2.5" fill="#9688F2" opacity="0.95"/>
  <circle cx="171.7" cy="146.4" r="2.5" fill="#9688F2" opacity="0.95"/>
  <circle cx="181.0" cy="146.4" r="2.5" fill="#9688F2" opacity="0.95"/>
  <circle cx="60.5" cy="157.5" r="2.5" fill="#9688F2" opacity="0.95"/>
  <circle cx="69.8" cy="157.5" r="2.5" fill="#9688F2" opacity="0.95"/>
  <circle cx="125.6" cy="157.5" r="2.5" fill="#9688F2" opacity="0.95"/>
  <circle cx="134.9" cy="157.5" r="2.5" fill="#9688F2" opacity="0.95"/>
  <circle cx="144.3" cy="157.5" r="2.5" fill="#9688F2" opacity="0.95"/>
  <circle cx="153.6" cy="157.5" r="2.5" fill="#9688F2" opacity="0.95"/>
  <circle cx="162.9" cy="157.5" r="2.5" fill="#9688F2" opacity="0.95"/>
  <circle cx="107.7" cy="168.5" r="2.5" fill="#9688F2" opacity="0.95"/>
  <circle cx="117.0" cy="168.5" r="2.5" fill="#9688F2" opacity="0.95"/>
  <circle cx="126.2" cy="168.5" r="2.5" fill="#9688F2" opacity="0.95"/>
  <circle cx="135.5" cy="168.5" r="2.5" fill="#9688F2" opacity="0.95"/>
  <circle cx="144.8" cy="168.5" r="2.5" fill="#9688F2" opacity="0.95"/>
  <circle cx="154.1" cy="168.5" r="2.5" fill="#9688F2" opacity="0.95"/>
  <circle cx="163.4" cy="168.5" r="2.5" fill="#9688F2" opacity="0.95"/>
  <circle cx="43.4" cy="179.5" r="2.5" fill="#9688F2" opacity="0.95"/>
  <circle cx="71.2" cy="179.5" r="2.5" fill="#9688F2" opacity="0.95"/>
  <circle cx="80.5" cy="179.5" r="2.5" fill="#9688F2" opacity="0.95"/>
  <circle cx="108.3" cy="179.5" r="2.5" fill="#9688F2" opacity="0.95"/>
  <circle cx="117.6" cy="179.5" r="2.5" fill="#9688F2" opacity="0.95"/>
  <circle cx="126.8" cy="179.5" r="2.5" fill="#9688F2" opacity="0.95"/>
  <circle cx="136.1" cy="179.5" r="2.5" fill="#9688F2" opacity="0.95"/>
  <circle cx="145.4" cy="179.5" r="2.5" fill="#9688F2" opacity="0.95"/>
  <circle cx="154.6" cy="179.5" r="2.5" fill="#9688F2" opacity="0.95"/>
  <circle cx="163.9" cy="179.5" r="2.5" fill="#9688F2" opacity="0.95"/>
  <circle cx="173.2" cy="179.5" r="2.5" fill="#9688F2" opacity="0.95"/>
  <circle cx="182.5" cy="179.5" r="2.5" fill="#9688F2" opacity="0.95"/>
  <circle cx="191.7" cy="179.5" r="2.5" fill="#9688F2" opacity="0.95"/>
  <circle cx="201.0" cy="179.5" r="2.5" fill="#9688F2" opacity="0.95"/>
  <circle cx="210.3" cy="179.5" r="2.5" fill="#9688F2" opacity="0.95"/>
  <circle cx="219.5" cy="179.5" r="2.5" fill="#9688F2" opacity="0.95"/>
  <circle cx="228.8" cy="179.5" r="2.5" fill="#9688F2" opacity="0.95"/>
  <circle cx="238.1" cy="179.5" r="2.5" fill="#9688F2" opacity="0.95"/>
  <circle cx="44.2" cy="190.4" r="2.5" fill="#9688F2" opacity="0.95"/>
  <circle cx="71.9" cy="190.4" r="2.5" fill="#9688F2" opacity="0.95"/>
  <circle cx="81.2" cy="190.4" r="2.5" fill="#9688F2" opacity="0.95"/>
  <circle cx="108.9" cy="190.4" r="2.5" fill="#9688F2" opacity="0.95"/>
  <circle cx="118.2" cy="190.4" r="2.5" fill="#9688F2" opacity="0.95"/>
  <circle cx="127.4" cy="190.4" r="2.5" fill="#9688F2" opacity="0.95"/>
  <circle cx="136.7" cy="190.4" r="2.5" fill="#9688F2" opacity="0.95"/>
  <circle cx="145.9" cy="190.4" r="2.5" fill="#9688F2" opacity="0.95"/>
  <circle cx="155.2" cy="190.4" r="2.5" fill="#9688F2" opacity="0.95"/>
  <circle cx="164.4" cy="190.4" r="2.5" fill="#9688F2" opacity="0.95"/>
  <circle cx="173.7" cy="190.4" r="2.5" fill="#9688F2" opacity="0.95"/>
  <circle cx="182.9" cy="190.4" r="2.5" fill="#9688F2" opacity="0.95"/>
  <circle cx="192.2" cy="190.4" r="2.5" fill="#9688F2" opacity="0.95"/>
  <circle cx="201.4" cy="190.4" r="2.5" fill="#9688F2" opacity="0.95"/>
  <circle cx="210.7" cy="190.4" r="2.5" fill="#9688F2" opacity="0.95"/>
  <circle cx="219.9" cy="190.4" r="2.5" fill="#9688F2" opacity="0.95"/>
  <circle cx="229.2" cy="190.4" r="2.5" fill="#9688F2" opacity="0.95"/>
  <circle cx="238.4" cy="190.4" r="2.5" fill="#9688F2" opacity="0.95"/>
  <circle cx="44.9" cy="201.3" r="2.5" fill="#9688F2" opacity="0.95"/>
  <circle cx="91.1" cy="201.3" r="2.5" fill="#9688F2" opacity="0.95"/>
  <circle cx="109.6" cy="201.3" r="2.5" fill="#9688F2" opacity="0.95"/>
  <circle cx="118.8" cy="201.3" r="2.5" fill="#9688F2" opacity="0.95"/>
  <circle cx="128.0" cy="201.3" r="2.5" fill="#9688F2" opacity="0.95"/>
  <circle cx="137.3" cy="201.3" r="2.5" fill="#9688F2" opacity="0.95"/>
  <circle cx="146.5" cy="201.3" r="2.5" fill="#9688F2" opacity="0.95"/>
  <circle cx="155.7" cy="201.3" r="2.5" fill="#9688F2" opacity="0.95"/>
  <circle cx="164.9" cy="201.3" r="2.5" fill="#9688F2" opacity="0.95"/>
  <circle cx="174.2" cy="201.3" r="2.5" fill="#9688F2" opacity="0.95"/>
  <circle cx="183.4" cy="201.3" r="2.5" fill="#9688F2" opacity="0.95"/>
  <circle cx="192.6" cy="201.3" r="2.5" fill="#9688F2" opacity="0.95"/>
  <circle cx="201.9" cy="201.3" r="2.5" fill="#9688F2" opacity="0.95"/>
  <circle cx="211.1" cy="201.3" r="2.5" fill="#9688F2" opacity="0.95"/>
  <circle cx="220.3" cy="201.3" r="2.5" fill="#9688F2" opacity="0.95"/>
  <circle cx="229.6" cy="201.3" r="2.5" fill="#9688F2" opacity="0.95"/>
  <circle cx="101.0" cy="212.2" r="2.5" fill="#9688F2" opacity="0.95"/>
  <circle cx="110.2" cy="212.2" r="2.5" fill="#9688F2" opacity="0.95"/>
  <circle cx="119.4" cy="212.2" r="2.5" fill="#9688F2" opacity="0.95"/>
  <circle cx="128.6" cy="212.2" r="2.5" fill="#9688F2" opacity="0.95"/>
  <circle cx="137.8" cy="212.2" r="2.5" fill="#9688F2" opacity="0.95"/>
  <circle cx="147.0" cy="212.2" r="2.5" fill="#9688F2" opacity="0.95"/>
  <circle cx="156.2" cy="212.2" r="2.5" fill="#9688F2" opacity="0.95"/>
  <circle cx="165.5" cy="212.2" r="2.5" fill="#9688F2" opacity="0.95"/>
  <circle cx="174.7" cy="212.2" r="2.5" fill="#9688F2" opacity="0.95"/>
  <circle cx="183.9" cy="212.2" r="2.5" fill="#9688F2" opacity="0.95"/>
  <circle cx="193.1" cy="212.2" r="2.5" fill="#9688F2" opacity="0.95"/>
  <circle cx="202.3" cy="212.2" r="2.5" fill="#9688F2" opacity="0.95"/>
  <circle cx="211.5" cy="212.2" r="2.5" fill="#9688F2" opacity="0.95"/>
  <circle cx="220.7" cy="212.2" r="2.5" fill="#9688F2" opacity="0.95"/>
  <circle cx="92.4" cy="223.0" r="2.5" fill="#9688F2" opacity="0.95"/>
  <circle cx="101.6" cy="223.0" r="2.5" fill="#9688F2" opacity="0.95"/>
  <circle cx="110.8" cy="223.0" r="2.5" fill="#9688F2" opacity="0.95"/>
  <circle cx="120.0" cy="223.0" r="2.5" fill="#9688F2" opacity="0.95"/>
  <circle cx="129.2" cy="223.0" r="2.5" fill="#9688F2" opacity="0.95"/>
  <circle cx="138.4" cy="223.0" r="2.5" fill="#9688F2" opacity="0.95"/>
  <circle cx="147.6" cy="223.0" r="2.5" fill="#9688F2" opacity="0.95"/>
  <circle cx="156.8" cy="223.0" r="2.5" fill="#9688F2" opacity="0.95"/>
  <circle cx="166.0" cy="223.0" r="2.5" fill="#9688F2" opacity="0.95"/>
  <circle cx="175.2" cy="223.0" r="2.5" fill="#9688F2" opacity="0.95"/>
  <circle cx="184.4" cy="223.0" r="2.5" fill="#9688F2" opacity="0.95"/>
  <circle cx="193.5" cy="223.0" r="2.5" fill="#9688F2" opacity="0.95"/>
  <circle cx="202.7" cy="223.0" r="2.5" fill="#9688F2" opacity="0.95"/>
  <circle cx="211.9" cy="223.0" r="2.5" fill="#9688F2" opacity="0.95"/>
  <circle cx="83.9" cy="233.8" r="2.5" fill="#9688F2" opacity="0.95"/>
  <circle cx="93.0" cy="233.8" r="2.5" fill="#9688F2" opacity="0.95"/>
  <circle cx="120.6" cy="233.8" r="2.5" fill="#9688F2" opacity="0.95"/>
  <circle cx="129.7" cy="233.8" r="2.5" fill="#9688F2" opacity="0.95"/>
  <circle cx="138.9" cy="233.8" r="2.5" fill="#9688F2" opacity="0.95"/>
  <circle cx="148.1" cy="233.8" r="2.5" fill="#9688F2" opacity="0.95"/>
  <circle cx="157.3" cy="233.8" r="2.5" fill="#9688F2" opacity="0.95"/>
  <circle cx="166.5" cy="233.8" r="2.5" fill="#9688F2" opacity="0.95"/>
  <circle cx="175.6" cy="233.8" r="2.5" fill="#9688F2" opacity="0.95"/>
  <circle cx="184.8" cy="233.8" r="2.5" fill="#9688F2" opacity="0.95"/>
  <circle cx="194.0" cy="233.8" r="2.5" fill="#9688F2" opacity="0.95"/>
  <circle cx="203.2" cy="233.8" r="2.5" fill="#9688F2" opacity="0.95"/>
  <circle cx="84.5" cy="244.5" r="2.5" fill="#9688F2" opacity="0.95"/>
  <circle cx="112.0" cy="244.5" r="2.5" fill="#9688F2" opacity="0.95"/>
  <circle cx="121.1" cy="244.5" r="2.5" fill="#9688F2" opacity="0.95"/>
  <circle cx="130.3" cy="244.5" r="2.5" fill="#9688F2" opacity="0.95"/>
  <circle cx="139.5" cy="244.5" r="2.5" fill="#9688F2" opacity="0.95"/>
  <circle cx="148.6" cy="244.5" r="2.5" fill="#9688F2" opacity="0.95"/>
  <circle cx="157.8" cy="244.5" r="2.5" fill="#9688F2" opacity="0.95"/>
  <circle cx="167.0" cy="244.5" r="2.5" fill="#9688F2" opacity="0.95"/>
  <circle cx="176.1" cy="244.5" r="2.5" fill="#9688F2" opacity="0.95"/>
  <circle cx="185.3" cy="244.5" r="2.5" fill="#9688F2" opacity="0.95"/>
  <circle cx="194.4" cy="244.5" r="2.5" fill="#9688F2" opacity="0.95"/>
  <circle cx="203.6" cy="244.5" r="2.5" fill="#9688F2" opacity="0.95"/>
  <circle cx="112.6" cy="255.2" r="2.5" fill="#9688F2" opacity="0.95"/>
  <circle cx="121.7" cy="255.2" r="2.5" fill="#9688F2" opacity="0.95"/>
  <circle cx="130.9" cy="255.2" r="2.5" fill="#9688F2" opacity="0.95"/>
  <circle cx="140.0" cy="255.2" r="2.5" fill="#9688F2" opacity="0.95"/>
  <circle cx="149.2" cy="255.2" r="2.5" fill="#9688F2" opacity="0.95"/>
  <circle cx="158.3" cy="255.2" r="2.5" fill="#9688F2" opacity="0.95"/>
  <circle cx="167.4" cy="255.2" r="2.5" fill="#9688F2" opacity="0.95"/>
  <circle cx="176.6" cy="255.2" r="2.5" fill="#9688F2" opacity="0.95"/>
  <circle cx="185.7" cy="255.2" r="2.5" fill="#9688F2" opacity="0.95"/>
  <circle cx="194.9" cy="255.2" r="2.5" fill="#9688F2" opacity="0.95"/>
  <circle cx="85.8" cy="265.9" r="2.5" fill="#9688F2" opacity="0.95"/>
  <circle cx="94.9" cy="265.9" r="2.5" fill="#9688F2" opacity="0.95"/>
  <circle cx="140.5" cy="265.9" r="2.5" fill="#9688F2" opacity="0.95"/>
  <circle cx="149.7" cy="265.9" r="2.5" fill="#9688F2" opacity="0.95"/>
  <circle cx="167.9" cy="265.9" r="2.5" fill="#9688F2" opacity="0.95"/>
  <circle cx="177.0" cy="265.9" r="2.5" fill="#9688F2" opacity="0.95"/>
  <circle cx="195.3" cy="265.9" r="2.5" fill="#9688F2" opacity="0.95"/>
  <circle cx="204.4" cy="265.9" r="2.5" fill="#9688F2" opacity="0.95"/>
  <circle cx="213.6" cy="265.9" r="2.5" fill="#9688F2" opacity="0.95"/>
  <circle cx="222.7" cy="265.9" r="2.5" fill="#9688F2" opacity="0.95"/>
  <circle cx="86.4" cy="276.5" r="2.5" fill="#9688F2" opacity="0.95"/>
  <circle cx="132.0" cy="276.5" r="2.5" fill="#9688F2" opacity="0.95"/>
  <circle cx="141.1" cy="276.5" r="2.5" fill="#9688F2" opacity="0.95"/>
  <circle cx="150.2" cy="276.5" r="2.5" fill="#9688F2" opacity="0.95"/>
  <circle cx="159.3" cy="276.5" r="2.5" fill="#9688F2" opacity="0.95"/>
  <circle cx="168.4" cy="276.5" r="2.5" fill="#9688F2" opacity="0.95"/>
  <circle cx="177.5" cy="276.5" r="2.5" fill="#9688F2" opacity="0.95"/>
  <circle cx="186.6" cy="276.5" r="2.5" fill="#9688F2" opacity="0.95"/>
  <circle cx="195.7" cy="276.5" r="2.5" fill="#9688F2" opacity="0.95"/>
  <circle cx="204.8" cy="276.5" r="2.5" fill="#9688F2" opacity="0.95"/>
  <circle cx="213.9" cy="276.5" r="2.5" fill="#9688F2" opacity="0.95"/>
  <circle cx="223.1" cy="276.5" r="2.5" fill="#9688F2" opacity="0.95"/>
  <circle cx="232.2" cy="276.5" r="2.5" fill="#9688F2" opacity="0.95"/>
  <circle cx="105.2" cy="287.1" r="2.5" fill="#9688F2" opacity="0.95"/>
  <circle cx="123.4" cy="287.1" r="2.5" fill="#9688F2" opacity="0.95"/>
  <circle cx="141.6" cy="287.1" r="2.5" fill="#9688F2" opacity="0.95"/>
  <circle cx="150.7" cy="287.1" r="2.5" fill="#9688F2" opacity="0.95"/>
  <circle cx="159.8" cy="287.1" r="2.5" fill="#9688F2" opacity="0.95"/>
  <circle cx="168.9" cy="287.1" r="2.5" fill="#9688F2" opacity="0.95"/>
  <circle cx="178.0" cy="287.1" r="2.5" fill="#9688F2" opacity="0.95"/>
  <circle cx="187.1" cy="287.1" r="2.5" fill="#9688F2" opacity="0.95"/>
  <circle cx="196.2" cy="287.1" r="2.5" fill="#9688F2" opacity="0.95"/>
  <circle cx="205.2" cy="287.1" r="2.5" fill="#9688F2" opacity="0.95"/>
  <circle cx="214.3" cy="287.1" r="2.5" fill="#9688F2" opacity="0.95"/>
  <circle cx="223.4" cy="287.1" r="2.5" fill="#9688F2" opacity="0.95"/>
  <circle cx="232.5" cy="287.1" r="2.5" fill="#9688F2" opacity="0.95"/>
  <circle cx="241.6" cy="287.1" r="2.5" fill="#9688F2" opacity="0.95"/>
  <circle cx="142.1" cy="297.6" r="2.5" fill="#9688F2" opacity="0.95"/>
  <circle cx="151.2" cy="297.6" r="2.5" fill="#9688F2" opacity="0.95"/>
  <circle cx="160.3" cy="297.6" r="2.5" fill="#9688F2" opacity="0.95"/>
  <circle cx="169.4" cy="297.6" r="2.5" fill="#9688F2" opacity="0.95"/>
  <circle cx="178.4" cy="297.6" r="2.5" fill="#9688F2" opacity="0.95"/>
  <circle cx="187.5" cy="297.6" r="2.5" fill="#9688F2" opacity="0.95"/>
  <circle cx="196.6" cy="297.6" r="2.5" fill="#9688F2" opacity="0.95"/>
  <circle cx="205.6" cy="297.6" r="2.5" fill="#9688F2" opacity="0.95"/>
  <circle cx="214.7" cy="297.6" r="2.5" fill="#9688F2" opacity="0.95"/>
  <circle cx="223.8" cy="297.6" r="2.5" fill="#9688F2" opacity="0.95"/>
  <circle cx="232.9" cy="297.6" r="2.5" fill="#9688F2" opacity="0.95"/>
  <circle cx="241.9" cy="297.6" r="2.5" fill="#9688F2" opacity="0.95"/>
  <circle cx="251.0" cy="297.6" r="2.5" fill="#9688F2" opacity="0.95"/>
  <circle cx="61.1" cy="308.2" r="2.5" fill="#9688F2" opacity="0.95"/>
  <circle cx="70.2" cy="308.2" r="2.5" fill="#9688F2" opacity="0.95"/>
  <circle cx="79.2" cy="308.2" r="2.5" fill="#9688F2" opacity="0.95"/>
  <circle cx="88.3" cy="308.2" r="2.5" fill="#9688F2" opacity="0.95"/>
  <circle cx="133.6" cy="308.2" r="2.5" fill="#9688F2" opacity="0.95"/>
  <circle cx="142.6" cy="308.2" r="2.5" fill="#9688F2" opacity="0.95"/>
  <circle cx="151.7" cy="308.2" r="2.5" fill="#9688F2" opacity="0.95"/>
  <circle cx="160.8" cy="308.2" r="2.5" fill="#9688F2" opacity="0.95"/>
  <circle cx="169.8" cy="308.2" r="2.5" fill="#9688F2" opacity="0.95"/>
  <circle cx="178.9" cy="308.2" r="2.5" fill="#9688F2" opacity="0.95"/>
  <circle cx="187.9" cy="308.2" r="2.5" fill="#9688F2" opacity="0.95"/>
  <circle cx="197.0" cy="308.2" r="2.5" fill="#9688F2" opacity="0.95"/>
  <circle cx="206.0" cy="308.2" r="2.5" fill="#9688F2" opacity="0.95"/>
  <circle cx="215.1" cy="308.2" r="2.5" fill="#9688F2" opacity="0.95"/>
  <circle cx="224.2" cy="308.2" r="2.5" fill="#9688F2" opacity="0.95"/>
  <circle cx="233.2" cy="308.2" r="2.5" fill="#9688F2" opacity="0.95"/>
  <circle cx="242.3" cy="308.2" r="2.5" fill="#9688F2" opacity="0.95"/>
  <circle cx="251.3" cy="308.2" r="2.5" fill="#9688F2" opacity="0.95"/>
  <circle cx="43.7" cy="318.7" r="2.5" fill="#9688F2" opacity="0.95"/>
  <circle cx="52.7" cy="318.7" r="2.5" fill="#9688F2" opacity="0.95"/>
  <circle cx="61.8" cy="318.7" r="2.5" fill="#9688F2" opacity="0.95"/>
  <circle cx="70.8" cy="318.7" r="2.5" fill="#9688F2" opacity="0.95"/>
  <circle cx="79.9" cy="318.7" r="2.5" fill="#9688F2" opacity="0.95"/>
  <circle cx="88.9" cy="318.7" r="2.5" fill="#9688F2" opacity="0.95"/>
  <circle cx="125.1" cy="318.7" r="2.5" fill="#9688F2" opacity="0.95"/>
  <circle cx="134.1" cy="318.7" r="2.5" fill="#9688F2" opacity="0.95"/>
  <circle cx="143.2" cy="318.7" r="2.5" fill="#9688F2" opacity="0.95"/>
  <circle cx="152.2" cy="318.7" r="2.5" fill="#9688F2" opacity="0.95"/>
  <circle cx="161.2" cy="318.7" r="2.5" fill="#9688F2" opacity="0.95"/>
  <circle cx="170.3" cy="318.7" r="2.5" fill="#9688F2" opacity="0.95"/>
  <circle cx="197.4" cy="318.7" r="2.5" fill="#9688F2" opacity="0.95"/>
  <circle cx="206.4" cy="318.7" r="2.5" fill="#9688F2" opacity="0.95"/>
  <circle cx="215.5" cy="318.7" r="2.5" fill="#9688F2" opacity="0.95"/>
  <circle cx="224.5" cy="318.7" r="2.5" fill="#9688F2" opacity="0.95"/>
  <circle cx="233.6" cy="318.7" r="2.5" fill="#9688F2" opacity="0.95"/>
  <circle cx="242.6" cy="318.7" r="2.5" fill="#9688F2" opacity="0.95"/>
  <circle cx="251.7" cy="318.7" r="2.5" fill="#9688F2" opacity="0.95"/>
  <circle cx="26.3" cy="329.1" r="2.5" fill="#9688F2" opacity="0.95"/>
  <circle cx="35.4" cy="329.1" r="2.5" fill="#9688F2" opacity="0.95"/>
  <circle cx="44.4" cy="329.1" r="2.5" fill="#9688F2" opacity="0.95"/>
  <circle cx="53.4" cy="329.1" r="2.5" fill="#9688F2" opacity="0.95"/>
  <circle cx="62.4" cy="329.1" r="2.5" fill="#9688F2" opacity="0.95"/>
  <circle cx="71.5" cy="329.1" r="2.5" fill="#9688F2" opacity="0.95"/>
  <circle cx="80.5" cy="329.1" r="2.5" fill="#9688F2" opacity="0.95"/>
  <circle cx="89.5" cy="329.1" r="2.5" fill="#9688F2" opacity="0.95"/>
  <circle cx="188.8" cy="329.1" r="2.5" fill="#9688F2" opacity="0.95"/>
  <circle cx="197.8" cy="329.1" r="2.5" fill="#9688F2" opacity="0.95"/>
  <circle cx="206.8" cy="329.1" r="2.5" fill="#9688F2" opacity="0.95"/>
  <circle cx="215.9" cy="329.1" r="2.5" fill="#9688F2" opacity="0.95"/>
  <circle cx="224.9" cy="329.1" r="2.5" fill="#9688F2" opacity="0.95"/>
  <circle cx="233.9" cy="329.1" r="2.5" fill="#9688F2" opacity="0.95"/>
  <circle cx="242.9" cy="329.1" r="2.5" fill="#9688F2" opacity="0.95"/>
  <circle cx="252.0" cy="329.1" r="2.5" fill="#9688F2" opacity="0.95"/>
  <circle cx="261.0" cy="329.1" r="2.5" fill="#9688F2" opacity="0.95"/>
  <circle cx="18.0" cy="339.5" r="2.5" fill="#9688F2" opacity="0.95"/>
  <circle cx="27.0" cy="339.5" r="2.5" fill="#9688F2" opacity="0.95"/>
  <circle cx="36.1" cy="339.5" r="2.5" fill="#9688F2" opacity="0.95"/>
  <circle cx="45.1" cy="339.5" r="2.5" fill="#9688F2" opacity="0.95"/>
  <circle cx="54.1" cy="339.5" r="2.5" fill="#9688F2" opacity="0.95"/>
  <circle cx="63.1" cy="339.5" r="2.5" fill="#9688F2" opacity="0.95"/>
  <circle cx="72.1" cy="339.5" r="2.5" fill="#9688F2" opacity="0.95"/>
  <circle cx="81.1" cy="339.5" r="2.5" fill="#9688F2" opacity="0.95"/>
  <circle cx="90.1" cy="339.5" r="2.5" fill="#9688F2" opacity="0.95"/>
  <circle cx="99.1" cy="339.5" r="2.5" fill="#9688F2" opacity="0.95"/>
  <circle cx="108.1" cy="339.5" r="2.5" fill="#9688F2" opacity="0.95"/>
  <circle cx="180.2" cy="339.5" r="2.5" fill="#9688F2" opacity="0.95"/>
  <circle cx="189.2" cy="339.5" r="2.5" fill="#9688F2" opacity="0.95"/>
  <circle cx="198.2" cy="339.5" r="2.5" fill="#9688F2" opacity="0.95"/>
  <circle cx="207.2" cy="339.5" r="2.5" fill="#9688F2" opacity="0.95"/>
  <circle cx="216.2" cy="339.5" r="2.5" fill="#9688F2" opacity="0.95"/>
  <circle cx="225.2" cy="339.5" r="2.5" fill="#9688F2" opacity="0.95"/>
  <circle cx="234.3" cy="339.5" r="2.5" fill="#9688F2" opacity="0.95"/>
  <circle cx="243.3" cy="339.5" r="2.5" fill="#9688F2" opacity="0.95"/>
  <circle cx="252.3" cy="339.5" r="2.5" fill="#9688F2" opacity="0.95"/>
  <circle cx="261.3" cy="339.5" r="2.5" fill="#9688F2" opacity="0.95"/>
  <circle cx="270.3" cy="339.5" r="2.5" fill="#9688F2" opacity="0.95"/>
  <circle cx="279.3" cy="339.5" r="2.5" fill="#9688F2" opacity="0.95"/>
  <circle cx="27.8" cy="349.9" r="2.5" fill="#9688F2" opacity="0.95"/>
  <circle cx="36.7" cy="349.9" r="2.5" fill="#9688F2" opacity="0.95"/>
  <circle cx="45.7" cy="349.9" r="2.5" fill="#9688F2" opacity="0.95"/>
  <circle cx="63.7" cy="349.9" r="2.5" fill="#9688F2" opacity="0.95"/>
  <circle cx="72.7" cy="349.9" r="2.5" fill="#9688F2" opacity="0.95"/>
  <circle cx="81.7" cy="349.9" r="2.5" fill="#9688F2" opacity="0.95"/>
  <circle cx="90.7" cy="349.9" r="2.5" fill="#9688F2" opacity="0.95"/>
  <circle cx="99.7" cy="349.9" r="2.5" fill="#9688F2" opacity="0.95"/>
  <circle cx="189.6" cy="349.9" r="2.5" fill="#9688F2" opacity="0.95"/>
  <circle cx="198.6" cy="349.9" r="2.5" fill="#9688F2" opacity="0.95"/>
  <circle cx="207.6" cy="349.9" r="2.5" fill="#9688F2" opacity="0.95"/>
  <circle cx="216.6" cy="349.9" r="2.5" fill="#9688F2" opacity="0.95"/>
  <circle cx="225.6" cy="349.9" r="2.5" fill="#9688F2" opacity="0.95"/>
  <circle cx="234.6" cy="349.9" r="2.5" fill="#9688F2" opacity="0.95"/>
  <circle cx="243.6" cy="349.9" r="2.5" fill="#9688F2" opacity="0.95"/>
  <circle cx="252.6" cy="349.9" r="2.5" fill="#9688F2" opacity="0.95"/>
  <circle cx="261.6" cy="349.9" r="2.5" fill="#9688F2" opacity="0.95"/>
  <circle cx="270.6" cy="349.9" r="2.5" fill="#9688F2" opacity="0.95"/>
  <circle cx="279.6" cy="349.9" r="2.5" fill="#9688F2" opacity="0.95"/>
  <circle cx="288.6" cy="349.9" r="2.5" fill="#9688F2" opacity="0.95"/>
  <circle cx="73.3" cy="360.3" r="2.5" fill="#9688F2" opacity="0.95"/>
  <circle cx="82.3" cy="360.3" r="2.5" fill="#9688F2" opacity="0.95"/>
  <circle cx="91.3" cy="360.3" r="2.5" fill="#9688F2" opacity="0.95"/>
  <circle cx="208.0" cy="360.3" r="2.5" fill="#9688F2" opacity="0.95"/>
  <circle cx="217.0" cy="360.3" r="2.5" fill="#9688F2" opacity="0.95"/>
  <circle cx="226.0" cy="360.3" r="2.5" fill="#9688F2" opacity="0.95"/>
  <circle cx="234.9" cy="360.3" r="2.5" fill="#9688F2" opacity="0.95"/>
  <circle cx="243.9" cy="360.3" r="2.5" fill="#9688F2" opacity="0.95"/>
  <circle cx="252.9" cy="360.3" r="2.5" fill="#9688F2" opacity="0.95"/>
  <circle cx="261.9" cy="360.3" r="2.5" fill="#9688F2" opacity="0.95"/>
  <circle cx="270.8" cy="360.3" r="2.5" fill="#9688F2" opacity="0.95"/>
  <circle cx="279.8" cy="360.3" r="2.5" fill="#9688F2" opacity="0.95"/>
  <circle cx="288.8" cy="360.3" r="2.5" fill="#9688F2" opacity="0.95"/>
  <circle cx="297.8" cy="360.3" r="2.5" fill="#9688F2" opacity="0.95"/>
  <circle cx="199.4" cy="370.6" r="2.5" fill="#9688F2" opacity="0.95"/>
  <circle cx="208.4" cy="370.6" r="2.5" fill="#9688F2" opacity="0.95"/>
  <circle cx="217.3" cy="370.6" r="2.5" fill="#9688F2" opacity="0.95"/>
  <circle cx="226.3" cy="370.6" r="2.5" fill="#9688F2" opacity="0.95"/>
  <circle cx="235.3" cy="370.6" r="2.5" fill="#9688F2" opacity="0.95"/>
  <circle cx="244.2" cy="370.6" r="2.5" fill="#9688F2" opacity="0.95"/>
  <circle cx="253.2" cy="370.6" r="2.5" fill="#9688F2" opacity="0.95"/>
  <circle cx="262.1" cy="370.6" r="2.5" fill="#9688F2" opacity="0.95"/>
  <circle cx="280.1" cy="370.6" r="2.5" fill="#9688F2" opacity="0.95"/>
  <circle cx="289.0" cy="370.6" r="2.5" fill="#9688F2" opacity="0.95"/>
  <circle cx="298.0" cy="370.6" r="2.5" fill="#9688F2" opacity="0.95"/>
  <circle cx="208.8" cy="380.9" r="2.5" fill="#9688F2" opacity="0.95"/>
  <circle cx="217.7" cy="380.9" r="2.5" fill="#9688F2" opacity="0.95"/>
  <circle cx="226.6" cy="380.9" r="2.5" fill="#9688F2" opacity="0.95"/>
  <circle cx="235.6" cy="380.9" r="2.5" fill="#9688F2" opacity="0.95"/>
  <circle cx="253.5" cy="380.9" r="2.5" fill="#9688F2" opacity="0.95"/>
  <circle cx="262.4" cy="380.9" r="2.5" fill="#9688F2" opacity="0.95"/>
  <circle cx="271.4" cy="380.9" r="2.5" fill="#9688F2" opacity="0.95"/>
  <circle cx="280.3" cy="380.9" r="2.5" fill="#9688F2" opacity="0.95"/>
  <circle cx="289.3" cy="380.9" r="2.5" fill="#9688F2" opacity="0.95"/>
  <circle cx="307.2" cy="380.9" r="2.5" fill="#9688F2" opacity="0.95"/>
  <circle cx="200.2" cy="391.2" r="2.5" fill="#9688F2" opacity="0.95"/>
  <circle cx="209.1" cy="391.2" r="2.5" fill="#9688F2" opacity="0.95"/>
  <circle cx="218.1" cy="391.2" r="2.5" fill="#9688F2" opacity="0.95"/>
  <circle cx="235.9" cy="391.2" r="2.5" fill="#9688F2" opacity="0.95"/>
  <circle cx="244.8" cy="391.2" r="2.5" fill="#9688F2" opacity="0.95"/>
  <circle cx="253.8" cy="391.2" r="2.5" fill="#9688F2" opacity="0.95"/>
  <circle cx="262.7" cy="391.2" r="2.5" fill="#9688F2" opacity="0.95"/>
  <circle cx="271.6" cy="391.2" r="2.5" fill="#9688F2" opacity="0.95"/>
  <circle cx="280.6" cy="391.2" r="2.5" fill="#9688F2" opacity="0.95"/>
  <circle cx="289.5" cy="391.2" r="2.5" fill="#9688F2" opacity="0.95"/>
  <circle cx="298.4" cy="391.2" r="2.5" fill="#9688F2" opacity="0.95"/>
  <circle cx="307.4" cy="391.2" r="2.5" fill="#9688F2" opacity="0.95"/>
  <circle cx="147.1" cy="401.4" r="2.5" fill="#9688F2" opacity="0.95"/>
  <circle cx="156.0" cy="401.4" r="2.5" fill="#9688F2" opacity="0.95"/>
  <circle cx="182.7" cy="401.4" r="2.5" fill="#9688F2" opacity="0.95"/>
  <circle cx="191.7" cy="401.4" r="2.5" fill="#9688F2" opacity="0.95"/>
  <circle cx="200.6" cy="401.4" r="2.5" fill="#9688F2" opacity="0.95"/>
  <circle cx="209.5" cy="401.4" r="2.5" fill="#9688F2" opacity="0.95"/>
  <circle cx="218.4" cy="401.4" r="2.5" fill="#9688F2" opacity="0.95"/>
  <circle cx="227.3" cy="401.4" r="2.5" fill="#9688F2" opacity="0.95"/>
  <circle cx="236.2" cy="401.4" r="2.5" fill="#9688F2" opacity="0.95"/>
  <circle cx="245.2" cy="401.4" r="2.5" fill="#9688F2" opacity="0.95"/>
  <circle cx="254.1" cy="401.4" r="2.5" fill="#9688F2" opacity="0.95"/>
  <circle cx="263.0" cy="401.4" r="2.5" fill="#9688F2" opacity="0.95"/>
  <circle cx="271.9" cy="401.4" r="2.5" fill="#9688F2" opacity="0.95"/>
  <circle cx="280.8" cy="401.4" r="2.5" fill="#9688F2" opacity="0.95"/>
  <circle cx="289.7" cy="401.4" r="2.5" fill="#9688F2" opacity="0.95"/>
  <circle cx="298.6" cy="401.4" r="2.5" fill="#9688F2" opacity="0.95"/>
  <circle cx="307.6" cy="401.4" r="2.5" fill="#9688F2" opacity="0.95"/>
  <circle cx="316.5" cy="401.4" r="2.5" fill="#9688F2" opacity="0.95"/>
  <circle cx="156.5" cy="411.6" r="2.5" fill="#9688F2" opacity="0.95"/>
  <circle cx="165.4" cy="411.6" r="2.5" fill="#9688F2" opacity="0.95"/>
  <circle cx="174.3" cy="411.6" r="2.5" fill="#9688F2" opacity="0.95"/>
  <circle cx="183.2" cy="411.6" r="2.5" fill="#9688F2" opacity="0.95"/>
  <circle cx="192.1" cy="411.6" r="2.5" fill="#9688F2" opacity="0.95"/>
  <circle cx="201.0" cy="411.6" r="2.5" fill="#9688F2" opacity="0.95"/>
  <circle cx="209.9" cy="411.6" r="2.5" fill="#9688F2" opacity="0.95"/>
  <circle cx="218.8" cy="411.6" r="2.5" fill="#9688F2" opacity="0.95"/>
  <circle cx="227.7" cy="411.6" r="2.5" fill="#9688F2" opacity="0.95"/>
  <circle cx="236.6" cy="411.6" r="2.5" fill="#9688F2" opacity="0.95"/>
  <circle cx="245.5" cy="411.6" r="2.5" fill="#9688F2" opacity="0.95"/>
  <circle cx="254.4" cy="411.6" r="2.5" fill="#9688F2" opacity="0.95"/>
  <circle cx="263.3" cy="411.6" r="2.5" fill="#9688F2" opacity="0.95"/>
  <circle cx="272.2" cy="411.6" r="2.5" fill="#9688F2" opacity="0.95"/>
  <circle cx="281.1" cy="411.6" r="2.5" fill="#9688F2" opacity="0.95"/>
  <circle cx="290.0" cy="411.6" r="2.5" fill="#9688F2" opacity="0.95"/>
  <circle cx="298.9" cy="411.6" r="2.5" fill="#9688F2" opacity="0.95"/>
  <circle cx="307.8" cy="411.6" r="2.5" fill="#9688F2" opacity="0.95"/>
  <circle cx="316.7" cy="411.6" r="2.5" fill="#9688F2" opacity="0.95"/>
  <circle cx="148.0" cy="421.8" r="2.5" fill="#9688F2" opacity="0.95"/>
  <circle cx="156.9" cy="421.8" r="2.5" fill="#9688F2" opacity="0.95"/>
  <circle cx="165.8" cy="421.8" r="2.5" fill="#9688F2" opacity="0.95"/>
  <circle cx="174.7" cy="421.8" r="2.5" fill="#9688F2" opacity="0.95"/>
  <circle cx="183.6" cy="421.8" r="2.5" fill="#9688F2" opacity="0.95"/>
  <circle cx="192.5" cy="421.8" r="2.5" fill="#9688F2" opacity="0.95"/>
  <circle cx="201.3" cy="421.8" r="2.5" fill="#9688F2" opacity="0.95"/>
  <circle cx="210.2" cy="421.8" r="2.5" fill="#9688F2" opacity="0.95"/>
  <circle cx="219.1" cy="421.8" r="2.5" fill="#9688F2" opacity="0.95"/>
  <circle cx="228.0" cy="421.8" r="2.5" fill="#9688F2" opacity="0.95"/>
  <circle cx="236.9" cy="421.8" r="2.5" fill="#9688F2" opacity="0.95"/>
  <circle cx="245.8" cy="421.8" r="2.5" fill="#9688F2" opacity="0.95"/>
  <circle cx="254.6" cy="421.8" r="2.5" fill="#9688F2" opacity="0.95"/>
  <circle cx="263.5" cy="421.8" r="2.5" fill="#9688F2" opacity="0.95"/>
  <circle cx="272.4" cy="421.8" r="2.5" fill="#9688F2" opacity="0.95"/>
  <circle cx="281.3" cy="421.8" r="2.5" fill="#9688F2" opacity="0.95"/>
  <circle cx="290.2" cy="421.8" r="2.5" fill="#9688F2" opacity="0.95"/>
  <circle cx="299.1" cy="421.8" r="2.5" fill="#9688F2" opacity="0.95"/>
  <circle cx="307.9" cy="421.8" r="2.5" fill="#9688F2" opacity="0.95"/>
  <circle cx="334.6" cy="421.8" r="2.5" fill="#9688F2" opacity="0.95"/>
  <circle cx="343.5" cy="421.8" r="2.5" fill="#9688F2" opacity="0.95"/>
  <circle cx="352.4" cy="421.8" r="2.5" fill="#9688F2" opacity="0.95"/>
  <circle cx="166.2" cy="432.0" r="2.5" fill="#9688F2" opacity="0.95"/>
  <circle cx="175.1" cy="432.0" r="2.5" fill="#9688F2" opacity="0.95"/>
  <circle cx="184.0" cy="432.0" r="2.5" fill="#9688F2" opacity="0.95"/>
  <circle cx="192.8" cy="432.0" r="2.5" fill="#9688F2" opacity="0.95"/>
  <circle cx="201.7" cy="432.0" r="2.5" fill="#9688F2" opacity="0.95"/>
  <circle cx="210.6" cy="432.0" r="2.5" fill="#9688F2" opacity="0.95"/>
  <circle cx="219.4" cy="432.0" r="2.5" fill="#9688F2" opacity="0.95"/>
  <circle cx="228.3" cy="432.0" r="2.5" fill="#9688F2" opacity="0.95"/>
  <circle cx="237.2" cy="432.0" r="2.5" fill="#9688F2" opacity="0.95"/>
  <circle cx="246.1" cy="432.0" r="2.5" fill="#9688F2" opacity="0.95"/>
  <circle cx="254.9" cy="432.0" r="2.5" fill="#9688F2" opacity="0.95"/>
  <circle cx="263.8" cy="432.0" r="2.5" fill="#9688F2" opacity="0.95"/>
  <circle cx="272.7" cy="432.0" r="2.5" fill="#9688F2" opacity="0.95"/>
  <circle cx="281.5" cy="432.0" r="2.5" fill="#9688F2" opacity="0.95"/>
  <circle cx="290.4" cy="432.0" r="2.5" fill="#9688F2" opacity="0.95"/>
  <circle cx="299.3" cy="432.0" r="2.5" fill="#9688F2" opacity="0.95"/>
  <circle cx="308.1" cy="432.0" r="2.5" fill="#9688F2" opacity="0.95"/>
  <circle cx="317.0" cy="432.0" r="2.5" fill="#9688F2" opacity="0.95"/>
  <circle cx="325.9" cy="432.0" r="2.5" fill="#9688F2" opacity="0.95"/>
  <circle cx="334.8" cy="432.0" r="2.5" fill="#9688F2" opacity="0.95"/>
  <circle cx="343.6" cy="432.0" r="2.5" fill="#9688F2" opacity="0.95"/>
  <circle cx="352.5" cy="432.0" r="2.5" fill="#9688F2" opacity="0.95"/>
  <circle cx="361.4" cy="432.0" r="2.5" fill="#9688F2" opacity="0.95"/>
  <circle cx="370.2" cy="432.0" r="2.5" fill="#9688F2" opacity="0.95"/>
  <circle cx="166.7" cy="442.1" r="2.5" fill="#9688F2" opacity="0.95"/>
  <circle cx="175.5" cy="442.1" r="2.5" fill="#9688F2" opacity="0.95"/>
  <circle cx="184.4" cy="442.1" r="2.5" fill="#9688F2" opacity="0.95"/>
  <circle cx="193.2" cy="442.1" r="2.5" fill="#9688F2" opacity="0.95"/>
  <circle cx="202.1" cy="442.1" r="2.5" fill="#9688F2" opacity="0.95"/>
  <circle cx="210.9" cy="442.1" r="2.5" fill="#9688F2" opacity="0.95"/>
  <circle cx="219.8" cy="442.1" r="2.5" fill="#9688F2" opacity="0.95"/>
  <circle cx="228.6" cy="442.1" r="2.5" fill="#9688F2" opacity="0.95"/>
  <circle cx="237.5" cy="442.1" r="2.5" fill="#9688F2" opacity="0.95"/>
  <circle cx="246.4" cy="442.1" r="2.5" fill="#9688F2" opacity="0.95"/>
  <circle cx="255.2" cy="442.1" r="2.5" fill="#9688F2" opacity="0.95"/>
  <circle cx="264.1" cy="442.1" r="2.5" fill="#9688F2" opacity="0.95"/>
  <circle cx="272.9" cy="442.1" r="2.5" fill="#9688F2" opacity="0.95"/>
  <circle cx="281.8" cy="442.1" r="2.5" fill="#9688F2" opacity="0.95"/>
  <circle cx="290.6" cy="442.1" r="2.5" fill="#9688F2" opacity="0.95"/>
  <circle cx="299.5" cy="442.1" r="2.5" fill="#9688F2" opacity="0.95"/>
  <circle cx="308.3" cy="442.1" r="2.5" fill="#9688F2" opacity="0.95"/>
  <circle cx="317.2" cy="442.1" r="2.5" fill="#9688F2" opacity="0.95"/>
  <circle cx="326.0" cy="442.1" r="2.5" fill="#9688F2" opacity="0.95"/>
  <circle cx="334.9" cy="442.1" r="2.5" fill="#9688F2" opacity="0.95"/>
  <circle cx="343.8" cy="442.1" r="2.5" fill="#9688F2" opacity="0.95"/>
  <circle cx="361.5" cy="442.1" r="2.5" fill="#9688F2" opacity="0.95"/>
  <circle cx="370.3" cy="442.1" r="2.5" fill="#9688F2" opacity="0.95"/>
  <circle cx="167.1" cy="452.2" r="2.5" fill="#9688F2" opacity="0.95"/>
  <circle cx="175.9" cy="452.2" r="2.5" fill="#9688F2" opacity="0.95"/>
  <circle cx="184.8" cy="452.2" r="2.5" fill="#9688F2" opacity="0.95"/>
  <circle cx="193.6" cy="452.2" r="2.5" fill="#9688F2" opacity="0.95"/>
  <circle cx="202.4" cy="452.2" r="2.5" fill="#9688F2" opacity="0.95"/>
  <circle cx="211.3" cy="452.2" r="2.5" fill="#9688F2" opacity="0.95"/>
  <circle cx="220.1" cy="452.2" r="2.5" fill="#9688F2" opacity="0.95"/>
  <circle cx="229.0" cy="452.2" r="2.5" fill="#9688F2" opacity="0.95"/>
  <circle cx="237.8" cy="452.2" r="2.5" fill="#9688F2" opacity="0.95"/>
  <circle cx="246.6" cy="452.2" r="2.5" fill="#9688F2" opacity="0.95"/>
  <circle cx="255.5" cy="452.2" r="2.5" fill="#9688F2" opacity="0.95"/>
  <circle cx="264.3" cy="452.2" r="2.5" fill="#9688F2" opacity="0.95"/>
  <circle cx="273.2" cy="452.2" r="2.5" fill="#9688F2" opacity="0.95"/>
  <circle cx="282.0" cy="452.2" r="2.5" fill="#9688F2" opacity="0.95"/>
  <circle cx="290.8" cy="452.2" r="2.5" fill="#9688F2" opacity="0.95"/>
  <circle cx="299.7" cy="452.2" r="2.5" fill="#9688F2" opacity="0.95"/>
  <circle cx="308.5" cy="452.2" r="2.5" fill="#9688F2" opacity="0.95"/>
  <circle cx="317.4" cy="452.2" r="2.5" fill="#9688F2" opacity="0.95"/>
  <circle cx="326.2" cy="452.2" r="2.5" fill="#9688F2" opacity="0.95"/>
  <circle cx="335.0" cy="452.2" r="2.5" fill="#9688F2" opacity="0.95"/>
  <circle cx="343.9" cy="452.2" r="2.5" fill="#9688F2" opacity="0.95"/>
  <circle cx="352.7" cy="452.2" r="2.5" fill="#9688F2" opacity="0.95"/>
  <circle cx="361.6" cy="452.2" r="2.5" fill="#9688F2" opacity="0.95"/>
  <circle cx="149.9" cy="462.2" r="2.5" fill="#9688F2" opacity="0.95"/>
  <circle cx="158.7" cy="462.2" r="2.5" fill="#9688F2" opacity="0.95"/>
  <circle cx="167.5" cy="462.2" r="2.5" fill="#9688F2" opacity="0.95"/>
  <circle cx="176.3" cy="462.2" r="2.5" fill="#9688F2" opacity="0.95"/>
  <circle cx="185.2" cy="462.2" r="2.5" fill="#9688F2" opacity="0.95"/>
  <circle cx="194.0" cy="462.2" r="2.5" fill="#9688F2" opacity="0.95"/>
  <circle cx="202.8" cy="462.2" r="2.5" fill="#9688F2" opacity="0.95"/>
  <circle cx="211.6" cy="462.2" r="2.5" fill="#9688F2" opacity="0.95"/>
  <circle cx="220.5" cy="462.2" r="2.5" fill="#9688F2" opacity="0.95"/>
  <circle cx="229.3" cy="462.2" r="2.5" fill="#9688F2" opacity="0.95"/>
  <circle cx="238.1" cy="462.2" r="2.5" fill="#9688F2" opacity="0.95"/>
  <circle cx="246.9" cy="462.2" r="2.5" fill="#9688F2" opacity="0.95"/>
  <circle cx="255.8" cy="462.2" r="2.5" fill="#9688F2" opacity="0.95"/>
  <circle cx="264.6" cy="462.2" r="2.5" fill="#9688F2" opacity="0.95"/>
  <circle cx="273.4" cy="462.2" r="2.5" fill="#9688F2" opacity="0.95"/>
  <circle cx="282.2" cy="462.2" r="2.5" fill="#9688F2" opacity="0.95"/>
  <circle cx="291.1" cy="462.2" r="2.5" fill="#9688F2" opacity="0.95"/>
  <circle cx="299.9" cy="462.2" r="2.5" fill="#9688F2" opacity="0.95"/>
  <circle cx="308.7" cy="462.2" r="2.5" fill="#9688F2" opacity="0.95"/>
  <circle cx="317.5" cy="462.2" r="2.5" fill="#9688F2" opacity="0.95"/>
  <circle cx="326.4" cy="462.2" r="2.5" fill="#9688F2" opacity="0.95"/>
  <circle cx="335.2" cy="462.2" r="2.5" fill="#9688F2" opacity="0.95"/>
  <circle cx="344.0" cy="462.2" r="2.5" fill="#9688F2" opacity="0.95"/>
  <circle cx="352.8" cy="462.2" r="2.5" fill="#9688F2" opacity="0.95"/>
  <circle cx="361.7" cy="462.2" r="2.5" fill="#9688F2" opacity="0.95"/>
  <circle cx="123.9" cy="472.3" r="2.5" fill="#9688F2" opacity="0.95"/>
  <circle cx="132.7" cy="472.3" r="2.5" fill="#9688F2" opacity="0.95"/>
  <circle cx="141.5" cy="472.3" r="2.5" fill="#9688F2" opacity="0.95"/>
  <circle cx="150.3" cy="472.3" r="2.5" fill="#9688F2" opacity="0.95"/>
  <circle cx="159.1" cy="472.3" r="2.5" fill="#9688F2" opacity="0.95"/>
  <circle cx="167.9" cy="472.3" r="2.5" fill="#9688F2" opacity="0.95"/>
  <circle cx="176.7" cy="472.3" r="2.5" fill="#9688F2" opacity="0.95"/>
  <circle cx="185.6" cy="472.3" r="2.5" fill="#9688F2" opacity="0.95"/>
  <circle cx="194.4" cy="472.3" r="2.5" fill="#9688F2" opacity="0.95"/>
  <circle cx="203.2" cy="472.3" r="2.5" fill="#9688F2" opacity="0.95"/>
  <circle cx="212.0" cy="472.3" r="2.5" fill="#9688F2" opacity="0.95"/>
  <circle cx="220.8" cy="472.3" r="2.5" fill="#9688F2" opacity="0.95"/>
  <circle cx="229.6" cy="472.3" r="2.5" fill="#9688F2" opacity="0.95"/>
  <circle cx="238.4" cy="472.3" r="2.5" fill="#9688F2" opacity="0.95"/>
  <circle cx="247.2" cy="472.3" r="2.5" fill="#9688F2" opacity="0.95"/>
  <circle cx="256.0" cy="472.3" r="2.5" fill="#9688F2" opacity="0.95"/>
  <circle cx="264.9" cy="472.3" r="2.5" fill="#9688F2" opacity="0.95"/>
  <circle cx="273.7" cy="472.3" r="2.5" fill="#9688F2" opacity="0.95"/>
  <circle cx="282.5" cy="472.3" r="2.5" fill="#9688F2" opacity="0.95"/>
  <circle cx="291.3" cy="472.3" r="2.5" fill="#9688F2" opacity="0.95"/>
  <circle cx="300.1" cy="472.3" r="2.5" fill="#9688F2" opacity="0.95"/>
  <circle cx="308.9" cy="472.3" r="2.5" fill="#9688F2" opacity="0.95"/>
  <circle cx="317.7" cy="472.3" r="2.5" fill="#9688F2" opacity="0.95"/>
  <circle cx="326.5" cy="472.3" r="2.5" fill="#9688F2" opacity="0.95"/>
  <circle cx="335.3" cy="472.3" r="2.5" fill="#9688F2" opacity="0.95"/>
  <circle cx="344.1" cy="472.3" r="2.5" fill="#9688F2" opacity="0.95"/>
  <circle cx="353.0" cy="472.3" r="2.5" fill="#9688F2" opacity="0.95"/>
  <circle cx="124.4" cy="482.3" r="2.5" fill="#9688F2" opacity="0.95"/>
  <circle cx="133.2" cy="482.3" r="2.5" fill="#9688F2" opacity="0.95"/>
  <circle cx="142.0" cy="482.3" r="2.5" fill="#9688F2" opacity="0.95"/>
  <circle cx="150.8" cy="482.3" r="2.5" fill="#9688F2" opacity="0.95"/>
  <circle cx="159.6" cy="482.3" r="2.5" fill="#9688F2" opacity="0.95"/>
  <circle cx="177.1" cy="482.3" r="2.5" fill="#9688F2" opacity="0.95"/>
  <circle cx="185.9" cy="482.3" r="2.5" fill="#9688F2" opacity="0.95"/>
  <circle cx="194.7" cy="482.3" r="2.5" fill="#9688F2" opacity="0.95"/>
  <circle cx="203.5" cy="482.3" r="2.5" fill="#9688F2" opacity="0.95"/>
  <circle cx="212.3" cy="482.3" r="2.5" fill="#9688F2" opacity="0.95"/>
  <circle cx="221.1" cy="482.3" r="2.5" fill="#9688F2" opacity="0.95"/>
  <circle cx="229.9" cy="482.3" r="2.5" fill="#9688F2" opacity="0.95"/>
  <circle cx="238.7" cy="482.3" r="2.5" fill="#9688F2" opacity="0.95"/>
  <circle cx="247.5" cy="482.3" r="2.5" fill="#9688F2" opacity="0.95"/>
  <circle cx="256.3" cy="482.3" r="2.5" fill="#9688F2" opacity="0.95"/>
  <circle cx="265.1" cy="482.3" r="2.5" fill="#9688F2" opacity="0.95"/>
  <circle cx="273.9" cy="482.3" r="2.5" fill="#9688F2" opacity="0.95"/>
  <circle cx="282.7" cy="482.3" r="2.5" fill="#9688F2" opacity="0.95"/>
  <circle cx="291.5" cy="482.3" r="2.5" fill="#9688F2" opacity="0.95"/>
  <circle cx="300.3" cy="482.3" r="2.5" fill="#9688F2" opacity="0.95"/>
  <circle cx="309.1" cy="482.3" r="2.5" fill="#9688F2" opacity="0.95"/>
  <circle cx="317.9" cy="482.3" r="2.5" fill="#9688F2" opacity="0.95"/>
  <circle cx="326.7" cy="482.3" r="2.5" fill="#9688F2" opacity="0.95"/>
  <circle cx="335.5" cy="482.3" r="2.5" fill="#9688F2" opacity="0.95"/>
  <circle cx="177.5" cy="492.3" r="2.5" fill="#9688F2" opacity="0.95"/>
  <circle cx="186.3" cy="492.3" r="2.5" fill="#9688F2" opacity="0.95"/>
  <circle cx="195.1" cy="492.3" r="2.5" fill="#9688F2" opacity="0.95"/>
  <circle cx="203.9" cy="492.3" r="2.5" fill="#9688F2" opacity="0.95"/>
  <circle cx="221.5" cy="492.3" r="2.5" fill="#9688F2" opacity="0.95"/>
  <circle cx="230.2" cy="492.3" r="2.5" fill="#9688F2" opacity="0.95"/>
  <circle cx="239.0" cy="492.3" r="2.5" fill="#9688F2" opacity="0.95"/>
  <circle cx="247.8" cy="492.3" r="2.5" fill="#9688F2" opacity="0.95"/>
  <circle cx="256.6" cy="492.3" r="2.5" fill="#9688F2" opacity="0.95"/>
  <circle cx="265.4" cy="492.3" r="2.5" fill="#9688F2" opacity="0.95"/>
  <circle cx="274.1" cy="492.3" r="2.5" fill="#9688F2" opacity="0.95"/>
  <circle cx="282.9" cy="492.3" r="2.5" fill="#9688F2" opacity="0.95"/>
  <circle cx="291.7" cy="492.3" r="2.5" fill="#9688F2" opacity="0.95"/>
  <circle cx="309.3" cy="492.3" r="2.5" fill="#9688F2" opacity="0.95"/>
  <circle cx="318.1" cy="492.3" r="2.5" fill="#9688F2" opacity="0.95"/>
  <circle cx="326.8" cy="492.3" r="2.5" fill="#9688F2" opacity="0.95"/>
  <circle cx="335.6" cy="492.3" r="2.5" fill="#9688F2" opacity="0.95"/>
  <circle cx="204.2" cy="502.3" r="2.5" fill="#9688F2" opacity="0.95"/>
  <circle cx="221.8" cy="502.3" r="2.5" fill="#9688F2" opacity="0.95"/>
  <circle cx="230.5" cy="502.3" r="2.5" fill="#9688F2" opacity="0.95"/>
  <circle cx="239.3" cy="502.3" r="2.5" fill="#9688F2" opacity="0.95"/>
  <circle cx="248.1" cy="502.3" r="2.5" fill="#9688F2" opacity="0.95"/>
  <circle cx="256.9" cy="502.3" r="2.5" fill="#9688F2" opacity="0.95"/>
  <circle cx="265.6" cy="502.3" r="2.5" fill="#9688F2" opacity="0.95"/>
  <circle cx="274.4" cy="502.3" r="2.5" fill="#9688F2" opacity="0.95"/>
  <circle cx="283.2" cy="502.3" r="2.5" fill="#9688F2" opacity="0.95"/>
  <circle cx="291.9" cy="502.3" r="2.5" fill="#9688F2" opacity="0.95"/>
  <circle cx="300.7" cy="502.3" r="2.5" fill="#9688F2" opacity="0.95"/>
  <circle cx="309.5" cy="502.3" r="2.5" fill="#9688F2" opacity="0.95"/>
  <circle cx="318.2" cy="502.3" r="2.5" fill="#9688F2" opacity="0.95"/>
  <circle cx="327.0" cy="502.3" r="2.5" fill="#9688F2" opacity="0.95"/>
  <circle cx="335.8" cy="502.3" r="2.5" fill="#9688F2" opacity="0.95"/>
  <circle cx="160.8" cy="512.2" r="2.5" fill="#9688F2" opacity="0.95"/>
  <circle cx="169.6" cy="512.2" r="2.5" fill="#9688F2" opacity="0.95"/>
  <circle cx="178.3" cy="512.2" r="2.5" fill="#9688F2" opacity="0.95"/>
  <circle cx="187.1" cy="512.2" r="2.5" fill="#9688F2" opacity="0.95"/>
  <circle cx="195.8" cy="512.2" r="2.5" fill="#9688F2" opacity="0.95"/>
  <circle cx="204.6" cy="512.2" r="2.5" fill="#9688F2" opacity="0.95"/>
  <circle cx="213.3" cy="512.2" r="2.5" fill="#9688F2" opacity="0.95"/>
  <circle cx="222.1" cy="512.2" r="2.5" fill="#9688F2" opacity="0.95"/>
  <circle cx="230.9" cy="512.2" r="2.5" fill="#9688F2" opacity="0.95"/>
  <circle cx="239.6" cy="512.2" r="2.5" fill="#9688F2" opacity="0.95"/>
  <circle cx="248.4" cy="512.2" r="2.5" fill="#9688F2" opacity="0.95"/>
  <circle cx="257.1" cy="512.2" r="2.5" fill="#9688F2" opacity="0.95"/>
  <circle cx="265.9" cy="512.2" r="2.5" fill="#9688F2" opacity="0.95"/>
  <circle cx="274.6" cy="512.2" r="2.5" fill="#9688F2" opacity="0.95"/>
  <circle cx="283.4" cy="512.2" r="2.5" fill="#9688F2" opacity="0.95"/>
  <circle cx="292.1" cy="512.2" r="2.5" fill="#9688F2" opacity="0.95"/>
  <circle cx="300.9" cy="512.2" r="2.5" fill="#9688F2" opacity="0.95"/>
  <circle cx="309.6" cy="512.2" r="2.5" fill="#9688F2" opacity="0.95"/>
  <circle cx="318.4" cy="512.2" r="2.5" fill="#9688F2" opacity="0.95"/>
  <circle cx="327.1" cy="512.2" r="2.5" fill="#9688F2" opacity="0.95"/>
  <circle cx="335.9" cy="512.2" r="2.5" fill="#9688F2" opacity="0.95"/>
  <circle cx="344.7" cy="512.2" r="2.5" fill="#9688F2" opacity="0.95"/>
  <circle cx="353.4" cy="512.2" r="2.5" fill="#9688F2" opacity="0.95"/>
  <circle cx="152.5" cy="522.1" r="2.5" fill="#9688F2" opacity="0.95"/>
  <circle cx="161.2" cy="522.1" r="2.5" fill="#9688F2" opacity="0.95"/>
  <circle cx="170.0" cy="522.1" r="2.5" fill="#9688F2" opacity="0.95"/>
  <circle cx="178.7" cy="522.1" r="2.5" fill="#9688F2" opacity="0.95"/>
  <circle cx="187.5" cy="522.1" r="2.5" fill="#9688F2" opacity="0.95"/>
  <circle cx="196.2" cy="522.1" r="2.5" fill="#9688F2" opacity="0.95"/>
  <circle cx="204.9" cy="522.1" r="2.5" fill="#9688F2" opacity="0.95"/>
  <circle cx="213.7" cy="522.1" r="2.5" fill="#9688F2" opacity="0.95"/>
  <circle cx="222.4" cy="522.1" r="2.5" fill="#9688F2" opacity="0.95"/>
  <circle cx="231.2" cy="522.1" r="2.5" fill="#9688F2" opacity="0.95"/>
  <circle cx="239.9" cy="522.1" r="2.5" fill="#9688F2" opacity="0.95"/>
  <circle cx="248.6" cy="522.1" r="2.5" fill="#9688F2" opacity="0.95"/>
  <circle cx="266.1" cy="522.1" r="2.5" fill="#9688F2" opacity="0.95"/>
  <circle cx="274.9" cy="522.1" r="2.5" fill="#9688F2" opacity="0.95"/>
  <circle cx="283.6" cy="522.1" r="2.5" fill="#9688F2" opacity="0.95"/>
  <circle cx="292.3" cy="522.1" r="2.5" fill="#9688F2" opacity="0.95"/>
  <circle cx="301.1" cy="522.1" r="2.5" fill="#9688F2" opacity="0.95"/>
  <circle cx="309.8" cy="522.1" r="2.5" fill="#9688F2" opacity="0.95"/>
  <circle cx="318.6" cy="522.1" r="2.5" fill="#9688F2" opacity="0.95"/>
  <circle cx="327.3" cy="522.1" r="2.5" fill="#9688F2" opacity="0.95"/>
  <circle cx="336.0" cy="522.1" r="2.5" fill="#9688F2" opacity="0.95"/>
  <circle cx="344.8" cy="522.1" r="2.5" fill="#9688F2" opacity="0.95"/>
  <circle cx="144.2" cy="532.0" r="2.5" fill="#9688F2" opacity="0.95"/>
  <circle cx="152.9" cy="532.0" r="2.5" fill="#9688F2" opacity="0.95"/>
  <circle cx="161.6" cy="532.0" r="2.5" fill="#9688F2" opacity="0.95"/>
  <circle cx="170.4" cy="532.0" r="2.5" fill="#9688F2" opacity="0.95"/>
  <circle cx="179.1" cy="532.0" r="2.5" fill="#9688F2" opacity="0.95"/>
  <circle cx="187.8" cy="532.0" r="2.5" fill="#9688F2" opacity="0.95"/>
  <circle cx="196.6" cy="532.0" r="2.5" fill="#9688F2" opacity="0.95"/>
  <circle cx="205.3" cy="532.0" r="2.5" fill="#9688F2" opacity="0.95"/>
  <circle cx="214.0" cy="532.0" r="2.5" fill="#9688F2" opacity="0.95"/>
  <circle cx="222.7" cy="532.0" r="2.5" fill="#9688F2" opacity="0.95"/>
  <circle cx="231.5" cy="532.0" r="2.5" fill="#9688F2" opacity="0.95"/>
  <circle cx="240.2" cy="532.0" r="2.5" fill="#9688F2" opacity="0.95"/>
  <circle cx="248.9" cy="532.0" r="2.5" fill="#9688F2" opacity="0.95"/>
  <circle cx="257.6" cy="532.0" r="2.5" fill="#9688F2" opacity="0.95"/>
  <circle cx="275.1" cy="532.0" r="2.5" fill="#9688F2" opacity="0.95"/>
  <circle cx="283.8" cy="532.0" r="2.5" fill="#9688F2" opacity="0.95"/>
  <circle cx="318.7" cy="532.0" r="2.5" fill="#9688F2" opacity="0.95"/>
  <circle cx="135.9" cy="541.8" r="2.5" fill="#9688F2" opacity="0.95"/>
  <circle cx="144.6" cy="541.8" r="2.5" fill="#9688F2" opacity="0.95"/>
  <circle cx="153.3" cy="541.8" r="2.5" fill="#9688F2" opacity="0.95"/>
  <circle cx="162.1" cy="541.8" r="2.5" fill="#9688F2" opacity="0.95"/>
  <circle cx="170.8" cy="541.8" r="2.5" fill="#9688F2" opacity="0.95"/>
  <circle cx="179.5" cy="541.8" r="2.5" fill="#9688F2" opacity="0.95"/>
  <circle cx="231.8" cy="541.8" r="2.5" fill="#9688F2" opacity="0.95"/>
  <circle cx="127.7" cy="551.7" r="2.5" fill="#9688F2" opacity="0.95"/>
  <circle cx="136.4" cy="551.7" r="2.5" fill="#9688F2" opacity="0.95"/>
  <circle cx="145.1" cy="551.7" r="2.5" fill="#9688F2" opacity="0.95"/>
  <circle cx="153.8" cy="551.7" r="2.5" fill="#9688F2" opacity="0.95"/>
  <circle cx="162.5" cy="551.7" r="2.5" fill="#9688F2" opacity="0.95"/>
  <circle cx="171.2" cy="551.7" r="2.5" fill="#9688F2" opacity="0.95"/>
  <circle cx="179.9" cy="551.7" r="2.5" fill="#9688F2" opacity="0.95"/>
  <circle cx="119.4" cy="561.5" r="2.5" fill="#9688F2" opacity="0.95"/>
  <circle cx="128.1" cy="561.5" r="2.5" fill="#9688F2" opacity="0.95"/>
  <circle cx="171.6" cy="561.5" r="2.5" fill="#9688F2" opacity="0.95"/>
  <circle cx="119.9" cy="571.3" r="2.5" fill="#9688F2" opacity="0.95"/>
  <circle cx="300.5" cy="492.3" r="6" fill="#F5C842" stroke="#041A16" stroke-width="1"/>
  <circle cx="158.8" cy="265.9" r="6" fill="#F5C842" stroke="#041A16" stroke-width="1"/>
  <circle cx="186.2" cy="265.9" r="6" fill="#F5C842" stroke="#041A16" stroke-width="1"/>
  <circle cx="213.0" cy="502.3" r="6" fill="#F5C842" stroke="#041A16" stroke-width="1"/>
  <circle cx="271.1" cy="370.6" r="6" fill="#F5C842" stroke="#041A16" stroke-width="1"/>
  <circle cx="352.6" cy="442.1" r="6" fill="#F5C842" stroke="#041A16" stroke-width="1"/>
  <circle cx="244.5" cy="380.9" r="6" fill="#F5C842" stroke="#041A16" stroke-width="1"/>
  <circle cx="310.0" cy="532.0" r="6" fill="#F5C842" stroke="#041A16" stroke-width="1"/>
  <circle cx="257.4" cy="522.1" r="6" fill="#F5C842" stroke="#041A16" stroke-width="1"/>
  <circle cx="227.0" cy="391.2" r="6" fill="#F5C842" stroke="#041A16" stroke-width="1"/>
  <circle cx="168.3" cy="482.3" r="6" fill="#F5C842" stroke="#041A16" stroke-width="1"/>
</svg>